<svg width="24" height="24" viewBox="0 0 24 24" fill="none" xmlns="http://www.w3.org/2000/svg">
<path opacity="0.32" fill-rule="evenodd" clip-rule="evenodd" d="M6.25 12C6.25 11.5858 6.58579 11.25 7 11.25H18C18.4142 11.25 18.75 11.5858 18.75 12C18.75 12.4142 18.4142 12.75 18 12.75H7C6.58579 12.75 6.25 12.4142 6.25 12Z" fill="black"/>
<path fill-rule="evenodd" clip-rule="evenodd" d="M12.5892 5.53598C12.8455 5.86141 12.7894 6.33296 12.464 6.58923L8.09679 10.0284L8.08284 10.0384C7.09265 10.7473 6.75 11.4413 6.75 12C6.75 12.5587 7.09265 13.2527 8.08284 13.9616L8.09679 13.9716L12.464 17.4108C12.7894 17.667 12.8455 18.1386 12.5892 18.464C12.333 18.7894 11.8614 18.8455 11.536 18.5892L7.19536 15.171C5.99888 14.3101 5.25 13.2221 5.25 12C5.25 10.7779 5.99888 9.68994 7.19536 8.82902L11.536 5.41077C11.8614 5.1545 12.333 5.21056 12.5892 5.53598Z" fill="black"/>
</svg>
