<svg width="24" height="24" viewBox="0 0 24 24" fill="none" xmlns="http://www.w3.org/2000/svg">
<path opacity="0.32" fill-rule="evenodd" clip-rule="evenodd" d="M12 6.25C12.4142 6.25 12.75 6.58579 12.75 7V18C12.75 18.4142 12.4142 18.75 12 18.75C11.5858 18.75 11.25 18.4142 11.25 18V7C11.25 6.58579 11.5858 6.25 12 6.25Z" fill="black"/>
<path fill-rule="evenodd" clip-rule="evenodd" d="M15.171 7.19536L18.5892 11.536C18.8455 11.8614 18.7894 12.333 18.464 12.5892C18.1386 12.8455 17.667 12.7894 17.4107 12.464L13.9716 8.09679L13.9616 8.08284C13.2527 7.09265 12.5587 6.75 12 6.75C11.4413 6.75 10.7473 7.09265 10.0384 8.08284L10.0284 8.09679L6.5892 12.464C6.33293 12.7894 5.86138 12.8455 5.53595 12.5892C5.21053 12.333 5.15447 11.8614 5.41074 11.536L8.82898 7.19536C9.68991 5.99888 10.7778 5.25 12 5.25C13.2221 5.25 14.31 5.99888 15.171 7.19536Z" fill="black"/>
</svg>
