<svg width="24" height="24" viewBox="0 0 24 24" fill="none" xmlns="http://www.w3.org/2000/svg">
<path opacity="0.32" fill-rule="evenodd" clip-rule="evenodd" d="M5.25 12C5.25 11.5858 5.58579 11.25 6 11.25L17 11.25C17.4142 11.25 17.75 11.5858 17.75 12C17.75 12.4142 17.4142 12.75 17 12.75L6 12.75C5.58579 12.75 5.25 12.4142 5.25 12Z" fill="black"/>
<path fill-rule="evenodd" clip-rule="evenodd" d="M11.4108 5.53598C11.667 5.21056 12.1386 5.1545 12.464 5.41077L16.8046 8.82901C18.0011 9.68994 18.75 10.7779 18.75 12C18.75 13.2221 18.0011 14.3101 16.8046 15.171L12.464 18.5892C12.1386 18.8455 11.667 18.7894 11.4108 18.464C11.1545 18.1386 11.2106 17.667 11.536 17.4108L15.9032 13.9716L15.9172 13.9616C16.9074 13.2527 17.25 12.5587 17.25 12C17.25 11.4413 16.9074 10.7473 15.9172 10.0384L15.9032 10.0284L11.536 6.58923C11.2106 6.33296 11.1545 5.86141 11.4108 5.53598Z" fill="black"/>
</svg>
