<svg width="24" height="24" viewBox="0 0 24 24" fill="none" xmlns="http://www.w3.org/2000/svg">
<path opacity="0.32" fill-rule="evenodd" clip-rule="evenodd" d="M12 5.25C12.4142 5.25 12.75 5.58579 12.75 6L12.75 17C12.75 17.4142 12.4142 17.75 12 17.75C11.5858 17.75 11.25 17.4142 11.25 17L11.25 6C11.25 5.58579 11.5858 5.25 12 5.25Z" fill="black"/>
<path fill-rule="evenodd" clip-rule="evenodd" d="M5.53598 11.4108C5.86141 11.1545 6.33296 11.2106 6.58923 11.536L10.0284 15.9032L10.0384 15.9172C10.7473 16.9074 11.4413 17.25 12 17.25C12.5587 17.25 13.2527 16.9074 13.9616 15.9172L13.9716 15.9032L17.4108 11.536C17.667 11.2106 18.1386 11.1545 18.464 11.4108C18.7894 11.667 18.8455 12.1386 18.5892 12.464L15.171 16.8046C14.3101 18.0011 13.2221 18.75 12 18.75C10.7779 18.75 9.68994 18.0011 8.82901 16.8046L5.41077 12.464C5.1545 12.1386 5.21056 11.667 5.53598 11.4108Z" fill="black"/>
</svg>
