<svg width="24" height="24" viewBox="0 0 24 24" fill="none" xmlns="http://www.w3.org/2000/svg">
<path fill-rule="evenodd" clip-rule="evenodd" d="M18.5892 11.536L15.171 7.19536C14.31 5.99888 13.2221 5.25 12 5.25C10.7778 5.25 9.68991 5.99888 8.82898 7.19536L5.41074 11.536C5.15447 11.8614 5.21053 12.333 5.53595 12.5892C5.86138 12.8455 6.33293 12.7894 6.5892 12.464L10.0178 8.11027L10.0284 8.09679L10.0384 8.08284C10.4563 7.49905 10.8691 7.14034 11.252 6.94423C11.2507 6.96264 11.25 6.98124 11.25 7V18C11.25 18.4142 11.5858 18.75 12 18.75C12.4142 18.75 12.75 18.4142 12.75 18V7C12.75 6.98124 12.7493 6.96264 12.7479 6.94423C13.1308 7.14034 13.5436 7.49905 13.9616 8.08284L13.9716 8.09679L13.9822 8.11027L17.4107 12.464C17.667 12.7894 18.1386 12.8455 18.464 12.5892C18.7894 12.333 18.8455 11.8614 18.5892 11.536Z" fill="black"/>
</svg>
