<svg width="24" height="24" viewBox="0 0 24 24" fill="none" xmlns="http://www.w3.org/2000/svg">
<path fill-rule="evenodd" clip-rule="evenodd" d="M12.75 6C12.75 5.58579 12.4142 5.25 12 5.25C11.5858 5.25 11.25 5.58579 11.25 6L11.25 17C11.25 17.0188 11.2507 17.0374 11.252 17.0558C10.8691 16.8597 10.4564 16.501 10.0384 15.9172L10.0284 15.9032L10.0178 15.8897L6.58923 11.536C6.33296 11.2106 5.86141 11.1545 5.53598 11.4108C5.21056 11.667 5.1545 12.1386 5.41077 12.464L8.82901 16.8046C9.68994 18.0011 10.7779 18.75 12 18.75C13.2221 18.75 14.3101 18.0011 15.171 16.8046L18.5892 12.464C18.8455 12.1386 18.7894 11.667 18.464 11.4108C18.1386 11.1545 17.667 11.2106 17.4108 11.536L13.9822 15.8897L13.9716 15.9032L13.9616 15.9172C13.5437 16.501 13.1309 16.8597 12.748 17.0558C12.7493 17.0374 12.75 17.0188 12.75 17L12.75 6Z" fill="black"/>
</svg>
