<svg width="24" height="24" viewBox="0 0 24 24" fill="none" xmlns="http://www.w3.org/2000/svg">
<path fill-rule="evenodd" clip-rule="evenodd" d="M12.464 5.41077C12.1386 5.1545 11.667 5.21056 11.4108 5.53598C11.1545 5.86141 11.2106 6.33296 11.536 6.58923L15.8897 10.0178L15.9032 10.0284L15.9172 10.0384C16.501 10.4564 16.8597 10.8691 17.0558 11.252C17.0374 11.2507 17.0188 11.25 17 11.25L6 11.25C5.58579 11.25 5.25 11.5858 5.25 12C5.25 12.4142 5.58579 12.75 6 12.75L17 12.75C17.0188 12.75 17.0374 12.7493 17.0558 12.748C16.8597 13.1309 16.501 13.5437 15.9172 13.9616L15.9032 13.9716L15.8897 13.9822L11.536 17.4108C11.2106 17.667 11.1545 18.1386 11.4108 18.464C11.667 18.7894 12.1386 18.8455 12.464 18.5892L16.8046 15.171C18.0011 14.3101 18.75 13.2221 18.75 12C18.75 10.7779 18.0011 9.68994 16.8046 8.82901L12.464 5.41077Z" fill="black"/>
</svg>
