<svg width="24" height="24" viewBox="0 0 24 24" fill="none" xmlns="http://www.w3.org/2000/svg">
<path fill-rule="evenodd" clip-rule="evenodd" d="M12.464 6.58923C12.7894 6.33296 12.8455 5.86141 12.5892 5.53598C12.333 5.21056 11.8614 5.1545 11.536 5.41077L7.19536 8.82901C5.99888 9.68994 5.25 10.7779 5.25 12C5.25 13.2221 5.99888 14.3101 7.19536 15.171L11.536 18.5892C11.8614 18.8455 12.333 18.7894 12.5892 18.464C12.8455 18.1386 12.7894 17.667 12.464 17.4108L8.11027 13.9822L8.09679 13.9716L8.08284 13.9616C7.49905 13.5437 7.14034 13.1309 6.94423 12.748C6.96264 12.7493 6.98124 12.75 7 12.75H18C18.4142 12.75 18.75 12.4142 18.75 12C18.75 11.5858 18.4142 11.25 18 11.25H7C6.98124 11.25 6.96264 11.2507 6.94423 11.252C7.14034 10.8691 7.49905 10.4563 8.08284 10.0384L8.09679 10.0284L8.11027 10.0178L12.464 6.58923Z" fill="black"/>
</svg>
