<svg width="24" height="24" viewBox="0 0 24 24" fill="none" xmlns="http://www.w3.org/2000/svg">
<path opacity="0.32" d="M3.43492 9.5L2.49999 14C2 16.5 1.99997 22 9.99997 22H14C22 22 22 16.5 21.5 14L20.6313 9.5C19.9948 7 19 2 14 2H9.99996C4.99996 2 4.11626 7 3.43492 9.5Z" fill="black"/>
<path fill-rule="evenodd" clip-rule="evenodd" d="M15.75 8.00159C15.7456 10.0665 14.069 11.75 12 11.75C9.933 11.75 8.25 10.0716 8.25 8C8.25 7.58579 8.58579 7.25 9 7.25C9.41421 7.25 9.75 7.58579 9.75 8C9.75 9.24206 10.7603 10.25 12 10.25C13.2377 10.25 14.2474 9.24024 14.25 7.99841C14.2509 7.5842 14.5874 7.24912 15.0016 7.25C15.4158 7.25088 15.7509 7.58738 15.75 8.00159Z" fill="black"/>
</svg>
