<svg width="24" height="24" viewBox="0 0 24 24" fill="none" xmlns="http://www.w3.org/2000/svg">
<path fill-rule="evenodd" clip-rule="evenodd" d="M2.50001 14L3.43494 9.5C3.48673 9.30998 3.53968 9.10552 3.59553 8.8899C4.27439 6.26881 5.38001 2 9.99998 2H14C18.7595 2 19.8899 6.53067 20.5366 9.12282C20.5693 9.25377 20.6008 9.37978 20.6314 9.5L21.5001 14C22.0001 16.5 22 22 14 22H9.99999C1.99999 22 2.00001 16.5 2.50001 14ZM12 11.75C14.069 11.75 15.7456 10.0665 15.75 8.00159C15.7509 7.58738 15.4158 7.25088 15.0016 7.25C14.5874 7.24912 14.2509 7.5842 14.25 7.99841C14.2474 9.24024 13.2377 10.25 12 10.25C10.7603 10.25 9.75001 9.24206 9.75001 8C9.75001 7.58579 9.41423 7.25 9.00001 7.25C8.5858 7.25 8.25001 7.58579 8.25001 8C8.25001 10.0716 9.93302 11.75 12 11.75Z" fill="black"/>
</svg>
