<svg width="24" height="24" viewBox="0 0 24 24" fill="none" xmlns="http://www.w3.org/2000/svg">
<path opacity="0.32" d="M2 11.1111V13C2 15.5 2 20 9 20H15C22 20 22 15.5 22 13V11C22 8.5 22 4 15 4H9C2 4 2 8.5 2 11.1111Z" fill="black"/>
<path d="M9 12C9 13.6569 10.3431 15 12 15C13.6569 15 15 13.6569 15 12C15 10.3431 13.6569 9 12 9C10.3431 9 9 10.3431 9 12Z" fill="black"/>
<path fill-rule="evenodd" clip-rule="evenodd" d="M6 9.25C6.41421 9.25 6.75 9.58579 6.75 10L6.75 14C6.75 14.4142 6.41421 14.75 6 14.75C5.58579 14.75 5.25 14.4142 5.25 14L5.25 10C5.25 9.58579 5.58579 9.25 6 9.25Z" fill="black"/>
<path fill-rule="evenodd" clip-rule="evenodd" d="M18 9.25C18.4142 9.25 18.75 9.58579 18.75 10L18.75 14C18.75 14.4142 18.4142 14.75 18 14.75C17.5858 14.75 17.25 14.4142 17.25 14L17.25 10C17.25 9.58579 17.5858 9.25 18 9.25Z" fill="black"/>
</svg>
