<svg width="24" height="24" viewBox="0 0 24 24" fill="none" xmlns="http://www.w3.org/2000/svg">
<path fill-rule="evenodd" clip-rule="evenodd" d="M2 13V11.1111C2 8.5 2 4 9 4H15C22 4 22 8.5 22 11V13C22 15.5 22 20 15 20H9C2 20 2 15.5 2 13ZM12 13.5C11.1716 13.5 10.5 12.8284 10.5 12C10.5 11.1716 11.1716 10.5 12 10.5C12.8284 10.5 13.5 11.1716 13.5 12C13.5 12.8284 12.8284 13.5 12 13.5ZM9 12C9 13.6569 10.3431 15 12 15C13.6569 15 15 13.6569 15 12C15 10.3431 13.6569 9 12 9C10.3431 9 9 10.3431 9 12ZM6 9.25C6.41421 9.25 6.75 9.58579 6.75 10L6.75 14C6.75 14.4142 6.41421 14.75 6 14.75C5.58579 14.75 5.25 14.4142 5.25 14L5.25 10C5.25 9.58579 5.58579 9.25 6 9.25ZM18.75 10C18.75 9.58579 18.4142 9.25 18 9.25C17.5858 9.25 17.25 9.58579 17.25 10V14C17.25 14.4142 17.5858 14.75 18 14.75C18.4142 14.75 18.75 14.4142 18.75 14V10Z" fill="black"/>
</svg>
