<svg width="24" height="24" viewBox="0 0 24 24" fill="none" xmlns="http://www.w3.org/2000/svg">
<path opacity="0.32" d="M2 11.1111V13C2 15.5 2 20 9 20H15C22 20 22 15.5 22 13V11C22 8.5 22 4 15 4H9C2 4 2 8.5 2 11.1111Z" stroke="black" stroke-width="1.5" stroke-linecap="round"/>
<path d="M9 12C9 13.6569 10.3431 15 12 15C13.6569 15 15 13.6569 15 12C15 10.3431 13.6569 9 12 9C10.3431 9 9 10.3431 9 12Z" stroke="black" stroke-width="1.5" stroke-linecap="round"/>
<path d="M6 10L6 14" stroke="black" stroke-width="1.5" stroke-linecap="round"/>
<path d="M18 10L18 14" stroke="black" stroke-width="1.5" stroke-linecap="round"/>
</svg>
