<svg width="24" height="24" viewBox="0 0 24 24" fill="none" xmlns="http://www.w3.org/2000/svg">
<path opacity="0.32" d="M4.96375 7.42284C5.54964 4.39257 7.82833 1.25 11.995 1.25C16.1617 1.25 18.3872 4.13715 19.0262 7.42284C19.6156 10.4531 21.37 10.625 21.37 13.3712C21.37 17.9167 15.12 17.9167 11.995 17.9167C8.87 17.9167 2.62 17.9167 2.62 13.3712C2.62 10.625 4.37786 10.4531 4.96375 7.42284Z" fill="black"/>
<path fill-rule="evenodd" clip-rule="evenodd" d="M8.29962 21.2318C8.44775 20.845 8.88141 20.6515 9.26823 20.7996C10.8288 21.3972 12.6542 21.4197 14.7848 20.7815C15.1816 20.6627 15.5996 20.888 15.7185 21.2848C15.8373 21.6816 15.612 22.0996 15.2152 22.2185C12.8458 22.9282 10.6705 22.9428 8.73181 22.2004C8.34499 22.0523 8.15149 21.6186 8.29962 21.2318Z" fill="black"/>
</svg>
