<svg width="24" height="24" viewBox="0 0 24 24" fill="none" xmlns="http://www.w3.org/2000/svg">
<path fill-rule="evenodd" clip-rule="evenodd" d="M13.0625 2H10.9375C3.50006 2 3.5 6.66179 3.5 10.2876V17C3.5 22 7 22.4958 8.81248 21.6831C9.23082 21.4955 9.57964 21.3218 9.88758 21.1684C10.7011 20.7631 11.2293 20.5 12 20.5C12.7736 20.5 13.3053 20.765 14.1234 21.1728C14.4289 21.3251 14.7744 21.4974 15.1874 21.6831C17 22.4985 20.5 22 20.5 17V10.2876C20.5 6.66179 20.5 2 13.0625 2ZM9 7.25C8.58579 7.25 8.25 7.58579 8.25 8C8.25 8.41421 8.58579 8.75 9 8.75H15C15.4142 8.75 15.75 8.41421 15.75 8C15.75 7.58579 15.4142 7.25 15 7.25H9Z" fill="black"/>
</svg>
