<svg width="24" height="24" viewBox="0 0 24 24" fill="none" xmlns="http://www.w3.org/2000/svg">
<path opacity="0.32" d="M10.9375 2H13.0625C20.5 2 20.5 6.66179 20.5 10.2876V17C20.5 22 17 22.4985 15.1874 21.6831C13.6687 21 13.0625 20.5 12 20.5C10.9375 20.5 10.336 21 8.81248 21.6831C7 22.4958 3.5 22 3.5 17V10.2876C3.5 6.66179 3.50006 2 10.9375 2Z" fill="black"/>
<path fill-rule="evenodd" clip-rule="evenodd" d="M8.25 8C8.25 7.58579 8.58579 7.25 9 7.25H15C15.4142 7.25 15.75 7.58579 15.75 8C15.75 8.41421 15.4142 8.75 15 8.75H9C8.58579 8.75 8.25 8.41421 8.25 8Z" fill="black"/>
</svg>
