<svg width="24" height="24" viewBox="0 0 24 24" fill="none" xmlns="http://www.w3.org/2000/svg">
<path d="M2 12C2 14 2 16 7 16H17C22 16 22 14 22 12" stroke="black" stroke-width="1.5" stroke-linecap="round" stroke-linejoin="round"/>
<path d="M2 13V15C2 17.5 2 22 9 22H15.3333C22 22 22 17.5 22 15V13C22 10.5 22 6 15 6H9C2 6 2 10.5 2 13Z" stroke="black" stroke-width="1.5" stroke-linecap="round"/>
<path d="M7 6C7 6 6.99991 2 12 2C17.0001 2 17 6 17 6" stroke="black" stroke-width="1.5" stroke-linecap="round" stroke-linejoin="round"/>
<path d="M8 15L8 17" stroke="black" stroke-width="1.5" stroke-linecap="round"/>
<path d="M16 15L16 17" stroke="black" stroke-width="1.5" stroke-linecap="round"/>
</svg>
