<svg width="24" height="24" viewBox="0 0 24 24" fill="none" xmlns="http://www.w3.org/2000/svg">
<path fill-rule="evenodd" clip-rule="evenodd" d="M1.5 13.7071V13.3281C1.5 10.7109 1.5 6 8.82812 6H15.1094C22.4375 6 22.4375 10.7109 22.4375 13.3281V13.7071C22.2953 14.0265 22.0874 14.314 21.7957 14.564C21.0865 15.1718 19.7405 15.6836 17.2031 15.6836H16.9414V15.4219C16.9414 14.9882 16.5899 14.6367 16.1562 14.6367C15.7226 14.6367 15.3711 14.9882 15.3711 15.4219V15.6836H8.56641V15.4219C8.56641 14.9882 8.21488 14.6367 7.78125 14.6367C7.34762 14.6367 6.99609 14.9882 6.99609 15.4219V15.6836H6.73438C4.19703 15.6836 2.85096 15.1718 2.14183 14.564C1.85013 14.314 1.64223 14.0265 1.5 13.7071ZM15.3711 17.2539H8.56641V17.5156C8.56641 17.9493 8.21488 18.3008 7.78125 18.3008C7.34762 18.3008 6.99609 17.9493 6.99609 17.5156V17.2539H6.73438C4.32557 17.2539 2.63666 16.827 1.50319 16.0501C1.5421 18.7261 2.05543 22.75 8.82812 22.75H15.4583C21.9086 22.75 22.3974 18.726 22.4345 16.05C21.301 16.827 19.612 17.2539 17.2031 17.2539H16.9414V17.5156C16.9414 17.9493 16.5899 18.3008 16.1562 18.3008C15.7226 18.3008 15.3711 17.9493 15.3711 17.5156V17.2539Z" fill="black"/>
<path fill-rule="evenodd" clip-rule="evenodd" d="M7.75 6.00085C7.75 6.00199 7.74999 6.00313 7.74999 6.00426C7.74998 6.0049 7.74998 6.00499 7.74998 6.00452L7.74999 6.00295L7.75 6.00164L7.75 6.00085ZM16.25 6.00425C16.2523 6.4165 16.5872 6.74999 17 6.75C17.4142 6.75001 17.75 6.41423 17.75 6.00002L17 6C17.75 6.00002 17.75 5.99954 17.75 5.99905L17.75 5.998L17.75 5.9956L17.7499 5.98968L17.7497 5.97342C17.7494 5.96066 17.749 5.94406 17.7481 5.92387C17.7465 5.88353 17.7433 5.8287 17.7373 5.76144C17.7253 5.62719 17.7019 5.4418 17.6561 5.22205C17.5651 4.78497 17.3821 4.19629 17.011 3.60251C16.2394 2.36779 14.7399 1.25 12 1.25C9.26009 1.25 7.76065 2.36779 6.98896 3.60251C6.61786 4.19629 6.43492 4.78497 6.34387 5.22205C6.2981 5.4418 6.27472 5.62719 6.26273 5.76144C6.25673 5.8287 6.25355 5.88353 6.25187 5.92387C6.25103 5.94406 6.25056 5.96066 6.2503 5.97342L6.25006 5.98968L6.25001 5.9956L6.25 5.998L6.25 5.99905C6.25 5.99954 6.25 6.00001 6.97983 6L6.25 6.00002C6.25001 6.41423 6.5858 6.75001 7.00002 6.75C7.4128 6.74999 7.7477 6.41651 7.74999 6.00426C7.74999 6.00409 7.75 6.00388 7.75 6.00363L7.75057 5.98628C7.75133 5.96804 7.75303 5.93693 7.75679 5.89481C7.76433 5.81031 7.78001 5.6832 7.81235 5.52795C7.87754 5.21503 8.00709 4.80371 8.26097 4.39749C8.73926 3.63221 9.73982 2.75 12 2.75C14.2602 2.75 15.2607 3.63221 15.739 4.39749C15.9929 4.80371 16.1225 5.21503 16.1876 5.52795C16.22 5.6832 16.2357 5.81031 16.2432 5.89481C16.247 5.93693 16.2487 5.96804 16.2494 5.98628L16.25 6.00363C16.25 6.00387 16.25 6.00408 16.25 6.00425Z" fill="black"/>
</svg>
