<svg width="24" height="24" viewBox="0 0 24 24" fill="none" xmlns="http://www.w3.org/2000/svg">
<path d="M2 12V14C2 17 2 22 9 22H15C22 22 22 17 22 14V12C22 9 22 4 15 4H9C2 4 2 9 2 12Z" stroke="black" stroke-width="1.5" stroke-linecap="round"/>
<path opacity="0.3" d="M5 2V4.5" stroke="black" stroke-width="1.5" stroke-linecap="round"/>
<path opacity="0.3" d="M19 2V4.5" stroke="black" stroke-width="1.5" stroke-linecap="round"/>
<path opacity="0.3" d="M6.5 17H7.5" stroke="black" stroke-width="1.5" stroke-linecap="round" stroke-linejoin="round"/>
<path opacity="0.3" d="M6.5 13H7.5" stroke="black" stroke-width="1.5" stroke-linecap="round" stroke-linejoin="round"/>
<path opacity="0.3" d="M6.5 9H7.5" stroke="black" stroke-width="1.5" stroke-linecap="round" stroke-linejoin="round"/>
<path opacity="0.3" d="M11.5 17H12.5" stroke="black" stroke-width="1.5" stroke-linecap="round" stroke-linejoin="round"/>
<path opacity="0.3" d="M11.5 13H12.5" stroke="black" stroke-width="1.5" stroke-linecap="round" stroke-linejoin="round"/>
<path opacity="0.3" d="M11.5 9H12.5" stroke="black" stroke-width="1.5" stroke-linecap="round" stroke-linejoin="round"/>
<path opacity="0.3" d="M16.5 17H17.5" stroke="black" stroke-width="1.5" stroke-linecap="round" stroke-linejoin="round"/>
<path opacity="0.3" d="M16.5 13H17.5" stroke="black" stroke-width="1.5" stroke-linecap="round" stroke-linejoin="round"/>
<path opacity="0.3" d="M16.5 9H17.5" stroke="black" stroke-width="1.5" stroke-linecap="round" stroke-linejoin="round"/>
</svg>
