<svg width="24" height="24" viewBox="0 0 24 24" fill="none" xmlns="http://www.w3.org/2000/svg">
<path fill-rule="evenodd" clip-rule="evenodd" d="M5 1.25C5.41421 1.25 5.75 1.58579 5.75 2V6C5.75 6.41421 5.41421 6.75 5 6.75C4.58579 6.75 4.25 6.41421 4.25 6V2C4.25 1.58579 4.58579 1.25 5 1.25Z" fill="black"/>
<path fill-rule="evenodd" clip-rule="evenodd" d="M19 1.25C19.4142 1.25 19.75 1.58579 19.75 2V6C19.75 6.41421 19.4142 6.75 19 6.75C18.5858 6.75 18.25 6.41421 18.25 6V2C18.25 1.58579 18.5858 1.25 19 1.25Z" fill="black"/>
<path fill-rule="evenodd" clip-rule="evenodd" d="M1.58002 14.4167V12.3333C1.58002 9.20833 1.58002 3.25 8.87177 3.25H15.1218C22.4136 3.25 22.4136 9.20833 22.4136 12.3333V14.4167C22.4136 17.5417 22.4136 22.75 15.1218 22.75H8.87177C1.58002 22.75 1.58002 17.5417 1.58002 14.4167ZM6.5 16.25C6.08579 16.25 5.75 16.5858 5.75 17C5.75 17.4142 6.08579 17.75 6.5 17.75H7.5C7.91421 17.75 8.25 17.4142 8.25 17C8.25 16.5858 7.91421 16.25 7.5 16.25H6.5ZM5.75 13C5.75 12.5858 6.08579 12.25 6.5 12.25H7.5C7.91421 12.25 8.25 12.5858 8.25 13C8.25 13.4142 7.91421 13.75 7.5 13.75H6.5C6.08579 13.75 5.75 13.4142 5.75 13ZM6.5 8.25C6.08579 8.25 5.75 8.58579 5.75 9C5.75 9.41421 6.08579 9.75 6.5 9.75H7.5C7.91421 9.75 8.25 9.41421 8.25 9C8.25 8.58579 7.91421 8.25 7.5 8.25H6.5ZM10.75 17C10.75 16.5858 11.0858 16.25 11.5 16.25H12.5C12.9142 16.25 13.25 16.5858 13.25 17C13.25 17.4142 12.9142 17.75 12.5 17.75H11.5C11.0858 17.75 10.75 17.4142 10.75 17ZM11.5 12.25C11.0858 12.25 10.75 12.5858 10.75 13C10.75 13.4142 11.0858 13.75 11.5 13.75H12.5C12.9142 13.75 13.25 13.4142 13.25 13C13.25 12.5858 12.9142 12.25 12.5 12.25H11.5ZM10.75 9C10.75 8.58579 11.0858 8.25 11.5 8.25H12.5C12.9142 8.25 13.25 8.58579 13.25 9C13.25 9.41421 12.9142 9.75 12.5 9.75H11.5C11.0858 9.75 10.75 9.41421 10.75 9ZM16.5 16.25C16.0858 16.25 15.75 16.5858 15.75 17C15.75 17.4142 16.0858 17.75 16.5 17.75H17.5C17.9142 17.75 18.25 17.4142 18.25 17C18.25 16.5858 17.9142 16.25 17.5 16.25H16.5ZM15.75 13C15.75 12.5858 16.0858 12.25 16.5 12.25H17.5C17.9142 12.25 18.25 12.5858 18.25 13C18.25 13.4142 17.9142 13.75 17.5 13.75H16.5C16.0858 13.75 15.75 13.4142 15.75 13ZM16.5 8.25C16.0858 8.25 15.75 8.58579 15.75 9C15.75 9.41421 16.0858 9.75 16.5 9.75H17.5C17.9142 9.75 18.25 9.41421 18.25 9C18.25 8.58579 17.9142 8.25 17.5 8.25H16.5Z" fill="black"/>
</svg>
