<svg width="24" height="24" viewBox="0 0 24 24" fill="none" xmlns="http://www.w3.org/2000/svg">
<path fill-rule="evenodd" clip-rule="evenodd" d="M2 14V12C2 9 2 5 7 5C8.25 5 8.875 4.5 9.5 4C10.125 3.5 10.75 3 12 3C13.25 3 13.875 3.5 14.5 4C15.125 4.5 15.75 5 17 5C22 5 22 9 22 12V14C22 17 22 21 15 21H9C2 21 2 17 2 14ZM8.75 13C8.75 11.2051 10.2051 9.75 12 9.75C13.7949 9.75 15.25 11.2051 15.25 13C15.25 14.7949 13.7949 16.25 12 16.25C10.2051 16.25 8.75 14.7949 8.75 13ZM12 8.25C9.37665 8.25 7.25 10.3766 7.25 13C7.25 15.6234 9.37665 17.75 12 17.75C14.6234 17.75 16.75 15.6234 16.75 13C16.75 10.3766 14.6234 8.25 12 8.25Z" fill="black"/>
</svg>
