<svg width="24" height="24" viewBox="0 0 24 24" fill="none" xmlns="http://www.w3.org/2000/svg">
<path d="M2.75 14V12H1.25V14H2.75ZM2.75 12C2.75 10.4575 2.76287 8.88415 3.30777 7.68535C3.56805 7.11274 3.94311 6.64628 4.49525 6.31499C5.0535 5.98004 5.84862 5.75 7 5.75V4.25C5.65138 4.25 4.5715 4.51996 3.7235 5.02876C2.86939 5.54122 2.30695 6.26226 1.94223 7.06465C1.23713 8.61585 1.25 10.5425 1.25 12H2.75ZM1.25 14C1.25 15.4516 1.22949 17.4362 2.24225 19.0277C3.30906 20.7041 5.36401 21.75 9 21.75V20.25C5.63599 20.25 4.19094 19.2959 3.50775 18.2223C2.77051 17.0638 2.75 15.5484 2.75 14H1.25ZM22.75 12C22.75 10.5425 22.7629 8.61585 22.0578 7.06465C21.6931 6.26226 21.1306 5.54122 20.2765 5.02876C19.4285 4.51996 18.3486 4.25 17 4.25V5.75C18.1514 5.75 18.9465 5.98004 19.5048 6.31499C20.0569 6.64628 20.4319 7.11274 20.6922 7.68535C21.2371 8.88415 21.25 10.4575 21.25 12H22.75ZM15 20.25C14.9961 20.25 14.9922 20.25 14.9883 20.25C14.9844 20.25 14.9805 20.25 14.9766 20.25C14.9727 20.25 14.9688 20.25 14.9648 20.25C14.9609 20.25 14.957 20.25 14.9531 20.25C14.9492 20.25 14.9453 20.25 14.9414 20.25C14.9375 20.25 14.9336 20.25 14.9297 20.25C14.9258 20.25 14.9219 20.25 14.918 20.25C14.9141 20.25 14.9102 20.25 14.9062 20.25C14.9023 20.25 14.8984 20.25 14.8945 20.25C14.8906 20.25 14.8867 20.25 14.8828 20.25C14.8789 20.25 14.875 20.25 14.8711 20.25C14.8672 20.25 14.8633 20.25 14.8594 20.25C14.8555 20.25 14.8516 20.25 14.8477 20.25C14.8438 20.25 14.8398 20.25 14.8359 20.25C14.832 20.25 14.8281 20.25 14.8242 20.25C14.8203 20.25 14.8164 20.25 14.8125 20.25C14.8086 20.25 14.8047 20.25 14.8008 20.25C14.7969 20.25 14.793 20.25 14.7891 20.25C14.7852 20.25 14.7812 20.25 14.7773 20.25C14.7734 20.25 14.7695 20.25 14.7656 20.25C14.7617 20.25 14.7578 20.25 14.7539 20.25C14.75 20.25 14.7461 20.25 14.7422 20.25C14.7383 20.25 14.7344 20.25 14.7305 20.25C14.7266 20.25 14.7227 20.25 14.7188 20.25C14.7148 20.25 14.7109 20.25 14.707 20.25C14.7031 20.25 14.6992 20.25 14.6953 20.25C14.6914 20.25 14.6875 20.25 14.6836 20.25C14.6797 20.25 14.6758 20.25 14.6719 20.25C14.668 20.25 14.6641 20.25 14.6602 20.25C14.6562 20.25 14.6523 20.25 14.6484 20.25C14.6445 20.25 14.6406 20.25 14.6367 20.25C14.6328 20.25 14.6289 20.25 14.625 20.25C14.6211 20.25 14.6172 20.25 14.6133 20.25C14.6094 20.25 14.6055 20.25 14.6016 20.25C14.5977 20.25 14.5938 20.25 14.5898 20.25C14.5859 20.25 14.582 20.25 14.5781 20.25C14.5742 20.25 14.5703 20.25 14.5664 20.25C14.5625 20.25 14.5586 20.25 14.5547 20.25C14.5508 20.25 14.5469 20.25 14.543 20.25C14.5391 20.25 14.5352 20.25 14.5312 20.25C14.5273 20.25 14.5234 20.25 14.5195 20.25C14.5156 20.25 14.5117 20.25 14.5078 20.25C14.5039 20.25 14.5 20.25 14.4961 20.25C14.4922 20.25 14.4883 20.25 14.4844 20.25C14.4805 20.25 14.4766 20.25 14.4727 20.25C14.4688 20.25 14.4648 20.25 14.4609 20.25C14.457 20.25 14.4531 20.25 14.4492 20.25C14.4453 20.25 14.4414 20.25 14.4375 20.25C14.4336 20.25 14.4297 20.25 14.4258 20.25C14.4219 20.25 14.418 20.25 14.4141 20.25C14.4102 20.25 14.4062 20.25 14.4023 20.25C14.3984 20.25 14.3945 20.25 14.3906 20.25C14.3867 20.25 14.3828 20.25 14.3789 20.25C14.375 20.25 14.3711 20.25 14.3672 20.25C14.3633 20.25 14.3594 20.25 14.3555 20.25C14.3516 20.25 14.3477 20.25 14.3438 20.25C14.3398 20.25 14.3359 20.25 14.332 20.25C14.3281 20.25 14.3242 20.25 14.3203 20.25C14.3164 20.25 14.3125 20.25 14.3086 20.25C14.3047 20.25 14.3008 20.25 14.2969 20.25C14.293 20.25 14.2891 20.25 14.2852 20.25C14.2812 20.25 14.2773 20.25 14.2734 20.25C14.2695 20.25 14.2656 20.25 14.2617 20.25C14.2578 20.25 14.2539 20.25 14.25 20.25C14.2461 20.25 14.2422 20.25 14.2383 20.25C14.2344 20.25 14.2305 20.25 14.2266 20.25C14.2227 20.25 14.2188 20.25 14.2148 20.25C14.2109 20.25 14.207 20.25 14.2031 20.25C14.1992 20.25 14.1953 20.25 14.1914 20.25C14.1875 20.25 14.1836 20.25 14.1797 20.25C14.1758 20.25 14.1719 20.25 14.168 20.25C14.1641 20.25 14.1602 20.25 14.1562 20.25C14.1523 20.25 14.1484 20.25 14.1445 20.25C14.1406 20.25 14.1367 20.25 14.1328 20.25C14.1289 20.25 14.125 20.25 14.1211 20.25C14.1172 20.25 14.1133 20.25 14.1094 20.25C14.1055 20.25 14.1016 20.25 14.0977 20.25C14.0938 20.25 14.0898 20.25 14.0859 20.25C14.082 20.25 14.0781 20.25 14.0742 20.25C14.0703 20.25 14.0664 20.25 14.0625 20.25C14.0586 20.25 14.0547 20.25 14.0508 20.25C14.0469 20.25 14.043 20.25 14.0391 20.25C14.0352 20.25 14.0312 20.25 14.0273 20.25C14.0234 20.25 14.0195 20.25 14.0156 20.25C14.0117 20.25 14.0078 20.25 14.0039 20.25C14 20.25 13.9961 20.25 13.9922 20.25C13.9883 20.25 13.9844 20.25 13.9805 20.25C13.9766 20.25 13.9727 20.25 13.9688 20.25C13.9648 20.25 13.9609 20.25 13.957 20.25C13.9531 20.25 13.9492 20.25 13.9453 20.25C13.9414 20.25 13.9375 20.25 13.9336 20.25C13.9297 20.25 13.9258 20.25 13.9219 20.25C13.918 20.25 13.9141 20.25 13.9102 20.25C13.9062 20.25 13.9023 20.25 13.8984 20.25C13.8945 20.25 13.8906 20.25 13.8867 20.25C13.8828 20.25 13.8789 20.25 13.875 20.25C13.8711 20.25 13.8672 20.25 13.8633 20.25C13.8594 20.25 13.8555 20.25 13.8516 20.25C13.8477 20.25 13.8438 20.25 13.8398 20.25C13.8359 20.25 13.832 20.25 13.8281 20.25C13.8242 20.25 13.8203 20.25 13.8164 20.25C13.8125 20.25 13.8086 20.25 13.8047 20.25C13.8008 20.25 13.7969 20.25 13.793 20.25C13.7891 20.25 13.7852 20.25 13.7812 20.25C13.7773 20.25 13.7734 20.25 13.7695 20.25C13.7656 20.25 13.7617 20.25 13.7578 20.25C13.7539 20.25 13.75 20.25 13.7461 20.25C13.7422 20.25 13.7383 20.25 13.7344 20.25C13.7305 20.25 13.7266 20.25 13.7227 20.25C13.7188 20.25 13.7148 20.25 13.7109 20.25C13.707 20.25 13.7031 20.25 13.6992 20.25C13.6953 20.25 13.6914 20.25 13.6875 20.25C13.6836 20.25 13.6797 20.25 13.6758 20.25C13.6719 20.25 13.668 20.25 13.6641 20.25C13.6602 20.25 13.6562 20.25 13.6523 20.25C13.6484 20.25 13.6445 20.25 13.6406 20.25C13.6367 20.25 13.6328 20.25 13.6289 20.25C13.625 20.25 13.6211 20.25 13.6172 20.25C13.6133 20.25 13.6094 20.25 13.6055 20.25C13.6016 20.25 13.5977 20.25 13.5938 20.25C13.5898 20.25 13.5859 20.25 13.582 20.25C13.5781 20.25 13.5742 20.25 13.5703 20.25C13.5664 20.25 13.5625 20.25 13.5586 20.25C13.5547 20.25 13.5508 20.25 13.5469 20.25C13.543 20.25 13.5391 20.25 13.5352 20.25C13.5312 20.25 13.5273 20.25 13.5234 20.25C13.5195 20.25 13.5156 20.25 13.5117 20.25C13.5078 20.25 13.5039 20.25 13.5 20.25C13.4961 20.25 13.4922 20.25 13.4883 20.25C13.4844 20.25 13.4805 20.25 13.4766 20.25C13.4727 20.25 13.4688 20.25 13.4648 20.25C13.4609 20.25 13.457 20.25 13.4531 20.25C13.4492 20.25 13.4453 20.25 13.4414 20.25C13.4375 20.25 13.4336 20.25 13.4297 20.25C13.4258 20.25 13.4219 20.25 13.418 20.25C13.4141 20.25 13.4102 20.25 13.4062 20.25C13.4023 20.25 13.3984 20.25 13.3945 20.25C13.3906 20.25 13.3867 20.25 13.3828 20.25C13.3789 20.25 13.375 20.25 13.3711 20.25C13.3672 20.25 13.3633 20.25 13.3594 20.25C13.3555 20.25 13.3516 20.25 13.3477 20.25C13.3438 20.25 13.3398 20.25 13.3359 20.25C13.332 20.25 13.3281 20.25 13.3242 20.25C13.3203 20.25 13.3164 20.25 13.3125 20.25C13.3086 20.25 13.3047 20.25 13.3008 20.25C13.2969 20.25 13.293 20.25 13.2891 20.25C13.2852 20.25 13.2812 20.25 13.2773 20.25C13.2734 20.25 13.2695 20.25 13.2656 20.25C13.2617 20.25 13.2578 20.25 13.2539 20.25C13.25 20.25 13.2461 20.25 13.2422 20.25C13.2383 20.25 13.2344 20.25 13.2305 20.25C13.2266 20.25 13.2227 20.25 13.2188 20.25C13.2148 20.25 13.2109 20.25 13.207 20.25C13.2031 20.25 13.1992 20.25 13.1953 20.25C13.1914 20.25 13.1875 20.25 13.1836 20.25C13.1797 20.25 13.1758 20.25 13.1719 20.25C13.168 20.25 13.1641 20.25 13.1602 20.25C13.1562 20.25 13.1523 20.25 13.1484 20.25C13.1445 20.25 13.1406 20.25 13.1367 20.25C13.1328 20.25 13.1289 20.25 13.125 20.25C13.1211 20.25 13.1172 20.25 13.1133 20.25C13.1094 20.25 13.1055 20.25 13.1016 20.25C13.0977 20.25 13.0938 20.25 13.0898 20.25C13.0859 20.25 13.082 20.25 13.0781 20.25C13.0742 20.25 13.0703 20.25 13.0664 20.25C13.0625 20.25 13.0586 20.25 13.0547 20.25C13.0508 20.25 13.0469 20.25 13.043 20.25C13.0391 20.25 13.0352 20.25 13.0312 20.25C13.0273 20.25 13.0234 20.25 13.0195 20.25C13.0156 20.25 13.0117 20.25 13.0078 20.25C13.0039 20.25 13 20.25 12.9961 20.25C12.9922 20.25 12.9883 20.25 12.9844 20.25C12.9805 20.25 12.9766 20.25 12.9727 20.25C12.9688 20.25 12.9648 20.25 12.9609 20.25C12.957 20.25 12.9531 20.25 12.9492 20.25C12.9453 20.25 12.9414 20.25 12.9375 20.25C12.9336 20.25 12.9297 20.25 12.9258 20.25C12.9219 20.25 12.918 20.25 12.9141 20.25C12.9102 20.25 12.9062 20.25 12.9023 20.25C12.8984 20.25 12.8945 20.25 12.8906 20.25C12.8867 20.25 12.8828 20.25 12.8789 20.25C12.875 20.25 12.8711 20.25 12.8672 20.25C12.8633 20.25 12.8594 20.25 12.8555 20.25C12.8516 20.25 12.8477 20.25 12.8438 20.25C12.8398 20.25 12.8359 20.25 12.832 20.25C12.8281 20.25 12.8242 20.25 12.8203 20.25C12.8164 20.25 12.8125 20.25 12.8086 20.25C12.8047 20.25 12.8008 20.25 12.7969 20.25C12.793 20.25 12.7891 20.25 12.7852 20.25C12.7812 20.25 12.7773 20.25 12.7734 20.25C12.7695 20.25 12.7656 20.25 12.7617 20.25C12.7578 20.25 12.7539 20.25 12.75 20.25C12.7461 20.25 12.7422 20.25 12.7383 20.25C12.7344 20.25 12.7305 20.25 12.7266 20.25C12.7227 20.25 12.7188 20.25 12.7148 20.25C12.7109 20.25 12.707 20.25 12.7031 20.25C12.6992 20.25 12.6953 20.25 12.6914 20.25C12.6875 20.25 12.6836 20.25 12.6797 20.25C12.6758 20.25 12.6719 20.25 12.668 20.25C12.6641 20.25 12.6602 20.25 12.6562 20.25C12.6523 20.25 12.6484 20.25 12.6445 20.25C12.6406 20.25 12.6367 20.25 12.6328 20.25C12.6289 20.25 12.625 20.25 12.6211 20.25C12.6172 20.25 12.6133 20.25 12.6094 20.25C12.6055 20.25 12.6016 20.25 12.5977 20.25C12.5938 20.25 12.5898 20.25 12.5859 20.25C12.582 20.25 12.5781 20.25 12.5742 20.25C12.5703 20.25 12.5664 20.25 12.5625 20.25C12.5586 20.25 12.5547 20.25 12.5508 20.25C12.5469 20.25 12.543 20.25 12.5391 20.25C12.5352 20.25 12.5312 20.25 12.5273 20.25C12.5234 20.25 12.5195 20.25 12.5156 20.25C12.5117 20.25 12.5078 20.25 12.5039 20.25C12.5 20.25 12.4961 20.25 12.4922 20.25C12.4883 20.25 12.4844 20.25 12.4805 20.25C12.4766 20.25 12.4727 20.25 12.4688 20.25C12.4648 20.25 12.4609 20.25 12.457 20.25C12.4531 20.25 12.4492 20.25 12.4453 20.25C12.4414 20.25 12.4375 20.25 12.4336 20.25C12.4297 20.25 12.4258 20.25 12.4219 20.25C12.418 20.25 12.4141 20.25 12.4102 20.25C12.4062 20.25 12.4023 20.25 12.3984 20.25C12.3945 20.25 12.3906 20.25 12.3867 20.25C12.3828 20.25 12.3789 20.25 12.375 20.25C12.3711 20.25 12.3672 20.25 12.3633 20.25C12.3594 20.25 12.3555 20.25 12.3516 20.25C12.3477 20.25 12.3438 20.25 12.3398 20.25C12.3359 20.25 12.332 20.25 12.3281 20.25C12.3242 20.25 12.3203 20.25 12.3164 20.25C12.3125 20.25 12.3086 20.25 12.3047 20.25C12.3008 20.25 12.2969 20.25 12.293 20.25C12.2891 20.25 12.2852 20.25 12.2812 20.25C12.2773 20.25 12.2734 20.25 12.2695 20.25C12.2656 20.25 12.2617 20.25 12.2578 20.25C12.2539 20.25 12.25 20.25 12.2461 20.25C12.2422 20.25 12.2383 20.25 12.2344 20.25C12.2305 20.25 12.2266 20.25 12.2227 20.25C12.2188 20.25 12.2148 20.25 12.2109 20.25C12.207 20.25 12.2031 20.25 12.1992 20.25C12.1953 20.25 12.1914 20.25 12.1875 20.25C12.1836 20.25 12.1797 20.25 12.1758 20.25C12.1719 20.25 12.168 20.25 12.1641 20.25C12.1602 20.25 12.1562 20.25 12.1523 20.25C12.1484 20.25 12.1445 20.25 12.1406 20.25C12.1367 20.25 12.1328 20.25 12.1289 20.25C12.125 20.25 12.1211 20.25 12.1172 20.25C12.1133 20.25 12.1094 20.25 12.1055 20.25C12.1016 20.25 12.0977 20.25 12.0938 20.25C12.0898 20.25 12.0859 20.25 12.082 20.25C12.0781 20.25 12.0742 20.25 12.0703 20.25C12.0664 20.25 12.0625 20.25 12.0586 20.25C12.0547 20.25 12.0508 20.25 12.0469 20.25C12.043 20.25 12.0391 20.25 12.0352 20.25C12.0312 20.25 12.0273 20.25 12.0234 20.25C12.0195 20.25 12.0156 20.25 12.0117 20.25C12.0078 20.25 12.0039 20.25 12 20.25C11.9961 20.25 11.9922 20.25 11.9883 20.25C11.9844 20.25 11.9805 20.25 11.9766 20.25C11.9727 20.25 11.9688 20.25 11.9648 20.25C11.9609 20.25 11.957 20.25 11.9531 20.25C11.9492 20.25 11.9453 20.25 11.9414 20.25C11.9375 20.25 11.9336 20.25 11.9297 20.25C11.9258 20.25 11.9219 20.25 11.918 20.25C11.9141 20.25 11.9102 20.25 11.9062 20.25C11.9023 20.25 11.8984 20.25 11.8945 20.25C11.8906 20.25 11.8867 20.25 11.8828 20.25C11.8789 20.25 11.875 20.25 11.8711 20.25C11.8672 20.25 11.8633 20.25 11.8594 20.25C11.8555 20.25 11.8516 20.25 11.8477 20.25C11.8438 20.25 11.8398 20.25 11.8359 20.25C11.832 20.25 11.8281 20.25 11.8242 20.25C11.8203 20.25 11.8164 20.25 11.8125 20.25C11.8086 20.25 11.8047 20.25 11.8008 20.25C11.7969 20.25 11.793 20.25 11.7891 20.25C11.7852 20.25 11.7812 20.25 11.7773 20.25C11.7734 20.25 11.7695 20.25 11.7656 20.25C11.7617 20.25 11.7578 20.25 11.7539 20.25C11.75 20.25 11.7461 20.25 11.7422 20.25C11.7383 20.25 11.7344 20.25 11.7305 20.25C11.7266 20.25 11.7227 20.25 11.7188 20.25C11.7148 20.25 11.7109 20.25 11.707 20.25C11.7031 20.25 11.6992 20.25 11.6953 20.25C11.6914 20.25 11.6875 20.25 11.6836 20.25C11.6797 20.25 11.6758 20.25 11.6719 20.25C11.668 20.25 11.6641 20.25 11.6602 20.25C11.6562 20.25 11.6523 20.25 11.6484 20.25C11.6445 20.25 11.6406 20.25 11.6367 20.25C11.6328 20.25 11.6289 20.25 11.625 20.25C11.6211 20.25 11.6172 20.25 11.6133 20.25C11.6094 20.25 11.6055 20.25 11.6016 20.25C11.5977 20.25 11.5938 20.25 11.5898 20.25C11.5859 20.25 11.582 20.25 11.5781 20.25C11.5742 20.25 11.5703 20.25 11.5664 20.25C11.5625 20.25 11.5586 20.25 11.5547 20.25C11.5508 20.25 11.5469 20.25 11.543 20.25C11.5391 20.25 11.5352 20.25 11.5312 20.25C11.5273 20.25 11.5234 20.25 11.5195 20.25C11.5156 20.25 11.5117 20.25 11.5078 20.25C11.5039 20.25 11.5 20.25 11.4961 20.25C11.4922 20.25 11.4883 20.25 11.4844 20.25C11.4805 20.25 11.4766 20.25 11.4727 20.25C11.4688 20.25 11.4648 20.25 11.4609 20.25C11.457 20.25 11.4531 20.25 11.4492 20.25C11.4453 20.25 11.4414 20.25 11.4375 20.25C11.4336 20.25 11.4297 20.25 11.4258 20.25C11.4219 20.25 11.418 20.25 11.4141 20.25C11.4102 20.25 11.4062 20.25 11.4023 20.25C11.3984 20.25 11.3945 20.25 11.3906 20.25C11.3867 20.25 11.3828 20.25 11.3789 20.25C11.375 20.25 11.3711 20.25 11.3672 20.25C11.3633 20.25 11.3594 20.25 11.3555 20.25C11.3516 20.25 11.3477 20.25 11.3438 20.25C11.3398 20.25 11.3359 20.25 11.332 20.25C11.3281 20.25 11.3242 20.25 11.3203 20.25C11.3164 20.25 11.3125 20.25 11.3086 20.25C11.3047 20.25 11.3008 20.25 11.2969 20.25C11.293 20.25 11.2891 20.25 11.2852 20.25C11.2812 20.25 11.2773 20.25 11.2734 20.25C11.2695 20.25 11.2656 20.25 11.2617 20.25C11.2578 20.25 11.2539 20.25 11.25 20.25C11.2461 20.25 11.2422 20.25 11.2383 20.25C11.2344 20.25 11.2305 20.25 11.2266 20.25C11.2227 20.25 11.2188 20.25 11.2148 20.25C11.2109 20.25 11.207 20.25 11.2031 20.25C11.1992 20.25 11.1953 20.25 11.1914 20.25C11.1875 20.25 11.1836 20.25 11.1797 20.25C11.1758 20.25 11.1719 20.25 11.168 20.25C11.1641 20.25 11.1602 20.25 11.1562 20.25C11.1523 20.25 11.1484 20.25 11.1445 20.25C11.1406 20.25 11.1367 20.25 11.1328 20.25C11.1289 20.25 11.125 20.25 11.1211 20.25C11.1172 20.25 11.1133 20.25 11.1094 20.25C11.1055 20.25 11.1016 20.25 11.0977 20.25C11.0938 20.25 11.0898 20.25 11.0859 20.25C11.082 20.25 11.0781 20.25 11.0742 20.25C11.0703 20.25 11.0664 20.25 11.0625 20.25C11.0586 20.25 11.0547 20.25 11.0508 20.25C11.0469 20.25 11.043 20.25 11.0391 20.25C11.0352 20.25 11.0312 20.25 11.0273 20.25C11.0234 20.25 11.0195 20.25 11.0156 20.25C11.0117 20.25 11.0078 20.25 11.0039 20.25C11 20.25 10.9961 20.25 10.9922 20.25C10.9883 20.25 10.9844 20.25 10.9805 20.25C10.9766 20.25 10.9727 20.25 10.9688 20.25C10.9648 20.25 10.9609 20.25 10.957 20.25C10.9531 20.25 10.9492 20.25 10.9453 20.25C10.9414 20.25 10.9375 20.25 10.9336 20.25C10.9297 20.25 10.9258 20.25 10.9219 20.25C10.918 20.25 10.9141 20.25 10.9102 20.25C10.9062 20.25 10.9023 20.25 10.8984 20.25C10.8945 20.25 10.8906 20.25 10.8867 20.25C10.8828 20.25 10.8789 20.25 10.875 20.25C10.8711 20.25 10.8672 20.25 10.8633 20.25C10.8594 20.25 10.8555 20.25 10.8516 20.25C10.8477 20.25 10.8438 20.25 10.8398 20.25C10.8359 20.25 10.832 20.25 10.8281 20.25C10.8242 20.25 10.8203 20.25 10.8164 20.25C10.8125 20.25 10.8086 20.25 10.8047 20.25C10.8008 20.25 10.7969 20.25 10.793 20.25C10.7891 20.25 10.7852 20.25 10.7812 20.25C10.7773 20.25 10.7734 20.25 10.7695 20.25C10.7656 20.25 10.7617 20.25 10.7578 20.25C10.7539 20.25 10.75 20.25 10.7461 20.25C10.7422 20.25 10.7383 20.25 10.7344 20.25C10.7305 20.25 10.7266 20.25 10.7227 20.25C10.7188 20.25 10.7148 20.25 10.7109 20.25C10.707 20.25 10.7031 20.25 10.6992 20.25C10.6953 20.25 10.6914 20.25 10.6875 20.25C10.6836 20.25 10.6797 20.25 10.6758 20.25C10.6719 20.25 10.668 20.25 10.6641 20.25C10.6602 20.25 10.6562 20.25 10.6523 20.25C10.6484 20.25 10.6445 20.25 10.6406 20.25C10.6367 20.25 10.6328 20.25 10.6289 20.25C10.625 20.25 10.6211 20.25 10.6172 20.25C10.6133 20.25 10.6094 20.25 10.6055 20.25C10.6016 20.25 10.5977 20.25 10.5938 20.25C10.5898 20.25 10.5859 20.25 10.582 20.25C10.5781 20.25 10.5742 20.25 10.5703 20.25C10.5664 20.25 10.5625 20.25 10.5586 20.25C10.5547 20.25 10.5508 20.25 10.5469 20.25C10.543 20.25 10.5391 20.25 10.5352 20.25C10.5312 20.25 10.5273 20.25 10.5234 20.25C10.5195 20.25 10.5156 20.25 10.5117 20.25C10.5078 20.25 10.5039 20.25 10.5 20.25C10.4961 20.25 10.4922 20.25 10.4883 20.25C10.4844 20.25 10.4805 20.25 10.4766 20.25C10.4727 20.25 10.4688 20.25 10.4648 20.25C10.4609 20.25 10.457 20.25 10.4531 20.25C10.4492 20.25 10.4453 20.25 10.4414 20.25C10.4375 20.25 10.4336 20.25 10.4297 20.25C10.4258 20.25 10.4219 20.25 10.418 20.25C10.4141 20.25 10.4102 20.25 10.4062 20.25C10.4023 20.25 10.3984 20.25 10.3945 20.25C10.3906 20.25 10.3867 20.25 10.3828 20.25C10.3789 20.25 10.375 20.25 10.3711 20.25C10.3672 20.25 10.3633 20.25 10.3594 20.25C10.3555 20.25 10.3516 20.25 10.3477 20.25C10.3438 20.25 10.3398 20.25 10.3359 20.25C10.332 20.25 10.3281 20.25 10.3242 20.25C10.3203 20.25 10.3164 20.25 10.3125 20.25C10.3086 20.25 10.3047 20.25 10.3008 20.25C10.2969 20.25 10.293 20.25 10.2891 20.25C10.2852 20.25 10.2812 20.25 10.2773 20.25C10.2734 20.25 10.2695 20.25 10.2656 20.25C10.2617 20.25 10.2578 20.25 10.2539 20.25C10.25 20.25 10.2461 20.25 10.2422 20.25C10.2383 20.25 10.2344 20.25 10.2305 20.25C10.2266 20.25 10.2227 20.25 10.2188 20.25C10.2148 20.25 10.2109 20.25 10.207 20.25C10.2031 20.25 10.1992 20.25 10.1953 20.25C10.1914 20.25 10.1875 20.25 10.1836 20.25C10.1797 20.25 10.1758 20.25 10.1719 20.25C10.168 20.25 10.1641 20.25 10.1602 20.25C10.1562 20.25 10.1523 20.25 10.1484 20.25C10.1445 20.25 10.1406 20.25 10.1367 20.25C10.1328 20.25 10.1289 20.25 10.125 20.25C10.1211 20.25 10.1172 20.25 10.1133 20.25C10.1094 20.25 10.1055 20.25 10.1016 20.25C10.0977 20.25 10.0938 20.25 10.0898 20.25C10.0859 20.25 10.082 20.25 10.0781 20.25C10.0742 20.25 10.0703 20.25 10.0664 20.25C10.0625 20.25 10.0586 20.25 10.0547 20.25C10.0508 20.25 10.0469 20.25 10.043 20.25C10.0391 20.25 10.0352 20.25 10.0312 20.25C10.0273 20.25 10.0234 20.25 10.0195 20.25C10.0156 20.25 10.0117 20.25 10.0078 20.25C10.0039 20.25 10 20.25 9.99609 20.25C9.99219 20.25 9.98828 20.25 9.98438 20.25C9.98047 20.25 9.97656 20.25 9.97266 20.25C9.96875 20.25 9.96484 20.25 9.96094 20.25C9.95703 20.25 9.95312 20.25 9.94922 20.25C9.94531 20.25 9.94141 20.25 9.9375 20.25C9.93359 20.25 9.92969 20.25 9.92578 20.25C9.92188 20.25 9.91797 20.25 9.91406 20.25C9.91016 20.25 9.90625 20.25 9.90234 20.25C9.89844 20.25 9.89453 20.25 9.89062 20.25C9.88672 20.25 9.88281 20.25 9.87891 20.25C9.875 20.25 9.87109 20.25 9.86719 20.25C9.86328 20.25 9.85938 20.25 9.85547 20.25C9.85156 20.25 9.84766 20.25 9.84375 20.25C9.83984 20.25 9.83594 20.25 9.83203 20.25C9.82812 20.25 9.82422 20.25 9.82031 20.25C9.81641 20.25 9.8125 20.25 9.80859 20.25C9.80469 20.25 9.80078 20.25 9.79688 20.25C9.79297 20.25 9.78906 20.25 9.78516 20.25C9.78125 20.25 9.77734 20.25 9.77344 20.25C9.76953 20.25 9.76562 20.25 9.76172 20.25C9.75781 20.25 9.75391 20.25 9.75 20.25C9.74609 20.25 9.74219 20.25 9.73828 20.25C9.73438 20.25 9.73047 20.25 9.72656 20.25C9.72266 20.25 9.71875 20.25 9.71484 20.25C9.71094 20.25 9.70703 20.25 9.70312 20.25C9.69922 20.25 9.69531 20.25 9.69141 20.25C9.6875 20.25 9.68359 20.25 9.67969 20.25C9.67578 20.25 9.67188 20.25 9.66797 20.25C9.66406 20.25 9.66016 20.25 9.65625 20.25C9.65234 20.25 9.64844 20.25 9.64453 20.25C9.64062 20.25 9.63672 20.25 9.63281 20.25C9.62891 20.25 9.625 20.25 9.62109 20.25C9.61719 20.25 9.61328 20.25 9.60938 20.25C9.60547 20.25 9.60156 20.25 9.59766 20.25C9.59375 20.25 9.58984 20.25 9.58594 20.25C9.58203 20.25 9.57812 20.25 9.57422 20.25C9.57031 20.25 9.56641 20.25 9.5625 20.25C9.55859 20.25 9.55469 20.25 9.55078 20.25C9.54688 20.25 9.54297 20.25 9.53906 20.25C9.53516 20.25 9.53125 20.25 9.52734 20.25C9.52344 20.25 9.51953 20.25 9.51562 20.25C9.51172 20.25 9.50781 20.25 9.50391 20.25C9.5 20.25 9.49609 20.25 9.49219 20.25C9.48828 20.25 9.48438 20.25 9.48047 20.25C9.47656 20.25 9.47266 20.25 9.46875 20.25C9.46484 20.25 9.46094 20.25 9.45703 20.25C9.45312 20.25 9.44922 20.25 9.44531 20.25C9.44141 20.25 9.4375 20.25 9.43359 20.25C9.42969 20.25 9.42578 20.25 9.42188 20.25C9.41797 20.25 9.41406 20.25 9.41016 20.25C9.40625 20.25 9.40234 20.25 9.39844 20.25C9.39453 20.25 9.39062 20.25 9.38672 20.25C9.38281 20.25 9.37891 20.25 9.375 20.25C9.37109 20.25 9.36719 20.25 9.36328 20.25C9.35938 20.25 9.35547 20.25 9.35156 20.25C9.34766 20.25 9.34375 20.25 9.33984 20.25C9.33594 20.25 9.33203 20.25 9.32812 20.25C9.32422 20.25 9.32031 20.25 9.31641 20.25C9.3125 20.25 9.30859 20.25 9.30469 20.25C9.30078 20.25 9.29688 20.25 9.29297 20.25C9.28906 20.25 9.28516 20.25 9.28125 20.25C9.27734 20.25 9.27344 20.25 9.26953 20.25C9.26562 20.25 9.26172 20.25 9.25781 20.25C9.25391 20.25 9.25 20.25 9.24609 20.25C9.24219 20.25 9.23828 20.25 9.23438 20.25C9.23047 20.25 9.22656 20.25 9.22266 20.25C9.21875 20.25 9.21484 20.25 9.21094 20.25C9.20703 20.25 9.20312 20.25 9.19922 20.25C9.19531 20.25 9.19141 20.25 9.1875 20.25C9.18359 20.25 9.17969 20.25 9.17578 20.25C9.17188 20.25 9.16797 20.25 9.16406 20.25C9.16016 20.25 9.15625 20.25 9.15234 20.25C9.14844 20.25 9.14453 20.25 9.14062 20.25C9.13672 20.25 9.13281 20.25 9.12891 20.25C9.125 20.25 9.12109 20.25 9.11719 20.25C9.11328 20.25 9.10938 20.25 9.10547 20.25C9.10156 20.25 9.09766 20.25 9.09375 20.25C9.08984 20.25 9.08594 20.25 9.08203 20.25C9.07812 20.25 9.07422 20.25 9.07031 20.25C9.06641 20.25 9.0625 20.25 9.05859 20.25C9.05469 20.25 9.05078 20.25 9.04688 20.25C9.04297 20.25 9.03906 20.25 9.03516 20.25C9.03125 20.25 9.02734 20.25 9.02344 20.25C9.01953 20.25 9.01562 20.25 9.01172 20.25C9.00781 20.25 9.00391 20.25 9 20.25V21.75C9.00391 21.75 9.00781 21.75 9.01172 21.75C9.01562 21.75 9.01953 21.75 9.02344 21.75C9.02734 21.75 9.03125 21.75 9.03516 21.75C9.03906 21.75 9.04297 21.75 9.04688 21.75C9.05078 21.75 9.05469 21.75 9.05859 21.75C9.0625 21.75 9.06641 21.75 9.07031 21.75C9.07422 21.75 9.07812 21.75 9.08203 21.75C9.08594 21.75 9.08984 21.75 9.09375 21.75C9.09766 21.75 9.10156 21.75 9.10547 21.75C9.10938 21.75 9.11328 21.75 9.11719 21.75C9.12109 21.75 9.125 21.75 9.12891 21.75C9.13281 21.75 9.13672 21.75 9.14062 21.75C9.14453 21.75 9.14844 21.75 9.15234 21.75C9.15625 21.75 9.16016 21.75 9.16406 21.75C9.16797 21.75 9.17188 21.75 9.17578 21.75C9.17969 21.75 9.18359 21.75 9.1875 21.75C9.19141 21.75 9.19531 21.75 9.19922 21.75C9.20312 21.75 9.20703 21.75 9.21094 21.75C9.21484 21.75 9.21875 21.75 9.22266 21.75C9.22656 21.75 9.23047 21.75 9.23438 21.75C9.23828 21.75 9.24219 21.75 9.24609 21.75C9.25 21.75 9.25391 21.75 9.25781 21.75C9.26172 21.75 9.26562 21.75 9.26953 21.75C9.27344 21.75 9.27734 21.75 9.28125 21.75C9.28516 21.75 9.28906 21.75 9.29297 21.75C9.29688 21.75 9.30078 21.75 9.30469 21.75C9.30859 21.75 9.3125 21.75 9.31641 21.75C9.32031 21.75 9.32422 21.75 9.32812 21.75C9.33203 21.75 9.33594 21.75 9.33984 21.75C9.34375 21.75 9.34766 21.75 9.35156 21.75C9.35547 21.75 9.35938 21.75 9.36328 21.75C9.36719 21.75 9.37109 21.75 9.375 21.75C9.37891 21.75 9.38281 21.75 9.38672 21.75C9.39062 21.75 9.39453 21.75 9.39844 21.75C9.40234 21.75 9.40625 21.75 9.41016 21.75C9.41406 21.75 9.41797 21.75 9.42188 21.75C9.42578 21.75 9.42969 21.75 9.43359 21.75C9.4375 21.75 9.44141 21.75 9.44531 21.75C9.44922 21.75 9.45312 21.75 9.45703 21.75C9.46094 21.75 9.46484 21.75 9.46875 21.75C9.47266 21.75 9.47656 21.75 9.48047 21.75C9.48438 21.75 9.48828 21.75 9.49219 21.75C9.49609 21.75 9.5 21.75 9.50391 21.75C9.50781 21.75 9.51172 21.75 9.51562 21.75C9.51953 21.75 9.52344 21.75 9.52734 21.75C9.53125 21.75 9.53516 21.75 9.53906 21.75C9.54297 21.75 9.54688 21.75 9.55078 21.75C9.55469 21.75 9.55859 21.75 9.5625 21.75C9.56641 21.75 9.57031 21.75 9.57422 21.75C9.57812 21.75 9.58203 21.75 9.58594 21.75C9.58984 21.75 9.59375 21.75 9.59766 21.75C9.60156 21.75 9.60547 21.75 9.60938 21.75C9.61328 21.75 9.61719 21.75 9.62109 21.75C9.625 21.75 9.62891 21.75 9.63281 21.75C9.63672 21.75 9.64062 21.75 9.64453 21.75C9.64844 21.75 9.65234 21.75 9.65625 21.75C9.66016 21.75 9.66406 21.75 9.66797 21.75C9.67188 21.75 9.67578 21.75 9.67969 21.75C9.68359 21.75 9.6875 21.75 9.69141 21.75C9.69531 21.75 9.69922 21.75 9.70312 21.75C9.70703 21.75 9.71094 21.75 9.71484 21.75C9.71875 21.75 9.72266 21.75 9.72656 21.75C9.73047 21.75 9.73438 21.75 9.73828 21.75C9.74219 21.75 9.74609 21.75 9.75 21.75C9.75391 21.75 9.75781 21.75 9.76172 21.75C9.76562 21.75 9.76953 21.75 9.77344 21.75C9.77734 21.75 9.78125 21.75 9.78516 21.75C9.78906 21.75 9.79297 21.75 9.79688 21.75C9.80078 21.75 9.80469 21.75 9.80859 21.75C9.8125 21.75 9.81641 21.75 9.82031 21.75C9.82422 21.75 9.82812 21.75 9.83203 21.75C9.83594 21.75 9.83984 21.75 9.84375 21.75C9.84766 21.75 9.85156 21.75 9.85547 21.75C9.85938 21.75 9.86328 21.75 9.86719 21.75C9.87109 21.75 9.875 21.75 9.87891 21.75C9.88281 21.75 9.88672 21.75 9.89062 21.75C9.89453 21.75 9.89844 21.75 9.90234 21.75C9.90625 21.75 9.91016 21.75 9.91406 21.75C9.91797 21.75 9.92188 21.75 9.92578 21.75C9.92969 21.75 9.93359 21.75 9.9375 21.75C9.94141 21.75 9.94531 21.75 9.94922 21.75C9.95312 21.75 9.95703 21.75 9.96094 21.75C9.96484 21.75 9.96875 21.75 9.97266 21.75C9.97656 21.75 9.98047 21.75 9.98438 21.75C9.98828 21.75 9.99219 21.75 9.99609 21.75C10 21.75 10.0039 21.75 10.0078 21.75C10.0117 21.75 10.0156 21.75 10.0195 21.75C10.0234 21.75 10.0273 21.75 10.0312 21.75C10.0352 21.75 10.0391 21.75 10.043 21.75C10.0469 21.75 10.0508 21.75 10.0547 21.75C10.0586 21.75 10.0625 21.75 10.0664 21.75C10.0703 21.75 10.0742 21.75 10.0781 21.75C10.082 21.75 10.0859 21.75 10.0898 21.75C10.0938 21.75 10.0977 21.75 10.1016 21.75C10.1055 21.75 10.1094 21.75 10.1133 21.75C10.1172 21.75 10.1211 21.75 10.125 21.75C10.1289 21.75 10.1328 21.75 10.1367 21.75C10.1406 21.75 10.1445 21.75 10.1484 21.75C10.1523 21.75 10.1562 21.75 10.1602 21.75C10.1641 21.75 10.168 21.75 10.1719 21.75C10.1758 21.75 10.1797 21.75 10.1836 21.75C10.1875 21.75 10.1914 21.75 10.1953 21.75C10.1992 21.75 10.2031 21.75 10.207 21.75C10.2109 21.75 10.2148 21.75 10.2188 21.75C10.2227 21.75 10.2266 21.75 10.2305 21.75C10.2344 21.75 10.2383 21.75 10.2422 21.75C10.2461 21.75 10.25 21.75 10.2539 21.75C10.2578 21.75 10.2617 21.75 10.2656 21.75C10.2695 21.75 10.2734 21.75 10.2773 21.75C10.2812 21.75 10.2852 21.75 10.2891 21.75C10.293 21.75 10.2969 21.75 10.3008 21.75C10.3047 21.75 10.3086 21.75 10.3125 21.75C10.3164 21.75 10.3203 21.75 10.3242 21.75C10.3281 21.75 10.332 21.75 10.3359 21.75C10.3398 21.75 10.3438 21.75 10.3477 21.75C10.3516 21.75 10.3555 21.75 10.3594 21.75C10.3633 21.75 10.3672 21.75 10.3711 21.75C10.375 21.75 10.3789 21.75 10.3828 21.75C10.3867 21.75 10.3906 21.75 10.3945 21.75C10.3984 21.75 10.4023 21.75 10.4062 21.75C10.4102 21.75 10.4141 21.75 10.418 21.75C10.4219 21.75 10.4258 21.75 10.4297 21.75C10.4336 21.75 10.4375 21.75 10.4414 21.75C10.4453 21.75 10.4492 21.75 10.4531 21.75C10.457 21.75 10.4609 21.75 10.4648 21.75C10.4688 21.75 10.4727 21.75 10.4766 21.75C10.4805 21.75 10.4844 21.75 10.4883 21.75C10.4922 21.75 10.4961 21.75 10.5 21.75C10.5039 21.75 10.5078 21.75 10.5117 21.75C10.5156 21.75 10.5195 21.75 10.5234 21.75C10.5273 21.75 10.5312 21.75 10.5352 21.75C10.5391 21.75 10.543 21.75 10.5469 21.75C10.5508 21.75 10.5547 21.75 10.5586 21.75C10.5625 21.75 10.5664 21.75 10.5703 21.75C10.5742 21.75 10.5781 21.75 10.582 21.75C10.5859 21.75 10.5898 21.75 10.5938 21.75C10.5977 21.75 10.6016 21.75 10.6055 21.75C10.6094 21.75 10.6133 21.75 10.6172 21.75C10.6211 21.75 10.625 21.75 10.6289 21.75C10.6328 21.75 10.6367 21.75 10.6406 21.75C10.6445 21.75 10.6484 21.75 10.6523 21.75C10.6562 21.75 10.6602 21.75 10.6641 21.75C10.668 21.75 10.6719 21.75 10.6758 21.75C10.6797 21.75 10.6836 21.75 10.6875 21.75C10.6914 21.75 10.6953 21.75 10.6992 21.75C10.7031 21.75 10.707 21.75 10.7109 21.75C10.7148 21.75 10.7188 21.75 10.7227 21.75C10.7266 21.75 10.7305 21.75 10.7344 21.75C10.7383 21.75 10.7422 21.75 10.7461 21.75C10.75 21.75 10.7539 21.75 10.7578 21.75C10.7617 21.75 10.7656 21.75 10.7695 21.75C10.7734 21.75 10.7773 21.75 10.7812 21.75C10.7852 21.75 10.7891 21.75 10.793 21.75C10.7969 21.75 10.8008 21.75 10.8047 21.75C10.8086 21.75 10.8125 21.75 10.8164 21.75C10.8203 21.75 10.8242 21.75 10.8281 21.75C10.832 21.75 10.8359 21.75 10.8398 21.75C10.8438 21.75 10.8477 21.75 10.8516 21.75C10.8555 21.75 10.8594 21.75 10.8633 21.75C10.8672 21.75 10.8711 21.75 10.875 21.75C10.8789 21.75 10.8828 21.75 10.8867 21.75C10.8906 21.75 10.8945 21.75 10.8984 21.75C10.9023 21.75 10.9062 21.75 10.9102 21.75C10.9141 21.75 10.918 21.75 10.9219 21.75C10.9258 21.75 10.9297 21.75 10.9336 21.75C10.9375 21.75 10.9414 21.75 10.9453 21.75C10.9492 21.75 10.9531 21.75 10.957 21.75C10.9609 21.75 10.9648 21.75 10.9688 21.75C10.9727 21.75 10.9766 21.75 10.9805 21.75C10.9844 21.75 10.9883 21.75 10.9922 21.75C10.9961 21.75 11 21.75 11.0039 21.75C11.0078 21.75 11.0117 21.75 11.0156 21.75C11.0195 21.75 11.0234 21.75 11.0273 21.75C11.0312 21.75 11.0352 21.75 11.0391 21.75C11.043 21.75 11.0469 21.75 11.0508 21.75C11.0547 21.75 11.0586 21.75 11.0625 21.75C11.0664 21.75 11.0703 21.75 11.0742 21.75C11.0781 21.75 11.082 21.75 11.0859 21.75C11.0898 21.75 11.0938 21.75 11.0977 21.75C11.1016 21.75 11.1055 21.75 11.1094 21.75C11.1133 21.75 11.1172 21.75 11.1211 21.75C11.125 21.75 11.1289 21.75 11.1328 21.75C11.1367 21.75 11.1406 21.75 11.1445 21.75C11.1484 21.75 11.1523 21.75 11.1562 21.75C11.1602 21.75 11.1641 21.75 11.168 21.75C11.1719 21.75 11.1758 21.75 11.1797 21.75C11.1836 21.75 11.1875 21.75 11.1914 21.75C11.1953 21.75 11.1992 21.75 11.2031 21.75C11.207 21.75 11.2109 21.75 11.2148 21.75C11.2188 21.75 11.2227 21.75 11.2266 21.75C11.2305 21.75 11.2344 21.75 11.2383 21.75C11.2422 21.75 11.2461 21.75 11.25 21.75C11.2539 21.75 11.2578 21.75 11.2617 21.75C11.2656 21.75 11.2695 21.75 11.2734 21.75C11.2773 21.75 11.2812 21.75 11.2852 21.75C11.2891 21.75 11.293 21.75 11.2969 21.75C11.3008 21.75 11.3047 21.75 11.3086 21.75C11.3125 21.75 11.3164 21.75 11.3203 21.75C11.3242 21.75 11.3281 21.75 11.332 21.75C11.3359 21.75 11.3398 21.75 11.3438 21.75C11.3477 21.75 11.3516 21.75 11.3555 21.75C11.3594 21.75 11.3633 21.75 11.3672 21.75C11.3711 21.75 11.375 21.75 11.3789 21.75C11.3828 21.75 11.3867 21.75 11.3906 21.75C11.3945 21.75 11.3984 21.75 11.4023 21.75C11.4062 21.75 11.4102 21.75 11.4141 21.75C11.418 21.75 11.4219 21.75 11.4258 21.75C11.4297 21.75 11.4336 21.75 11.4375 21.75C11.4414 21.75 11.4453 21.75 11.4492 21.75C11.4531 21.75 11.457 21.75 11.4609 21.75C11.4648 21.75 11.4688 21.75 11.4727 21.75C11.4766 21.75 11.4805 21.75 11.4844 21.75C11.4883 21.75 11.4922 21.75 11.4961 21.75C11.5 21.75 11.5039 21.75 11.5078 21.75C11.5117 21.75 11.5156 21.75 11.5195 21.75C11.5234 21.75 11.5273 21.75 11.5312 21.75C11.5352 21.75 11.5391 21.75 11.543 21.75C11.5469 21.75 11.5508 21.75 11.5547 21.75C11.5586 21.75 11.5625 21.75 11.5664 21.75C11.5703 21.75 11.5742 21.75 11.5781 21.75C11.582 21.75 11.5859 21.75 11.5898 21.75C11.5938 21.75 11.5977 21.75 11.6016 21.75C11.6055 21.75 11.6094 21.75 11.6133 21.75C11.6172 21.75 11.6211 21.75 11.625 21.75C11.6289 21.75 11.6328 21.75 11.6367 21.75C11.6406 21.75 11.6445 21.75 11.6484 21.75C11.6523 21.75 11.6562 21.75 11.6602 21.75C11.6641 21.75 11.668 21.75 11.6719 21.75C11.6758 21.75 11.6797 21.75 11.6836 21.75C11.6875 21.75 11.6914 21.75 11.6953 21.75C11.6992 21.75 11.7031 21.75 11.707 21.75C11.7109 21.75 11.7148 21.75 11.7188 21.75C11.7227 21.75 11.7266 21.75 11.7305 21.75C11.7344 21.75 11.7383 21.75 11.7422 21.75C11.7461 21.75 11.75 21.75 11.7539 21.75C11.7578 21.75 11.7617 21.75 11.7656 21.75C11.7695 21.75 11.7734 21.75 11.7773 21.75C11.7812 21.75 11.7852 21.75 11.7891 21.75C11.793 21.75 11.7969 21.75 11.8008 21.75C11.8047 21.75 11.8086 21.75 11.8125 21.75C11.8164 21.75 11.8203 21.75 11.8242 21.75C11.8281 21.75 11.832 21.75 11.8359 21.75C11.8398 21.75 11.8438 21.75 11.8477 21.75C11.8516 21.75 11.8555 21.75 11.8594 21.75C11.8633 21.75 11.8672 21.75 11.8711 21.75C11.875 21.75 11.8789 21.75 11.8828 21.75C11.8867 21.75 11.8906 21.75 11.8945 21.75C11.8984 21.75 11.9023 21.75 11.9062 21.75C11.9102 21.75 11.9141 21.75 11.918 21.75C11.9219 21.75 11.9258 21.75 11.9297 21.75C11.9336 21.75 11.9375 21.75 11.9414 21.75C11.9453 21.75 11.9492 21.75 11.9531 21.75C11.957 21.75 11.9609 21.75 11.9648 21.75C11.9688 21.75 11.9727 21.75 11.9766 21.75C11.9805 21.75 11.9844 21.75 11.9883 21.75C11.9922 21.75 11.9961 21.75 12 21.75C12.0039 21.75 12.0078 21.75 12.0117 21.75C12.0156 21.75 12.0195 21.75 12.0234 21.75C12.0273 21.75 12.0312 21.75 12.0352 21.75C12.0391 21.75 12.043 21.75 12.0469 21.75C12.0508 21.75 12.0547 21.75 12.0586 21.75C12.0625 21.75 12.0664 21.75 12.0703 21.75C12.0742 21.75 12.0781 21.75 12.082 21.75C12.0859 21.75 12.0898 21.75 12.0938 21.75C12.0977 21.75 12.1016 21.75 12.1055 21.75C12.1094 21.75 12.1133 21.75 12.1172 21.75C12.1211 21.75 12.125 21.75 12.1289 21.75C12.1328 21.75 12.1367 21.75 12.1406 21.75C12.1445 21.75 12.1484 21.75 12.1523 21.75C12.1562 21.75 12.1602 21.75 12.1641 21.75C12.168 21.75 12.1719 21.75 12.1758 21.75C12.1797 21.75 12.1836 21.75 12.1875 21.75C12.1914 21.75 12.1953 21.75 12.1992 21.75C12.2031 21.75 12.207 21.75 12.2109 21.75C12.2148 21.75 12.2188 21.75 12.2227 21.75C12.2266 21.75 12.2305 21.75 12.2344 21.75C12.2383 21.75 12.2422 21.75 12.2461 21.75C12.25 21.75 12.2539 21.75 12.2578 21.75C12.2617 21.75 12.2656 21.75 12.2695 21.75C12.2734 21.75 12.2773 21.75 12.2812 21.75C12.2852 21.75 12.2891 21.75 12.293 21.75C12.2969 21.75 12.3008 21.75 12.3047 21.75C12.3086 21.75 12.3125 21.75 12.3164 21.75C12.3203 21.75 12.3242 21.75 12.3281 21.75C12.332 21.75 12.3359 21.75 12.3398 21.75C12.3438 21.75 12.3477 21.75 12.3516 21.75C12.3555 21.75 12.3594 21.75 12.3633 21.75C12.3672 21.75 12.3711 21.75 12.375 21.75C12.3789 21.75 12.3828 21.75 12.3867 21.75C12.3906 21.75 12.3945 21.75 12.3984 21.75C12.4023 21.75 12.4062 21.75 12.4102 21.75C12.4141 21.75 12.418 21.75 12.4219 21.75C12.4258 21.75 12.4297 21.75 12.4336 21.75C12.4375 21.75 12.4414 21.75 12.4453 21.75C12.4492 21.75 12.4531 21.75 12.457 21.75C12.4609 21.75 12.4648 21.75 12.4688 21.75C12.4727 21.75 12.4766 21.75 12.4805 21.75C12.4844 21.75 12.4883 21.75 12.4922 21.75C12.4961 21.75 12.5 21.75 12.5039 21.75C12.5078 21.75 12.5117 21.75 12.5156 21.75C12.5195 21.75 12.5234 21.75 12.5273 21.75C12.5312 21.75 12.5352 21.75 12.5391 21.75C12.543 21.75 12.5469 21.75 12.5508 21.75C12.5547 21.75 12.5586 21.75 12.5625 21.75C12.5664 21.75 12.5703 21.75 12.5742 21.75C12.5781 21.75 12.582 21.75 12.5859 21.75C12.5898 21.75 12.5938 21.75 12.5977 21.75C12.6016 21.75 12.6055 21.75 12.6094 21.75C12.6133 21.75 12.6172 21.75 12.6211 21.75C12.625 21.75 12.6289 21.75 12.6328 21.75C12.6367 21.75 12.6406 21.75 12.6445 21.75C12.6484 21.75 12.6523 21.75 12.6562 21.75C12.6602 21.75 12.6641 21.75 12.668 21.75C12.6719 21.75 12.6758 21.75 12.6797 21.75C12.6836 21.75 12.6875 21.75 12.6914 21.75C12.6953 21.75 12.6992 21.75 12.7031 21.75C12.707 21.75 12.7109 21.75 12.7148 21.75C12.7188 21.75 12.7227 21.75 12.7266 21.75C12.7305 21.75 12.7344 21.75 12.7383 21.75C12.7422 21.75 12.7461 21.75 12.75 21.75C12.7539 21.75 12.7578 21.75 12.7617 21.75C12.7656 21.75 12.7695 21.75 12.7734 21.75C12.7773 21.75 12.7812 21.75 12.7852 21.75C12.7891 21.75 12.793 21.75 12.7969 21.75C12.8008 21.75 12.8047 21.75 12.8086 21.75C12.8125 21.75 12.8164 21.75 12.8203 21.75C12.8242 21.75 12.8281 21.75 12.832 21.75C12.8359 21.75 12.8398 21.75 12.8438 21.75C12.8477 21.75 12.8516 21.75 12.8555 21.75C12.8594 21.75 12.8633 21.75 12.8672 21.75C12.8711 21.75 12.875 21.75 12.8789 21.75C12.8828 21.75 12.8867 21.75 12.8906 21.75C12.8945 21.75 12.8984 21.75 12.9023 21.75C12.9062 21.75 12.9102 21.75 12.9141 21.75C12.918 21.75 12.9219 21.75 12.9258 21.75C12.9297 21.75 12.9336 21.75 12.9375 21.75C12.9414 21.75 12.9453 21.75 12.9492 21.75C12.9531 21.75 12.957 21.75 12.9609 21.75C12.9648 21.75 12.9688 21.75 12.9727 21.75C12.9766 21.75 12.9805 21.75 12.9844 21.75C12.9883 21.75 12.9922 21.75 12.9961 21.75C13 21.75 13.0039 21.75 13.0078 21.75C13.0117 21.75 13.0156 21.75 13.0195 21.75C13.0234 21.75 13.0273 21.75 13.0312 21.75C13.0352 21.75 13.0391 21.75 13.043 21.75C13.0469 21.75 13.0508 21.75 13.0547 21.75C13.0586 21.75 13.0625 21.75 13.0664 21.75C13.0703 21.75 13.0742 21.75 13.0781 21.75C13.082 21.75 13.0859 21.75 13.0898 21.75C13.0938 21.75 13.0977 21.75 13.1016 21.75C13.1055 21.75 13.1094 21.75 13.1133 21.75C13.1172 21.75 13.1211 21.75 13.125 21.75C13.1289 21.75 13.1328 21.75 13.1367 21.75C13.1406 21.75 13.1445 21.75 13.1484 21.75C13.1523 21.75 13.1562 21.75 13.1602 21.75C13.1641 21.75 13.168 21.75 13.1719 21.75C13.1758 21.75 13.1797 21.75 13.1836 21.75C13.1875 21.75 13.1914 21.75 13.1953 21.75C13.1992 21.75 13.2031 21.75 13.207 21.75C13.2109 21.75 13.2148 21.75 13.2188 21.75C13.2227 21.75 13.2266 21.75 13.2305 21.75C13.2344 21.75 13.2383 21.75 13.2422 21.75C13.2461 21.75 13.25 21.75 13.2539 21.75C13.2578 21.75 13.2617 21.75 13.2656 21.75C13.2695 21.75 13.2734 21.75 13.2773 21.75C13.2812 21.75 13.2852 21.75 13.2891 21.75C13.293 21.75 13.2969 21.75 13.3008 21.75C13.3047 21.75 13.3086 21.75 13.3125 21.75C13.3164 21.75 13.3203 21.75 13.3242 21.75C13.3281 21.75 13.332 21.75 13.3359 21.75C13.3398 21.75 13.3438 21.75 13.3477 21.75C13.3516 21.75 13.3555 21.75 13.3594 21.75C13.3633 21.75 13.3672 21.75 13.3711 21.75C13.375 21.75 13.3789 21.75 13.3828 21.75C13.3867 21.75 13.3906 21.75 13.3945 21.75C13.3984 21.75 13.4023 21.75 13.4062 21.75C13.4102 21.75 13.4141 21.75 13.418 21.75C13.4219 21.75 13.4258 21.75 13.4297 21.75C13.4336 21.75 13.4375 21.75 13.4414 21.75C13.4453 21.75 13.4492 21.75 13.4531 21.75C13.457 21.75 13.4609 21.75 13.4648 21.75C13.4688 21.75 13.4727 21.75 13.4766 21.75C13.4805 21.75 13.4844 21.75 13.4883 21.75C13.4922 21.75 13.4961 21.75 13.5 21.75C13.5039 21.75 13.5078 21.75 13.5117 21.75C13.5156 21.75 13.5195 21.75 13.5234 21.75C13.5273 21.75 13.5312 21.75 13.5352 21.75C13.5391 21.75 13.543 21.75 13.5469 21.75C13.5508 21.75 13.5547 21.75 13.5586 21.75C13.5625 21.75 13.5664 21.75 13.5703 21.75C13.5742 21.75 13.5781 21.75 13.582 21.75C13.5859 21.75 13.5898 21.75 13.5938 21.75C13.5977 21.75 13.6016 21.75 13.6055 21.75C13.6094 21.75 13.6133 21.75 13.6172 21.75C13.6211 21.75 13.625 21.75 13.6289 21.75C13.6328 21.75 13.6367 21.75 13.6406 21.75C13.6445 21.75 13.6484 21.75 13.6523 21.75C13.6562 21.75 13.6602 21.75 13.6641 21.75C13.668 21.75 13.6719 21.75 13.6758 21.75C13.6797 21.75 13.6836 21.75 13.6875 21.75C13.6914 21.75 13.6953 21.75 13.6992 21.75C13.7031 21.75 13.707 21.75 13.7109 21.75C13.7148 21.75 13.7188 21.75 13.7227 21.75C13.7266 21.75 13.7305 21.75 13.7344 21.75C13.7383 21.75 13.7422 21.75 13.7461 21.75C13.75 21.75 13.7539 21.75 13.7578 21.75C13.7617 21.75 13.7656 21.75 13.7695 21.75C13.7734 21.75 13.7773 21.75 13.7812 21.75C13.7852 21.75 13.7891 21.75 13.793 21.75C13.7969 21.75 13.8008 21.75 13.8047 21.75C13.8086 21.75 13.8125 21.75 13.8164 21.75C13.8203 21.75 13.8242 21.75 13.8281 21.75C13.832 21.75 13.8359 21.75 13.8398 21.75C13.8438 21.75 13.8477 21.75 13.8516 21.75C13.8555 21.75 13.8594 21.75 13.8633 21.75C13.8672 21.75 13.8711 21.75 13.875 21.75C13.8789 21.75 13.8828 21.75 13.8867 21.75C13.8906 21.75 13.8945 21.75 13.8984 21.75C13.9023 21.75 13.9062 21.75 13.9102 21.75C13.9141 21.75 13.918 21.75 13.9219 21.75C13.9258 21.75 13.9297 21.75 13.9336 21.75C13.9375 21.75 13.9414 21.75 13.9453 21.75C13.9492 21.75 13.9531 21.75 13.957 21.75C13.9609 21.75 13.9648 21.75 13.9688 21.75C13.9727 21.75 13.9766 21.75 13.9805 21.75C13.9844 21.75 13.9883 21.75 13.9922 21.75C13.9961 21.75 14 21.75 14.0039 21.75C14.0078 21.75 14.0117 21.75 14.0156 21.75C14.0195 21.75 14.0234 21.75 14.0273 21.75C14.0312 21.75 14.0352 21.75 14.0391 21.75C14.043 21.75 14.0469 21.75 14.0508 21.75C14.0547 21.75 14.0586 21.75 14.0625 21.75C14.0664 21.75 14.0703 21.75 14.0742 21.75C14.0781 21.75 14.082 21.75 14.0859 21.75C14.0898 21.75 14.0938 21.75 14.0977 21.75C14.1016 21.75 14.1055 21.75 14.1094 21.75C14.1133 21.75 14.1172 21.75 14.1211 21.75C14.125 21.75 14.1289 21.75 14.1328 21.75C14.1367 21.75 14.1406 21.75 14.1445 21.75C14.1484 21.75 14.1523 21.75 14.1562 21.75C14.1602 21.75 14.1641 21.75 14.168 21.75C14.1719 21.75 14.1758 21.75 14.1797 21.75C14.1836 21.75 14.1875 21.75 14.1914 21.75C14.1953 21.75 14.1992 21.75 14.2031 21.75C14.207 21.75 14.2109 21.75 14.2148 21.75C14.2188 21.75 14.2227 21.75 14.2266 21.75C14.2305 21.75 14.2344 21.75 14.2383 21.75C14.2422 21.75 14.2461 21.75 14.25 21.75C14.2539 21.75 14.2578 21.75 14.2617 21.75C14.2656 21.75 14.2695 21.75 14.2734 21.75C14.2773 21.75 14.2812 21.75 14.2852 21.75C14.2891 21.75 14.293 21.75 14.2969 21.75C14.3008 21.75 14.3047 21.75 14.3086 21.75C14.3125 21.75 14.3164 21.75 14.3203 21.75C14.3242 21.75 14.3281 21.75 14.332 21.75C14.3359 21.75 14.3398 21.75 14.3438 21.75C14.3477 21.75 14.3516 21.75 14.3555 21.75C14.3594 21.75 14.3633 21.75 14.3672 21.75C14.3711 21.75 14.375 21.75 14.3789 21.75C14.3828 21.75 14.3867 21.75 14.3906 21.75C14.3945 21.75 14.3984 21.75 14.4023 21.75C14.4062 21.75 14.4102 21.75 14.4141 21.75C14.418 21.75 14.4219 21.75 14.4258 21.75C14.4297 21.75 14.4336 21.75 14.4375 21.75C14.4414 21.75 14.4453 21.75 14.4492 21.75C14.4531 21.75 14.457 21.75 14.4609 21.75C14.4648 21.75 14.4688 21.75 14.4727 21.75C14.4766 21.75 14.4805 21.75 14.4844 21.75C14.4883 21.75 14.4922 21.75 14.4961 21.75C14.5 21.75 14.5039 21.75 14.5078 21.75C14.5117 21.75 14.5156 21.75 14.5195 21.75C14.5234 21.75 14.5273 21.75 14.5312 21.75C14.5352 21.75 14.5391 21.75 14.543 21.75C14.5469 21.75 14.5508 21.75 14.5547 21.75C14.5586 21.75 14.5625 21.75 14.5664 21.75C14.5703 21.75 14.5742 21.75 14.5781 21.75C14.582 21.75 14.5859 21.75 14.5898 21.75C14.5938 21.75 14.5977 21.75 14.6016 21.75C14.6055 21.75 14.6094 21.75 14.6133 21.75C14.6172 21.75 14.6211 21.75 14.625 21.75C14.6289 21.75 14.6328 21.75 14.6367 21.75C14.6406 21.75 14.6445 21.75 14.6484 21.75C14.6523 21.75 14.6562 21.75 14.6602 21.75C14.6641 21.75 14.668 21.75 14.6719 21.75C14.6758 21.75 14.6797 21.75 14.6836 21.75C14.6875 21.75 14.6914 21.75 14.6953 21.75C14.6992 21.75 14.7031 21.75 14.707 21.75C14.7109 21.75 14.7148 21.75 14.7188 21.75C14.7227 21.75 14.7266 21.75 14.7305 21.75C14.7344 21.75 14.7383 21.75 14.7422 21.75C14.7461 21.75 14.75 21.75 14.7539 21.75C14.7578 21.75 14.7617 21.75 14.7656 21.75C14.7695 21.75 14.7734 21.75 14.7773 21.75C14.7812 21.75 14.7852 21.75 14.7891 21.75C14.793 21.75 14.7969 21.75 14.8008 21.75C14.8047 21.75 14.8086 21.75 14.8125 21.75C14.8164 21.75 14.8203 21.75 14.8242 21.75C14.8281 21.75 14.832 21.75 14.8359 21.75C14.8398 21.75 14.8438 21.75 14.8477 21.75C14.8516 21.75 14.8555 21.75 14.8594 21.75C14.8633 21.75 14.8672 21.75 14.8711 21.75C14.875 21.75 14.8789 21.75 14.8828 21.75C14.8867 21.75 14.8906 21.75 14.8945 21.75C14.8984 21.75 14.9023 21.75 14.9062 21.75C14.9102 21.75 14.9141 21.75 14.918 21.75C14.9219 21.75 14.9258 21.75 14.9297 21.75C14.9336 21.75 14.9375 21.75 14.9414 21.75C14.9453 21.75 14.9492 21.75 14.9531 21.75C14.957 21.75 14.9609 21.75 14.9648 21.75C14.9688 21.75 14.9727 21.75 14.9766 21.75C14.9805 21.75 14.9844 21.75 14.9883 21.75C14.9922 21.75 14.9961 21.75 15 21.75V20.25ZM21.25 12V14H22.75V12H21.25ZM21.25 14C21.25 15.5484 21.2295 17.0638 20.4923 18.2223C19.8091 19.2959 18.364 20.25 15 20.25V21.75C18.636 21.75 20.6909 20.7041 21.7577 19.0277C22.7705 17.4362 22.75 15.4516 22.75 14H21.25ZM7 5.75C7.73384 5.75 8.3139 5.60126 8.80892 5.36364C9.28797 5.1337 9.66354 4.82964 9.96852 4.58565C10.2885 4.32964 10.538 4.1337 10.8402 3.98864C11.1264 3.85126 11.4838 3.75 12 3.75V2.25C11.2662 2.25 10.6861 2.39874 10.1911 2.63636C9.71203 2.8663 9.33646 3.17036 9.03148 3.41435C8.71146 3.67036 8.46203 3.8663 8.15983 4.01136C7.8736 4.14874 7.51616 4.25 7 4.25V5.75ZM12 3.75C12.5162 3.75 12.8736 3.85126 13.1598 3.98864C13.462 4.1337 13.7115 4.32964 14.0315 4.58565C14.3365 4.82964 14.712 5.1337 15.1911 5.36364C15.6861 5.60126 16.2662 5.75 17 5.75V4.25C16.4838 4.25 16.1264 4.14874 15.8402 4.01136C15.538 3.8663 15.2885 3.67036 14.9685 3.41435C14.6635 3.17036 14.288 2.8663 13.8089 2.63636C13.3139 2.39874 12.7338 2.25 12 2.25V3.75Z" fill="black"/>
<path d="M8 13C8 15.2091 9.79086 17 12 17C14.2091 17 16 15.2091 16 13C16 10.7909 14.2091 9 12 9C9.79086 9 8 10.7909 8 13Z" stroke="black" stroke-width="1.5" stroke-linecap="round"/>
</svg>
