<svg width="24" height="24" viewBox="0 0 24 24" fill="none" xmlns="http://www.w3.org/2000/svg">
<path fill-rule="evenodd" clip-rule="evenodd" d="M21.0039 5.11692C20.3824 4.68619 19.6095 4.45 18.6937 4.45H5.28906L5.25301 4.03834C5.18561 3.51048 5.07116 2.76406 4.56122 2.17553C4.01837 1.54902 3.1737 1.25 2 1.25C1.58579 1.25 1.25 1.58579 1.25 2C1.25 2.41421 1.58579 2.75 2 2.75C2.9355 2.75 3.27726 2.98431 3.42758 3.1578C3.60887 3.36704 3.69448 3.68277 3.76291 4.21134L3.84752 5.2603L3.91204 6.0603L4.44955 12.7241L4.44967 12.7256C4.58178 14.4429 5.12976 15.9532 6.1405 17.0433C7.16429 18.1474 8.59858 18.75 10.3468 18.75H16.607C18.3801 18.75 19.6077 18.1266 20.4571 16.9797C21.2524 15.9059 21.6692 14.4279 22.032 12.8392L22.5523 10.7115C22.8407 9.53218 22.8542 8.02535 22.3176 6.7716C22.0449 6.13422 21.6216 5.54509 21.0039 5.11692ZM11.25 10.5C11.25 10.0858 10.9142 9.75 10.5 9.75C10.0858 9.75 9.75 10.0858 9.75 10.5V12.5C9.75 12.9142 10.0858 13.25 10.5 13.25C10.9142 13.25 11.25 12.9142 11.25 12.5V10.5ZM13.5 9.75C13.9142 9.75 14.25 10.0858 14.25 10.5V12.5C14.25 12.9142 13.9142 13.25 13.5 13.25C13.0858 13.25 12.75 12.9142 12.75 12.5V10.5C12.75 10.0858 13.0858 9.75 13.5 9.75ZM17.25 10.5C17.25 10.0858 16.9142 9.75 16.5 9.75C16.0858 9.75 15.75 10.0858 15.75 10.5V12.5C15.75 12.9142 16.0858 13.25 16.5 13.25C16.9142 13.25 17.25 12.9142 17.25 12.5V10.5Z" fill="black"/>
<path fill-rule="evenodd" clip-rule="evenodd" d="M9 23C8.44772 23 8 22.5523 8 22L8 21.999C8 21.4467 8.44772 20.999 9 20.999C9.55228 20.999 10 21.4467 10 21.999L10 22C10 22.5523 9.55228 23 9 23Z" fill="black"/>
<path fill-rule="evenodd" clip-rule="evenodd" d="M17 23C16.4477 23 16 22.5523 16 22L16 21.999C16 21.4467 16.4477 20.999 17 20.999C17.5523 20.999 18 21.4467 18 21.999L18 22C18 22.5523 17.5523 23 17 23Z" fill="black"/>
</svg>
