<svg width="24" height="24" viewBox="0 0 24 24" fill="none" xmlns="http://www.w3.org/2000/svg">
<path opacity="0.32" d="M18.6937 4.45C19.6095 4.45 20.3824 4.68619 21.0039 5.11692C21.6216 5.54509 22.0449 6.13422 22.3176 6.7716C22.8542 8.02535 22.8407 9.53218 22.5523 10.7115L22.032 12.8392C21.6692 14.4279 21.2524 15.9059 20.4571 16.9797C19.6077 18.1266 18.3801 18.75 16.607 18.75H10.3468C8.59858 18.75 7.16429 18.1474 6.1405 17.0433C5.12976 15.9532 4.58178 14.4429 4.44967 12.7256L4.44955 12.7241L3.91204 6.0603L3.84752 5.2603L3.76291 4.21134C3.69448 3.68277 3.60887 3.36704 3.42758 3.1578C3.27726 2.98431 2.9355 2.75 2 2.75C1.58579 2.75 1.25 2.41421 1.25 2C1.25 1.58579 1.58579 1.25 2 1.25C3.1737 1.25 4.01837 1.54902 4.56122 2.17553C5.07116 2.76406 5.18561 3.51048 5.25301 4.03834L5.28906 4.45H18.6937Z" fill="black"/>
<path fill-rule="evenodd" clip-rule="evenodd" d="M10.5 9.75C10.9142 9.75 11.25 10.0858 11.25 10.5L11.25 12.5C11.25 12.9142 10.9142 13.25 10.5 13.25C10.0858 13.25 9.75 12.9142 9.75 12.5L9.75 10.5C9.75 10.0858 10.0858 9.75 10.5 9.75Z" fill="black"/>
<path fill-rule="evenodd" clip-rule="evenodd" d="M13.5 9.75C13.9142 9.75 14.25 10.0858 14.25 10.5L14.25 12.5C14.25 12.9142 13.9142 13.25 13.5 13.25C13.0858 13.25 12.75 12.9142 12.75 12.5L12.75 10.5C12.75 10.0858 13.0858 9.75 13.5 9.75Z" fill="black"/>
<path fill-rule="evenodd" clip-rule="evenodd" d="M16.5 9.75C16.9142 9.75 17.25 10.0858 17.25 10.5L17.25 12.5C17.25 12.9142 16.9142 13.25 16.5 13.25C16.0858 13.25 15.75 12.9142 15.75 12.5L15.75 10.5C15.75 10.0858 16.0858 9.75 16.5 9.75Z" fill="black"/>
<path fill-rule="evenodd" clip-rule="evenodd" d="M9 23C8.44772 23 8 22.5523 8 22L8 21.999C8 21.4467 8.44772 20.999 9 20.999C9.55228 20.999 10 21.4467 10 21.999L10 22C10 22.5523 9.55228 23 9 23Z" fill="black"/>
<path fill-rule="evenodd" clip-rule="evenodd" d="M17 23C16.4477 23 16 22.5523 16 22L16 21.999C16 21.4467 16.4477 20.999 17 20.999C17.5523 20.999 18 21.4467 18 21.999L18 22C18 22.5523 17.5523 23 17 23Z" fill="black"/>
</svg>
