<svg width="24" height="24" viewBox="0 0 24 24" fill="none" xmlns="http://www.w3.org/2000/svg">
<path d="M16 4C16 5.10222 14.99 6 13.75 6H10.25C9.63 6 9.06997 5.77777 8.65997 5.41333C8.24997 5.04889 8 4.55111 8 4C8 2.89778 9.01 2 10.25 2H13.75C14.37 2 14.93 2.22223 15.34 2.58667C15.75 2.95111 16 3.44889 16 4Z" fill="black"/>
<path opacity="0.32" d="M14.2969 7.50001C15.9244 7.50001 17.25 6.26557 17.25 4.75001C17.25 4.71725 17.2494 4.68462 17.2482 4.65214C20 5.86901 20 8.49841 20 10.0002V16.0002C20 18.0002 20 22.0002 13 22.0002H11C4 22.0002 4 18.0002 4 16.0002V10.0002C4 8.4984 4 5.869 6.75185 4.65213C6.75062 4.68462 6.75 4.71725 6.75 4.75001C6.75 5.50779 7.07809 6.19223 7.61621 6.69334C8.15434 7.19445 8.88938 7.50001 9.70312 7.50001H14.2969Z" fill="black"/>
<path fill-rule="evenodd" clip-rule="evenodd" d="M8.25 11.5C8.25 11.0858 8.58579 10.75 9 10.75H15C15.4142 10.75 15.75 11.0858 15.75 11.5C15.75 11.9142 15.4142 12.25 15 12.25H9C8.58579 12.25 8.25 11.9142 8.25 11.5Z" fill="black"/>
<path fill-rule="evenodd" clip-rule="evenodd" d="M8.25 15.5C8.25 15.0858 8.58579 14.75 9 14.75H12.9999C13.4141 14.75 13.7499 15.0858 13.7499 15.5C13.7499 15.9142 13.4141 16.25 12.9999 16.25H9C8.58579 16.25 8.25 15.9142 8.25 15.5Z" fill="black"/>
</svg>
