<svg width="24" height="24" viewBox="0 0 24 24" fill="none" xmlns="http://www.w3.org/2000/svg">
<path opacity="0.32" fill-rule="evenodd" clip-rule="evenodd" d="M15.5892 5.53598C15.8455 5.86141 15.7894 6.33296 15.464 6.58923L11.0968 10.0284L11.0828 10.0384C10.0927 10.7473 9.75 11.4413 9.75 12C9.75 12.5587 10.0927 13.2527 11.0828 13.9616L11.0968 13.9716L15.464 17.4108C15.7894 17.667 15.8455 18.1386 15.5892 18.464C15.333 18.7894 14.8614 18.8455 14.536 18.5892L10.1954 15.171C8.99888 14.3101 8.25 13.2221 8.25 12C8.25 10.7779 8.99888 9.68994 10.1954 8.82902L14.536 5.41077C14.8614 5.1545 15.333 5.21056 15.5892 5.53598Z" fill="black"/>
</svg>
