<svg width="24" height="24" viewBox="0 0 24 24" fill="none" xmlns="http://www.w3.org/2000/svg">
<path fill-rule="evenodd" clip-rule="evenodd" d="M15.171 10.1954L18.5892 14.536C18.8455 14.8614 18.7894 15.333 18.464 15.5892C18.1386 15.8455 17.667 15.7894 17.4107 15.464L13.9716 11.0968L13.9616 11.0828C13.2527 10.0927 12.5587 9.75 12 9.75C11.4413 9.75 10.7473 10.0927 10.0384 11.0828L10.0284 11.0968L6.5892 15.464C6.33293 15.7894 5.86138 15.8455 5.53595 15.5892C5.21053 15.333 5.15447 14.8614 5.41074 14.536L8.82898 10.1954C9.68991 8.99888 10.7778 8.25 12 8.25C13.2221 8.25 14.31 8.99888 15.171 10.1954Z" fill="black"/>
</svg>
