<svg width="24" height="24" viewBox="0 0 24 24" fill="none" xmlns="http://www.w3.org/2000/svg">
<path opacity="0.32" fill-rule="evenodd" clip-rule="evenodd" d="M8.41077 5.53598C8.66704 5.21056 9.1386 5.1545 9.46402 5.41077L13.8046 8.82901C15.0011 9.68994 15.75 10.7779 15.75 12C15.75 13.2221 15.0011 14.3101 13.8046 15.171L9.46402 18.5892C9.1386 18.8455 8.66704 18.7894 8.41077 18.464C8.1545 18.1386 8.21056 17.667 8.53598 17.4108L12.9032 13.9716L12.9172 13.9616C13.9074 13.2527 14.25 12.5587 14.25 12C14.25 11.4413 13.9074 10.7473 12.9172 10.0384L12.9032 10.0284L8.53598 6.58923C8.21056 6.33296 8.1545 5.86141 8.41077 5.53598Z" fill="black"/>
</svg>
