<svg width="24" height="24" viewBox="0 0 24 24" fill="none" xmlns="http://www.w3.org/2000/svg">
<path fill-rule="evenodd" clip-rule="evenodd" d="M6.7684 20.524C8.29037 21.4601 10.0821 22 12 22C13.9189 22 15.7116 21.4595 17.2341 20.5224C17.195 19.9517 17.0593 19.0096 16.5891 18.1144C16.2672 17.5016 15.7933 16.9208 15.0879 16.4895C14.383 16.0587 13.4026 15.75 12.0243 15.75C10.6462 15.75 9.66192 16.0587 8.95168 16.4905C8.24064 16.9228 7.76062 17.505 7.43291 18.1189C6.95525 19.0135 6.81152 19.9552 6.7684 20.524ZM5.39126 19.5051C3.31184 17.6727 2 14.9895 2 12C2 6.47715 6.47715 2 12 2C17.5228 2 22 6.47715 22 12C22 14.9859 20.6914 17.6661 18.6163 19.4984C18.504 18.8782 18.2973 18.1408 17.917 17.4168C17.492 16.6077 16.8454 15.8058 15.8702 15.2097C15.5805 15.0326 15.2657 14.8761 14.9241 14.7435C16.0356 13.8741 16.75 12.5205 16.75 11C16.75 8.37665 14.6234 6.25 12 6.25C9.37665 6.25 7.25 8.37665 7.25 11C7.25 12.5273 7.9708 13.8862 9.09078 14.7551C8.76016 14.885 8.45455 15.0372 8.17243 15.2088C7.19368 15.8038 6.54111 16.6043 6.10969 17.4124C5.72091 18.1406 5.50793 18.8822 5.39126 19.5051ZM12 7.75C10.2051 7.75 8.75 9.20507 8.75 11C8.75 12.7949 10.2051 14.25 12 14.25C13.7949 14.25 15.25 12.7949 15.25 11C15.25 9.20507 13.7949 7.75 12 7.75Z" fill="black"/>
</svg>
