<svg width="24" height="24" viewBox="0 0 24 24" fill="none" xmlns="http://www.w3.org/2000/svg">
<path fill-rule="evenodd" clip-rule="evenodd" d="M13 22C7.47715 22 3 17.5228 3 12C3 6.47715 7.47715 2 13 2C18.5228 2 23 6.47715 23 12C23 17.5228 18.5228 22 13 22ZM9.75 12C9.75 11.5858 9.41421 11.25 9 11.25C8.58579 11.25 8.25 11.5858 8.25 12V16C8.25 16.4142 8.58579 16.75 9 16.75C9.41421 16.75 9.75 16.4142 9.75 16V12ZM13 9.25C13.4142 9.25 13.75 9.58579 13.75 10V16C13.75 16.4142 13.4142 16.75 13 16.75C12.5858 16.75 12.25 16.4142 12.25 16V10C12.25 9.58579 12.5858 9.25 13 9.25ZM17.75 8C17.75 7.58579 17.4142 7.25 17 7.25C16.5858 7.25 16.25 7.58579 16.25 8V16C16.25 16.4142 16.5858 16.75 17 16.75C17.4142 16.75 17.75 16.4142 17.75 16V8Z" fill="black"/>
</svg>
