<svg width="24" height="24" viewBox="0 0 24 24" fill="none" xmlns="http://www.w3.org/2000/svg">
<path opacity="0.32" d="M5.25 20C5.25 20.4142 5.58579 20.75 6 20.75C6.41421 20.75 6.75 20.4142 6.75 20H5.25ZM17.25 20C17.25 20.4142 17.5858 20.75 18 20.75C18.4142 20.75 18.75 20.4142 18.75 20H17.25ZM12 14.25C10.2051 14.25 8.75 12.7949 8.75 11H7.25C7.25 13.6234 9.37665 15.75 12 15.75V14.25ZM8.75 11C8.75 9.20507 10.2051 7.75 12 7.75V6.25C9.37665 6.25 7.25 8.37665 7.25 11H8.75ZM12 7.75C13.7949 7.75 15.25 9.20507 15.25 11H16.75C16.75 8.37665 14.6234 6.25 12 6.25V7.75ZM15.25 11C15.25 12.7949 13.7949 14.25 12 14.25V15.75C14.6234 15.75 16.75 13.6234 16.75 11H15.25ZM6.75 20C6.75 19.7198 6.76477 18.6552 7.40077 17.6734C7.99969 16.7488 9.24757 15.75 12.0243 15.75V14.25C8.82545 14.25 7.06116 15.4387 6.14183 16.8579C5.25957 18.2198 5.25 19.6552 5.25 20H6.75ZM12.0243 15.75C14.8011 15.75 16.034 16.7484 16.6206 17.6687C17.2451 18.6485 17.25 19.7107 17.25 20H18.75C18.75 19.6643 18.7549 18.2265 17.8855 16.8625C16.9782 15.4391 15.2233 14.25 12.0243 14.25V15.75Z" fill="black"/>
<path d="M2 12C2 17.5228 6.47715 22 12 22C17.5228 22 22 17.5228 22 12C22 6.47715 17.5228 2 12 2C6.47715 2 2 6.47715 2 12Z" stroke="black" stroke-width="1.5" stroke-linecap="round"/>
</svg>
