<svg width="24" height="24" viewBox="0 0 24 24" fill="none" xmlns="http://www.w3.org/2000/svg">
<path fill-rule="evenodd" clip-rule="evenodd" d="M12 22C6.47715 22 2 17.5228 2 12C2 6.47715 6.47715 2 12 2C17.5228 2 22 6.47715 22 12C22 17.5228 17.5228 22 12 22ZM10.9175 7.88295C11.1834 7.77542 11.505 7.73793 11.8255 7.75329C12.1482 7.76876 12.4143 7.835 12.5451 7.88615C12.7728 7.9752 12.958 8.06959 13.141 8.2306C13.3274 8.3946 13.5466 8.65908 13.7868 9.12867C13.9755 9.49743 14.4273 9.64346 14.7961 9.45482C15.1649 9.26619 15.3109 8.81432 15.1223 8.44555C14.817 7.84883 14.4908 7.42021 14.1317 7.10437C13.7693 6.78554 13.409 6.61335 13.0913 6.48913C12.9905 6.44971 12.8755 6.41302 12.75 6.38079V6C12.75 5.58579 12.4142 5.25 12 5.25C11.5858 5.25 11.25 5.58579 11.25 6V6.27337C10.9582 6.30506 10.6545 6.37185 10.3593 6.49069C9.35967 6.88288 8.25 7.83117 8.25 9.32038C8.25 9.91892 8.33422 10.4653 8.58262 10.9508C8.83652 11.4471 9.22453 11.8074 9.70477 12.0958C10.4859 12.565 11.2423 12.6872 12.2465 12.7223C12.615 12.7352 12.9381 12.8281 13.1718 12.9207C13.2873 12.9664 13.3771 13.0106 13.435 13.0414C13.4638 13.0567 13.4843 13.0685 13.4957 13.0753L13.5055 13.0812L13.5168 13.0882C13.8226 13.276 13.9821 13.4534 14.079 13.647C14.1818 13.8523 14.25 14.1473 14.25 14.6285C14.25 15.3028 13.756 15.8438 13.0853 16.1118L13.0853 16.1117L13.0772 16.1151C12.8132 16.2242 12.494 16.2623 12.1752 16.2467C11.8542 16.2309 11.5897 16.1635 11.4601 16.1118C11.2333 16.0211 11.0484 15.9249 10.8651 15.7601C10.6778 15.5917 10.4574 15.32 10.2161 14.8378C10.0307 14.4674 9.58018 14.3174 9.20977 14.5028C8.83936 14.6882 8.68938 15.1388 8.87477 15.5092C9.17892 16.1169 9.50398 16.5535 9.8622 16.8755C10.2243 17.2011 10.5849 17.3774 10.9035 17.5047C11.0058 17.5455 11.1225 17.5836 11.25 17.6169V18C11.25 18.4142 11.5858 18.75 12 18.75C12.4142 18.75 12.75 18.4142 12.75 18V17.7262C13.0435 17.6938 13.3491 17.6252 13.6459 17.5031C14.6524 17.0995 15.75 16.1316 15.75 14.6285C15.75 14.02 15.6663 13.4668 15.4203 12.9756C15.1693 12.4741 14.7848 12.1073 14.3055 11.8124L14.2965 11.8067C14.2871 11.8008 14.2748 11.7934 14.26 11.7846C14.2303 11.767 14.1899 11.7439 14.1397 11.7172C14.0395 11.6639 13.8987 11.5952 13.7242 11.5261C13.3778 11.3888 12.8827 11.2436 12.2989 11.2232C11.3986 11.1918 10.9399 11.0879 10.477 10.8099C10.1702 10.6257 10.0128 10.4529 9.918 10.2676C9.81771 10.0716 9.75 9.78804 9.75 9.32038C9.75 8.67917 10.2319 8.15106 10.9095 7.88615L10.9095 7.8862L10.9175 7.88295Z" fill="black"/>
</svg>
