<svg width="24" height="24" viewBox="0 0 24 24" fill="none" xmlns="http://www.w3.org/2000/svg">
<path opacity="0.32" d="M2 12C2 17.5228 6.47715 22 12 22C17.5228 22 22 17.5228 22 12C22 6.47715 17.5228 2 12 2C6.47715 2 2 6.47715 2 12Z" fill="black"/>
<path fill-rule="evenodd" clip-rule="evenodd" d="M11.8255 7.75329C11.505 7.73792 11.1834 7.77541 10.9175 7.88295L10.9095 7.88619C10.2319 8.1511 9.75 8.67917 9.75 9.32038C9.75 9.78804 9.81771 10.0716 9.918 10.2676C10.0128 10.4529 10.1702 10.6257 10.477 10.8099C10.9399 11.0879 11.3986 11.1918 12.2989 11.2232C12.8827 11.2436 13.3778 11.3888 13.7242 11.5261C13.8987 11.5952 14.0395 11.6639 14.1397 11.7172C14.1899 11.7439 14.2303 11.767 14.26 11.7846C14.2748 11.7934 14.2871 11.8008 14.2965 11.8067L14.3056 11.8124C14.7848 12.1073 15.1693 12.4741 15.4204 12.9756C15.6663 13.4668 15.75 14.02 15.75 14.6285C15.75 16.1316 14.6524 17.0995 13.6459 17.5031C13.12 17.7195 12.5667 17.7676 12.1018 17.7449C11.638 17.7221 11.2072 17.626 10.9035 17.5047C10.5849 17.3774 10.2243 17.2011 9.8622 16.8755C9.50398 16.5535 9.17892 16.1169 8.87477 15.5092C8.68938 15.1388 8.83936 14.6882 9.20977 14.5028C9.58018 14.3174 10.0307 14.4674 10.2161 14.8378C10.4574 15.32 10.6778 15.5917 10.8651 15.7601C11.0484 15.9249 11.2333 16.0211 11.4601 16.1118C11.5897 16.1635 11.8542 16.2309 12.1752 16.2466C12.494 16.2623 12.8132 16.2242 13.0772 16.1151L13.0853 16.1117C13.756 15.8437 14.25 15.3028 14.25 14.6285C14.25 14.1473 14.1818 13.8523 14.079 13.647C13.9821 13.4533 13.8226 13.2759 13.5168 13.0882L13.5018 13.0788L13.5028 13.0794L13.5039 13.0802L13.5055 13.0811L13.4957 13.0753C13.4843 13.0685 13.4638 13.0567 13.435 13.0414C13.3771 13.0106 13.2873 12.9664 13.1718 12.9207C12.9381 12.8281 12.615 12.7352 12.2465 12.7223C11.2423 12.6872 10.4859 12.565 9.70477 12.0958C9.22453 11.8074 8.83652 11.4471 8.58262 10.9508C8.33422 10.4653 8.25 9.91891 8.25 9.32038C8.25 7.83117 9.35967 6.88288 10.3593 6.49069C10.8832 6.27972 11.4343 6.23281 11.8974 6.25501C12.3595 6.27716 12.7888 6.37086 13.0913 6.48913C13.409 6.61334 13.7693 6.78553 14.1317 7.10436C14.4908 7.4202 14.817 7.84882 15.1223 8.44555C15.3109 8.81432 15.1649 9.26618 14.7961 9.45482C14.4273 9.64345 13.9755 9.49743 13.7868 9.12866C13.5466 8.65908 13.3274 8.39459 13.141 8.23059C12.958 8.06958 12.7728 7.9752 12.5451 7.88615C12.4143 7.835 12.1482 7.76875 11.8255 7.75329Z" fill="black"/>
<path fill-rule="evenodd" clip-rule="evenodd" d="M12 5.25C12.4142 5.25 12.75 5.58579 12.75 6V7C12.75 7.41421 12.4142 7.75 12 7.75C11.5858 7.75 11.25 7.41421 11.25 7V6C11.25 5.58579 11.5858 5.25 12 5.25Z" fill="black"/>
<path fill-rule="evenodd" clip-rule="evenodd" d="M11.25 18V17H12.75V18C12.75 18.4142 12.4142 18.75 12 18.75C11.5858 18.75 11.25 18.4142 11.25 18Z" fill="black"/>
</svg>
