<svg width="24" height="24" viewBox="0 0 24 24" fill="none" xmlns="http://www.w3.org/2000/svg">
<path d="M9 11.5H15" stroke="black" stroke-width="1.5" stroke-linecap="round" stroke-linejoin="round"/>
<path d="M9 15.5H12.9999" stroke="black" stroke-width="1.5" stroke-linecap="round" stroke-linejoin="round"/>
<path d="M8 4.24789C4 5.1507 4 8.29884 4 10V16C4 18 4 22 11 22H13C20 22 20 18 20 16V10C20 8.29884 20 5.1507 16 4.24789" stroke="black" stroke-width="1.5" stroke-linecap="round" stroke-linejoin="round"/>
<path d="M16 4C16 5.10222 14.99 6 13.75 6H10.25C9.63 6 9.06997 5.77777 8.65997 5.41333C8.24997 5.04889 8 4.55111 8 4C8 2.89778 9.01 2 10.25 2H13.75C14.37 2 14.93 2.22223 15.34 2.58667C15.75 2.95111 16 3.44889 16 4Z" stroke="black" stroke-width="1.5" stroke-linecap="round" stroke-linejoin="round"/>
</svg>
