<svg width="24" height="24" viewBox="0 0 24 24" fill="none" xmlns="http://www.w3.org/2000/svg">
<path opacity="0.32" d="M2 9V13V13C2 15.2222 2 19.7778 7.55556 19.7778C9.77778 19.7778 9.77778 22 12 22C14.2222 22 14.2222 19.7778 16.4444 19.7778C22 19.7778 22 15.2222 22 13L22 9C22 6.5 22 2 14 2H10C2 2 2 6.5 2 9Z" fill="black"/>
<path fill-rule="evenodd" clip-rule="evenodd" d="M8.25 9C8.25 8.58579 8.58579 8.25 9 8.25H15C15.4142 8.25 15.75 8.58579 15.75 9C15.75 9.41421 15.4142 9.75 15 9.75H9C8.58579 9.75 8.25 9.41421 8.25 9Z" fill="black"/>
<path fill-rule="evenodd" clip-rule="evenodd" d="M8.25 13C8.25 12.5858 8.58579 12.25 9 12.25H15C15.4142 12.25 15.75 12.5858 15.75 13C15.75 13.4142 15.4142 13.75 15 13.75H9C8.58579 13.75 8.25 13.4142 8.25 13Z" fill="black"/>
</svg>
