<svg width="24" height="24" viewBox="0 0 24 24" fill="none" xmlns="http://www.w3.org/2000/svg">
<path fill-rule="evenodd" clip-rule="evenodd" d="M2 11V13C2 16 2 21 9 21H15C22 21 22 16 22 13V11C22 10.6118 22 10.19 21.9848 9.75H2.01517C2 10.19 2 10.6118 2 11ZM2.14071 8.25H21.8593C21.4825 5.65063 20.0967 3 15 3H9C3.90332 3 2.51752 5.65063 2.14071 8.25ZM6.25 17C6.25 16.5858 6.58579 16.25 7 16.25H9C9.41421 16.25 9.75 16.5858 9.75 17C9.75 17.4142 9.41421 17.75 9 17.75H7C6.58579 17.75 6.25 17.4142 6.25 17Z" fill="black"/>
</svg>
