<svg width="24" height="24" viewBox="0 0 24 24" fill="none" xmlns="http://www.w3.org/2000/svg">
<path opacity="0.32" d="M2 12C2 17.5228 6.47715 22 12 22C17.5228 22 22 17.5228 22 12C22 6.47715 17.5228 2 12 2C6.47715 2 2 6.47715 2 12Z" fill="black"/>
<path fill-rule="evenodd" clip-rule="evenodd" d="M9.58908 9.58908C8.3083 10.8699 8.02831 13.9052 8.02831 13.9052C7.85627 15.541 8.459 16.1437 10.0948 15.9717C10.0948 15.9717 13.1301 15.6917 14.4109 14.4109C15.6917 13.1301 15.9717 10.0948 15.9717 10.0948C16.1437 8.45901 15.541 7.85628 13.9052 8.0283C13.9052 8.0283 10.8699 8.3083 9.58908 9.58908ZM11 12C11 12.5523 11.4477 13 12 13C12.5523 13 13 12.5523 13 12V11.999C13 11.4467 12.5523 10.999 12 10.999C11.4477 10.999 11 11.4467 11 11.999V12Z" fill="black"/>
</svg>
