<svg width="24" height="24" viewBox="0 0 24 24" fill="none" xmlns="http://www.w3.org/2000/svg">
<path fill-rule="evenodd" clip-rule="evenodd" d="M8.77425 13.9836C8.69348 14.7517 8.83311 15.0052 8.91395 15.0861C8.99478 15.1669 9.24831 15.3066 10.0164 15.2258L10.1393 15.2124C10.2176 15.2031 10.3331 15.1882 10.4765 15.1664C10.7642 15.1227 11.1595 15.052 11.5904 14.9441C12.4927 14.7181 13.3951 14.3661 13.8806 13.8806C14.3661 13.3951 14.7181 12.4927 14.9441 11.5904C15.052 11.1595 15.1227 10.7642 15.1664 10.4765C15.1882 10.3331 15.2031 10.2176 15.2124 10.1393L15.2257 10.0164C15.3065 9.24832 15.1669 8.99479 15.086 8.91395C15.0052 8.83311 14.7517 8.69342 13.9836 8.77419L13.8607 8.7876C13.7824 8.79691 13.6669 8.81178 13.5235 8.83356C13.2358 8.87726 12.8405 8.94804 12.4096 9.05594C11.5073 9.28188 10.6049 9.63387 10.1194 10.1194C9.63388 10.6049 9.28188 11.5073 9.05594 12.4096C8.94804 12.8405 8.87726 13.2358 8.83356 13.5235C8.81178 13.6669 8.79691 13.7824 8.7876 13.8607L8.77425 13.9836ZM12 13C11.4477 13 11 12.5523 11 12V11.999C11 11.4467 11.4477 10.999 12 10.999C12.5523 10.999 13 11.4467 13 11.999V12C13 12.5523 12.5523 13 12 13Z" fill="black"/>
<path fill-rule="evenodd" clip-rule="evenodd" d="M12 22C6.47715 22 2 17.5228 2 12C2 6.47715 6.47715 2 12 2C17.5228 2 22 6.47715 22 12C22 17.5228 17.5228 22 12 22ZM16.7019 10.3162C16.6909 10.4089 16.6739 10.5405 16.6494 10.7017C16.6006 11.0232 16.5213 11.4667 16.3991 11.9547C16.1649 12.8903 15.7365 14.146 14.9413 14.9412C14.146 15.7365 12.8903 16.1649 11.9547 16.3991C11.4667 16.5213 11.0232 16.6006 10.7017 16.6494C10.5405 16.6739 10.4089 16.6909 10.3162 16.7019L10.1695 16.718C9.30303 16.8086 8.43892 16.7324 7.85329 16.1467C7.26766 15.5611 7.19138 14.697 7.28203 13.8305L7.29808 13.6838C7.30908 13.5911 7.32609 13.4595 7.35057 13.2983C7.39939 12.9768 7.47866 12.5333 7.60086 12.0453C7.83511 11.1097 8.2635 9.85399 9.05875 9.05875C9.854 8.2635 11.1097 7.83511 12.0453 7.60086C12.5333 7.47866 12.9768 7.39939 13.2983 7.35057C13.4595 7.32609 13.5911 7.30908 13.6838 7.29807L13.8305 7.28202C14.697 7.19138 15.5611 7.26767 16.1467 7.85329C16.7324 8.43894 16.8086 9.30305 16.718 10.1696L16.7019 10.3162Z" fill="black"/>
</svg>
