<svg width="24" height="24" viewBox="0 0 24 24" fill="none" xmlns="http://www.w3.org/2000/svg">
<path fill-rule="evenodd" clip-rule="evenodd" d="M13 2H10.8571C4 2 4 6.5 4 10V14C4 17.5 4 22 11 22H13C20 22 20 17.5 20 14V10C20 6.5 20 2 13 2ZM9 11.25C8.58579 11.25 8.25 11.5858 8.25 12C8.25 12.4142 8.58579 12.75 9 12.75H15C15.4142 12.75 15.75 12.4142 15.75 12C15.75 11.5858 15.4142 11.25 15 11.25H9ZM8.25 8C8.25 7.58579 8.58579 7.25 9 7.25H15C15.4142 7.25 15.75 7.58579 15.75 8C15.75 8.41421 15.4142 8.75 15 8.75H9C8.58579 8.75 8.25 8.41421 8.25 8ZM9 15.25C8.58579 15.25 8.25 15.5858 8.25 16C8.25 16.4142 8.58579 16.75 9 16.75H12.9999C13.4141 16.75 13.7499 16.4142 13.7499 16C13.7499 15.5858 13.4141 15.25 12.9999 15.25H9Z" fill="black"/>
</svg>
