<svg width="24" height="24" viewBox="0 0 24 24" fill="none" xmlns="http://www.w3.org/2000/svg">
<path opacity="0.32" d="M10.8571 2H13C20 2 20 6.5 20 10V14C20 17.5 20 22 13 22H11C4 22 4 17.5 4 14V10C4 6.5 4 2 10.8571 2Z" fill="black"/>
<path fill-rule="evenodd" clip-rule="evenodd" d="M8.25 12C8.25 11.5858 8.58579 11.25 9 11.25H15C15.4142 11.25 15.75 11.5858 15.75 12C15.75 12.4142 15.4142 12.75 15 12.75H9C8.58579 12.75 8.25 12.4142 8.25 12Z" fill="black"/>
<path fill-rule="evenodd" clip-rule="evenodd" d="M8.25 8C8.25 7.58579 8.58579 7.25 9 7.25H15C15.4142 7.25 15.75 7.58579 15.75 8C15.75 8.41421 15.4142 8.75 15 8.75H9C8.58579 8.75 8.25 8.41421 8.25 8Z" fill="black"/>
<path fill-rule="evenodd" clip-rule="evenodd" d="M8.25 16C8.25 15.5858 8.58579 15.25 9 15.25H12.9999C13.4141 15.25 13.7499 15.5858 13.7499 16C13.7499 16.4142 13.4141 16.75 12.9999 16.75H9C8.58579 16.75 8.25 16.4142 8.25 16Z" fill="black"/>
</svg>
