<svg width="24" height="24" viewBox="0 0 24 24" fill="none" xmlns="http://www.w3.org/2000/svg">
<path fill-rule="evenodd" clip-rule="evenodd" d="M12 6.99999C11.4477 6.99999 11 6.55228 11 5.99999L11 5.99899C11 5.44671 11.4477 4.99899 12 4.99899C12.5523 4.99899 13 5.44671 13 5.99899V5.99999C13 6.55228 12.5523 6.99999 12 6.99999Z" fill="black"/>
<path fill-rule="evenodd" clip-rule="evenodd" d="M12 13.001C11.4477 13.001 11 12.5533 11 12.001L11 12C11 11.4477 11.4477 11 12 11C12.5523 11 13 11.4477 13 12V12.001C13 12.5533 12.5523 13.001 12 13.001Z" fill="black"/>
<path fill-rule="evenodd" clip-rule="evenodd" d="M12 19.0019C11.4477 19.0019 11 18.5542 11 18.0019L11 18.0009C11 17.4487 11.4477 17.0009 12 17.0009C12.5523 17.0009 13 17.4487 13 18.0009V18.0019C13 18.5542 12.5523 19.0019 12 19.0019Z" fill="black"/>
</svg>
