<svg width="24" height="24" viewBox="0 0 24 24" fill="none" xmlns="http://www.w3.org/2000/svg">
<path opacity="0.32" fill-rule="evenodd" clip-rule="evenodd" d="M1.99702 14.2515C2.41042 14.2255 2.7666 14.5396 2.79256 14.953C2.89223 16.5402 3.22037 18.088 4.20027 19.2409C5.15462 20.3637 6.84984 21.25 9.99998 21.25H14C17.1501 21.25 18.8453 20.3637 19.7997 19.2409C20.7796 18.088 21.1077 16.5402 21.2074 14.953C21.2334 14.5396 21.5895 14.2255 22.0029 14.2515C22.4163 14.2774 22.7304 14.6336 22.7044 15.047C22.5987 16.7308 22.2425 18.683 20.9426 20.2123C19.6172 21.7718 17.4371 22.75 14 22.75H9.99998C6.56283 22.75 4.38279 21.7718 3.05734 20.2123C1.75744 18.683 1.40125 16.7308 1.29551 15.047C1.26955 14.6336 1.58363 14.2774 1.99702 14.2515Z" fill="black"/>
<path fill-rule="evenodd" clip-rule="evenodd" d="M7.53595 12.4108C7.86138 12.1545 8.33293 12.2106 8.5892 12.536L10.8855 15.452L10.8955 15.4659C11.3425 16.0903 11.7389 16.25 12 16.25C12.2611 16.25 12.6574 16.0903 13.1044 15.4659L13.1144 15.452L15.4107 12.536C15.667 12.2106 16.1386 12.1545 16.464 12.4108C16.7894 12.667 16.8455 13.1386 16.5892 13.464L14.3137 16.3536C13.7143 17.1846 12.924 17.75 12 17.75C11.0759 17.75 10.2857 17.1846 9.68626 16.3536L7.41074 13.464C7.15447 13.1386 7.21053 12.667 7.53595 12.4108Z" fill="black"/>
<path fill-rule="evenodd" clip-rule="evenodd" d="M12 1.25C12.4142 1.25 12.75 1.58579 12.75 2L12.75 16C12.75 16.4142 12.4142 16.75 12 16.75C11.5858 16.75 11.25 16.4142 11.25 16L11.25 2C11.25 1.58579 11.5858 1.25 12 1.25Z" fill="black"/>
</svg>
