<svg width="24" height="24" viewBox="0 0 24 24" fill="none" xmlns="http://www.w3.org/2000/svg">
<path fill-rule="evenodd" clip-rule="evenodd" d="M18.6677 11.4071L11.0742 19.0006C9.5555 20.5193 3.98692 23.0503 2.46833 21.5317C0.949737 20.0131 3.48063 14.4445 4.99933 12.9258C4.99933 12.9258 9.55534 8.36959 12.5928 5.3323C12.6249 5.30029 12.6571 5.268 12.6896 5.23548C12.9268 4.99808 13.1767 4.74803 13.4379 4.49648C13.4481 4.508 13.4587 4.51929 13.4697 4.53032L19.4697 10.5303C19.4808 10.5413 19.492 10.5519 19.5035 10.5621C19.2519 10.8234 19.0017 11.0734 18.7642 11.3107C18.7318 11.3431 18.6996 11.3752 18.6677 11.4071ZM20.5047 9.44397L14.5561 3.49534C16.3425 2.04273 18.4918 1.10655 20.6927 3.30735C22.8935 5.50816 21.9573 7.65755 20.5047 9.44397Z" fill="black"/>
<path fill-rule="evenodd" clip-rule="evenodd" d="M13.2501 22C13.2501 21.5858 13.5858 21.25 14.0001 21.25H20.0001C20.4143 21.25 20.7501 21.5858 20.7501 22C20.7501 22.4142 20.4143 22.75 20.0001 22.75H14.0001C13.5858 22.75 13.2501 22.4142 13.2501 22Z" fill="black"/>
</svg>
