<svg width="24" height="24" viewBox="0 0 24 24" fill="none" xmlns="http://www.w3.org/2000/svg">
<path fill-rule="evenodd" clip-rule="evenodd" d="M20.603 8.29541C20.9544 8.07614 21.4171 8.18328 21.6363 8.5347C22.3291 9.64508 22.75 10.848 22.75 12C22.75 14.0093 21.4751 16.1984 19.5757 17.8515C17.6541 19.5239 14.9841 20.75 12 20.75C11.2634 20.75 10.5456 20.6752 9.85357 20.5374C9.44733 20.4565 9.18358 20.0616 9.26446 19.6554C9.34534 19.2491 9.74023 18.9854 10.1465 19.0663C10.7455 19.1855 11.3653 19.25 12 19.25C14.5715 19.25 16.9015 18.1904 18.591 16.72C20.3027 15.2302 21.25 13.4193 21.25 12C21.25 11.2036 20.9533 10.2736 20.3637 9.32872C20.1445 8.9773 20.2516 8.51467 20.603 8.29541Z" fill="black"/>
<path fill-rule="evenodd" clip-rule="evenodd" d="M12 4C6.44444 4 2 8.57143 2 12C2 13.9869 3.49259 16.3576 5.82904 18L9.27511 14.569C9.25061 14.5479 9.22719 14.5249 9.20504 14.5002C8.61169 13.8372 8.25 12.96 8.25 12C8.25 9.92893 9.92893 8.25 12 8.25C12.96 8.25 13.8372 8.61169 14.5002 9.20504C14.5291 9.23095 14.5556 9.25859 14.5795 9.28768L18 5.88215C16.3328 4.75531 14.2582 4 12 4ZM13.5213 10.3413C13.5141 10.3353 13.5069 10.3291 13.4998 10.3227C13.1012 9.96602 12.5767 9.75 12 9.75C10.7574 9.75 9.75 10.7574 9.75 12C9.75 12.5767 9.96602 13.1012 10.3227 13.4998C10.3269 13.5044 10.3309 13.5091 10.3349 13.5138L13.5213 10.3413Z" fill="black"/>
<path fill-rule="evenodd" clip-rule="evenodd" d="M21.5303 2.46967C21.8232 2.76256 21.8232 3.23744 21.5303 3.53033L3.53033 21.5303C3.23744 21.8232 2.76256 21.8232 2.46967 21.5303C2.17678 21.2374 2.17678 20.7626 2.46967 20.4697L20.4697 2.46967C20.7626 2.17678 21.2374 2.17678 21.5303 2.46967Z" fill="black"/>
</svg>
