<svg width="24" height="24" viewBox="0 0 24 24" fill="none" xmlns="http://www.w3.org/2000/svg">
<path opacity="0.32" d="M17.9999 5.88215C16.3327 4.75531 14.2581 4 11.9999 4C6.44432 4 1.99988 8.57143 1.99988 12C1.99988 13.9869 3.49247 16.3576 5.82892 18" stroke="black" stroke-width="1.5" stroke-linecap="round"/>
<path opacity="0.32" d="M10 19.8018C10.6456 19.9304 11.3143 20 12 20C17.5556 20 22 15.4286 22 12C22 11.0258 21.6412 9.95934 21 8.9317" stroke="black" stroke-width="1.5" stroke-linecap="round"/>
<path d="M14 9.76389C13.4692 9.28885 12.7684 9 12 9C10.3431 9 9 10.3431 9 12C9 12.7684 9.28885 13.4692 9.76389 14" stroke="black" stroke-width="1.5" stroke-linecap="round"/>
<path d="M21 3L3 21" stroke="black" stroke-width="1.5" stroke-linecap="round"/>
</svg>
