<svg width="24" height="24" viewBox="0 0 24 24" fill="none" xmlns="http://www.w3.org/2000/svg">
<path fill-rule="evenodd" clip-rule="evenodd" d="M12 2H10.8571C4 2 4 6.5 4 10V14C4 17.5 4 22 11 22H13C20 22 20 17.5 20 14V10C20 7.5 19 6 17.5 4.5C16 3 14.5 2 12 2ZM12.7499 5.98691C12.7427 5.57276 12.4011 5.24289 11.9869 5.25011C11.5728 5.25734 11.2429 5.59894 11.2501 6.01309C11.2654 6.88712 11.3504 8.09054 12.0297 9.07415C12.7514 10.1193 14.0149 10.75 16 10.75C16.4142 10.75 16.75 10.4142 16.75 10C16.75 9.58579 16.4142 9.25 16 9.25C14.3465 9.25 13.6251 8.74465 13.264 8.2218C12.8604 7.63739 12.7648 6.84081 12.7499 5.98691Z" fill="black"/>
</svg>
