<svg width="24" height="24" viewBox="0 0 24 24" fill="none" xmlns="http://www.w3.org/2000/svg">
<path opacity="0.32" d="M10.8571 2H12C14.5 2 16 3 17.5 4.5C19 6 20 7.5 20 10V14C20 17.5 20 22 13 22H11C4 22 4 17.5 4 14V10C4 6.5 4 2 10.8571 2Z" fill="black"/>
<path fill-rule="evenodd" clip-rule="evenodd" d="M11.9869 5.25012C12.4011 5.24289 12.7427 5.57276 12.7499 5.98691C12.7648 6.84081 12.8604 7.63739 13.264 8.2218C13.6251 8.74465 14.3465 9.25 16 9.25C16.4142 9.25 16.75 9.58579 16.75 10C16.75 10.4142 16.4142 10.75 16 10.75C14.0149 10.75 12.7514 10.1193 12.0297 9.07416C11.3505 8.09055 11.2654 6.88713 11.2501 6.01309C11.2429 5.59894 11.5728 5.25734 11.9869 5.25012Z" fill="black"/>
</svg>
