<svg width="24" height="24" viewBox="0 0 24 24" fill="none" xmlns="http://www.w3.org/2000/svg">
<path fill-rule="evenodd" clip-rule="evenodd" d="M2 14V10C2 6.62502 2 3 9.00006 3C11.6393 3 12.6068 4.11456 13.5204 5.167C14.3375 6.10835 15.1115 7 17 7C22.0101 7 22.0053 9.81915 22.0003 12.7246C22.0002 12.8163 22 12.9082 22 13V14C22 17 22 21 15 21H9C2.33333 21 2 17 2 14ZM9 16.25C8.58579 16.25 8.25 16.5858 8.25 17C8.25 17.4142 8.58579 17.75 9 17.75H15C15.4142 17.75 15.75 17.4142 15.75 17C15.75 16.5858 15.4142 16.25 15 16.25H9Z" fill="black"/>
</svg>
