<svg width="24" height="24" viewBox="0 0 24 24" fill="none" xmlns="http://www.w3.org/2000/svg">
<path d="M2 17.4286V18.5714C2 19.7143 2 22 5.42857 22H6.57143C10 22 10 19.7143 10 18.5714V17.4286C10 16.2857 10 14 6.57143 14H5.42857C2 14 2 16.2857 2 17.4286Z" stroke="black" stroke-width="1.5" stroke-linecap="round"/>
<path opacity="0.32" d="M2 5.42857V6.57143C2 7.71429 2 10 5.42857 10H6.57143C10 10 10 7.71429 10 6.57143V5.42857C10 4.28571 10 2 6.57143 2H5.42857C2 2 2 4.28571 2 5.42857Z" stroke="black" stroke-width="1.5" stroke-linecap="round"/>
<path opacity="0.32" d="M14 17.4286V18.5714C14 19.7143 14 22 17.4286 22H18.5714C22 22 22 19.7143 22 18.5714V17.4286C22 16.2857 22 14 18.5714 14H17.4286C14 14 14 16.2857 14 17.4286Z" stroke="black" stroke-width="1.5" stroke-linecap="round"/>
<path d="M14 5.42857V6.57143C14 7.71429 14 10 17.4286 10H18.5714C22 10 22 7.71429 22 6.57143V5.42857C22 4.28571 22 2 18.5714 2H17.4286C14 2 14 4.28571 14 5.42857Z" stroke="black" stroke-width="1.5" stroke-linecap="round"/>
</svg>
