<svg width="24" height="24" viewBox="0 0 24 24" fill="none" xmlns="http://www.w3.org/2000/svg">
<path fill-rule="evenodd" clip-rule="evenodd" d="M4 15L4 13.25H20L20 15C20 17.5 20 22 14 22H9.99995C4 22 4 17.5 4 15ZM9 17.25C8.58578 17.25 8.25 17.5858 8.25 18C8.25 18.4142 8.58578 18.75 9 18.75H15C15.4142 18.75 15.75 18.4142 15.75 18C15.75 17.5858 15.4142 17.25 15 17.25H9Z" fill="black"/>
<path d="M16.2857 4.74376L22 12H2L7.71429 4.74376C10.3333 1.08541 13.6667 1.08541 16.2857 4.74376Z" fill="black"/>
</svg>
