<svg width="24" height="24" viewBox="0 0 24 24" fill="none" xmlns="http://www.w3.org/2000/svg">
<path fill-rule="evenodd" clip-rule="evenodd" d="M2 13V11C2 7.5 2 2 10 2H14C22 2 22 7.5 22 11L22 13C22 13.3821 22 13.788 21.9896 14.208C19.4627 13.4155 17.1759 13.5665 15.3569 14.1156C13.5208 14.6698 12.1169 15.6446 11.4284 16.5135C10.6682 16.01 9.86954 15.6064 9.06534 15.2884C6.47043 14.262 3.77878 14.1074 2.01435 14.351C2 13.8801 2 13.4253 2 13ZM12.6235 17.421C13.8913 18.5224 14.9795 19.9684 15.7 21.8417C15.708 21.8625 15.715 21.8833 15.721 21.9042C20.3729 21.3519 21.5784 18.5027 21.8907 15.7502L21.7845 15.7184L21.7726 15.7148L21.7609 15.7109C19.4541 14.935 17.3962 15.0669 15.7903 15.5516C14.197 16.0326 13.0909 16.8466 12.6235 17.421ZM2.12112 15.8512C2.48959 18.8846 3.97907 22 10 22H14C14.0486 22 14.0969 21.9998 14.1449 21.9994C12.9482 19.2198 10.7911 17.584 8.51365 16.6832C6.11909 15.7361 3.63337 15.6215 2.12112 15.8512ZM8.5 10.25C7.5335 10.25 6.75 9.4665 6.75 8.5C6.75 7.5335 7.5335 6.75 8.5 6.75C9.4665 6.75 10.25 7.5335 10.25 8.5C10.25 9.4665 9.4665 10.25 8.5 10.25ZM5.25 8.5C5.25 10.2949 6.70507 11.75 8.5 11.75C10.2949 11.75 11.75 10.2949 11.75 8.5C11.75 6.70507 10.2949 5.25 8.5 5.25C6.70507 5.25 5.25 6.70507 5.25 8.5Z" fill="black"/>
</svg>
