<svg width="24" height="24" viewBox="0 0 24 24" fill="none" xmlns="http://www.w3.org/2000/svg">
<path d="M2 11V13C2 16.5 2 22 10 22H14C22 22 22 16.5 22 13L22 11C22 7.5 22 2 14 2H10C2 2 2 7.5 2 11Z" stroke="black" stroke-width="1.5" stroke-linecap="round"/>
<path d="M8.5 6C7.11929 6 6 7.11929 6 8.5C6 9.88071 7.11929 11 8.5 11C9.88071 11 11 9.88071 11 8.5C11 7.11929 9.88071 6 8.5 6Z" stroke="black" stroke-width="1.5" stroke-linecap="round"/>
<path d="M14.7441 21.5C12.1734 15.8447 5.84113 14.7309 2.5 15.0495" stroke="black" stroke-width="1.5" stroke-linecap="round"/>
<path d="M12 17C13.0905 15.5979 16.8026 13.4904 21.5 14.8439" stroke="black" stroke-width="1.5" stroke-linecap="round"/>
</svg>
