<svg width="24" height="24" viewBox="0 0 24 24" fill="none" xmlns="http://www.w3.org/2000/svg">
<path opacity="0.32" fill-rule="evenodd" clip-rule="evenodd" d="M2 13V11C2 7.5 2 2 10 2H14C22 2 22 7.5 22 11L22 13C22 13.3948 22 13.8151 21.9885 14.25H18.5C16.807 14.25 15.6702 14.8259 14.7096 15.3382L14.6213 15.3854C13.7027 15.8758 13.0018 16.25 12 16.25C10.9982 16.25 10.2973 15.8758 9.37874 15.3854L9.29044 15.3382C8.32983 14.8259 7.19298 14.25 5.5 14.25H2.01148C2 13.8151 2 13.3948 2 13Z" fill="black"/>
<path fill-rule="evenodd" clip-rule="evenodd" d="M8.25 7C8.25 6.58579 8.58579 6.25 9 6.25H15C15.4142 6.25 15.75 6.58579 15.75 7C15.75 7.41421 15.4142 7.75 15 7.75H9C8.58579 7.75 8.25 7.41421 8.25 7Z" fill="black"/>
<path fill-rule="evenodd" clip-rule="evenodd" d="M9.25 11C9.25 10.5858 9.58579 10.25 10 10.25H14C14.4142 10.25 14.75 10.5858 14.75 11C14.75 11.4142 14.4142 11.75 14 11.75H10C9.58579 11.75 9.25 11.4142 9.25 11Z" fill="black"/>
<path fill-rule="evenodd" clip-rule="evenodd" d="M2.10925 15.75C2.45704 18.8149 3.91213 22 10 22H14C20.0879 22 21.543 18.8149 21.8908 15.75H18.5C17.193 15.75 16.3298 16.1741 15.4155 16.6618L15.264 16.7429C14.3879 17.2126 13.3858 17.75 12 17.75C10.6142 17.75 9.61215 17.2126 8.73606 16.7429L8.58458 16.6618C7.67019 16.1741 6.80704 15.75 5.50002 15.75H2.10925Z" fill="black"/>
</svg>
