<svg width="24" height="24" viewBox="0 0 24 24" fill="none" xmlns="http://www.w3.org/2000/svg">
<path d="M2 11V13C2 16.5 2 22 10 22H14C22 22 22 16.5 22 13L22 11C22 7.5 22 2 14 2H10C2 2 2 7.5 2 11Z" stroke="black" stroke-width="1.5" stroke-linecap="round"/>
<path d="M2.5 15C4.61765 15 3.5 15 5.5 15C8.5 15 9.5 17 12 17C14.5 17 15.5 15 18.5 15C21.5 15 21.5 15 21.5 15" stroke="black" stroke-width="1.5" stroke-linecap="round"/>
<path d="M9 7H15" stroke="black" stroke-width="1.5" stroke-linecap="round"/>
<path d="M10 11H14" stroke="black" stroke-width="1.5" stroke-linecap="round"/>
</svg>
