<svg width="24" height="24" viewBox="0 0 24 24" fill="none" xmlns="http://www.w3.org/2000/svg">
<path fill-rule="evenodd" clip-rule="evenodd" d="M2 12C2 17.5228 6.47715 22 12 22C17.5228 22 22 17.5228 22 12C22 6.47715 17.5228 2 12 2C6.47715 2 2 6.47715 2 12ZM12 11.75C12.4142 11.75 12.75 12.0858 12.75 12.5V15.5C12.75 15.9142 12.4142 16.25 12 16.25C11.5858 16.25 11.25 15.9142 11.25 15.5V12.5C11.25 12.0858 11.5858 11.75 12 11.75ZM11 8.5C11 9.05228 11.4477 9.5 12 9.5C12.5523 9.5 13 9.05228 13 8.5V8.499C13 7.94672 12.5523 7.499 12 7.499C11.4477 7.499 11 7.94672 11 8.499V8.5Z" fill="black"/>
</svg>
