<svg width="24" height="24" viewBox="0 0 24 24" fill="none" xmlns="http://www.w3.org/2000/svg">
<path fill-rule="evenodd" clip-rule="evenodd" d="M12 22C14.25 22 21 17.5556 21 10.8889C21 5.33333 16.5 2 12 2C7.5 2 3 5.33333 3 10.8889C3 17.5556 9.75 22 12 22ZM8.75 11C8.75 9.20507 10.2051 7.75 12 7.75C13.7949 7.75 15.25 9.20507 15.25 11C15.25 12.7949 13.7949 14.25 12 14.25C10.2051 14.25 8.75 12.7949 8.75 11ZM12 6.25C9.37665 6.25 7.25 8.37665 7.25 11C7.25 13.6234 9.37665 15.75 12 15.75C14.6234 15.75 16.75 13.6234 16.75 11C16.75 8.37665 14.6234 6.25 12 6.25Z" fill="black"/>
</svg>
