<svg width="24" height="24" viewBox="0 0 24 24" fill="none" xmlns="http://www.w3.org/2000/svg">
<path opacity="0.32" d="M3.57001 14.3214L3.57001 16.4286C3.57001 18.5357 3.57001 22.75 9.89144 22.75H14.1057C20.4272 22.75 20.4272 18.5357 20.4272 16.4286L20.4272 14.3214C20.4272 12.2143 20.4272 8 14.1057 8H9.89144C3.57001 8 3.57001 12.2143 3.57001 14.3214Z" fill="black"/>
<path d="M12 12C10.8954 12 10 12.8954 10 14C10 15.1046 10.8954 16 12 16C13.1046 16 14 15.1046 14 14C14 12.8954 13.1046 12 12 12Z" fill="black"/>
<path fill-rule="evenodd" clip-rule="evenodd" d="M12 13.25C12.4142 13.25 12.75 13.5858 12.75 14L12.75 18C12.75 18.4142 12.4142 18.75 12 18.75C11.5858 18.75 11.25 18.4142 11.25 18L11.25 14C11.25 13.5858 11.5858 13.25 12 13.25Z" fill="black"/>
<path fill-rule="evenodd" clip-rule="evenodd" d="M8.71783 3.84283C8.0786 4.48205 7.75 5.39746 7.75 6.49999V9C7.75 9.41421 7.41421 9.75 7 9.75C6.58579 9.75 6.25 9.41421 6.25 9V6.49999C6.25 5.10253 6.6714 3.76794 7.65717 2.78217C8.64552 1.79382 10.1071 1.25 12 1.25C13.8929 1.25 15.3545 1.79382 16.3428 2.78217C17.3286 3.76794 17.75 5.10253 17.75 6.49999V9C17.75 9.41421 17.4142 9.75 17 9.75C16.5858 9.75 16.25 9.41421 16.25 9V6.49999C16.25 5.39746 15.9214 4.48205 15.2822 3.84283C14.6455 3.20618 13.6071 2.75 12 2.75C10.3929 2.75 9.35448 3.20618 8.71783 3.84283Z" fill="black"/>
</svg>
