<svg width="24" height="24" viewBox="0 0 24 24" fill="none" xmlns="http://www.w3.org/2000/svg">
<path d="M4 14V16C4 18 4 22 10 22H14C20 22 20 18 20 16L20 14C20 12 20 8 14 8H10C4 8 4 12 4 14Z" stroke="black" stroke-width="1.5" stroke-linecap="round"/>
<path d="M7 8V6.49999C7 4 8.5 2 12 2C15.5 2 17 4 17 6.49999V8" stroke="black" stroke-width="1.5" stroke-linecap="round"/>
<path d="M12 16V18M12 16C10.8954 16 10 15.1046 10 14C10 12.8954 10.8954 12 12 12C13.1046 12 14 12.8954 14 14C14 15.1046 13.1046 16 12 16Z" stroke="black" stroke-width="1.5" stroke-linecap="round"/>
</svg>
