<svg width="24" height="24" viewBox="0 0 24 24" fill="none" xmlns="http://www.w3.org/2000/svg">
<path fill-rule="evenodd" clip-rule="evenodd" d="M3.57001 16.4286L3.57001 14.3214C3.57001 12.2143 3.57001 8 9.89144 8H14.1057C20.4272 8 20.4272 12.2143 20.4272 14.3214L20.4272 16.4286C20.4272 18.5357 20.4272 22.75 14.1057 22.75H9.89144C3.57001 22.75 3.57001 18.5357 3.57001 16.4286ZM12 11.25C10.4812 11.25 9.25 12.4812 9.25 14C9.25 15.2588 10.0957 16.32 11.25 16.6465V18C11.25 18.4142 11.5858 18.75 12 18.75C12.4142 18.75 12.75 18.4142 12.75 18V16.6465C13.9043 16.32 14.75 15.2588 14.75 14C14.75 12.4812 13.5188 11.25 12 11.25ZM10.75 14C10.75 13.3096 11.3096 12.75 12 12.75C12.6904 12.75 13.25 13.3096 13.25 14C13.25 14.6904 12.6904 15.25 12 15.25C11.3096 15.25 10.75 14.6904 10.75 14Z" fill="black"/>
<path fill-rule="evenodd" clip-rule="evenodd" d="M8.71783 3.84283C8.0786 4.48205 7.75 5.39746 7.75 6.49999V9C7.75 9.41421 7.41421 9.75 7 9.75C6.58579 9.75 6.25 9.41421 6.25 9V6.49999C6.25 5.10253 6.6714 3.76794 7.65717 2.78217C8.64552 1.79382 10.1071 1.25 12 1.25C13.8929 1.25 15.3545 1.79382 16.3428 2.78217C17.3286 3.76794 17.75 5.10253 17.75 6.49999V9C17.75 9.41421 17.4142 9.75 17 9.75C16.5858 9.75 16.25 9.41421 16.25 9V6.49999C16.25 5.39746 15.9214 4.48205 15.2822 3.84283C14.6455 3.20618 13.6071 2.75 12 2.75C10.3929 2.75 9.35448 3.20618 8.71783 3.84283Z" fill="black"/>
</svg>
