<svg width="24" height="24" viewBox="0 0 24 24" fill="none" xmlns="http://www.w3.org/2000/svg">
<path opacity="0.32" d="M2 11V13C2 16 2 21 9 21H15C22 21 22 16 22 13V11C22 8 22 3 15 3H9C2 3 2 8 2 11Z" fill="black"/>
<path fill-rule="evenodd" clip-rule="evenodd" d="M5.39743 7.55343C5.64406 7.22065 6.11377 7.15081 6.44656 7.39744C6.49012 7.42973 6.53347 7.46187 6.57661 7.49385C7.61436 8.26323 8.53248 8.94391 9.42533 9.445C10.3481 9.96291 11.1791 10.25 12 10.25C12.8209 10.25 13.6518 9.96291 14.5746 9.445C15.4675 8.94391 16.3856 8.26323 17.4234 7.49386C17.4665 7.46187 17.5099 7.42973 17.5534 7.39744C17.8862 7.15081 18.3559 7.22065 18.6025 7.55343C18.8492 7.88622 18.7793 8.35593 18.4466 8.60256C18.3922 8.64282 18.338 8.68307 18.2837 8.72328C17.2761 9.47056 16.2873 10.2039 15.3088 10.7531C14.2704 11.3358 13.1791 11.75 12 11.75C10.8209 11.75 9.72954 11.3358 8.69121 10.7531C7.71268 10.2039 6.72386 9.47056 5.71623 8.72328C5.66201 8.68307 5.60774 8.64282 5.55342 8.60256C5.22063 8.35593 5.1508 7.88622 5.39743 7.55343Z" fill="black"/>
</svg>
