<svg width="24" height="24" viewBox="0 0 24 24" fill="none" xmlns="http://www.w3.org/2000/svg">
<path fill-rule="evenodd" clip-rule="evenodd" d="M2 13V11C2 8 2 3 9 3H15C22 3 22 8 22 11V13C22 16 22 21 15 21H9C2 21 2 16 2 13ZM6.44657 7.39744C6.11379 7.15081 5.64408 7.22065 5.39744 7.55343C5.15081 7.88621 5.22065 8.35593 5.55343 8.60256L5.71624 8.72328C6.72387 9.47056 7.7127 10.2039 8.69122 10.7531C9.72955 11.3358 10.8209 11.75 12 11.75C13.1791 11.75 14.2704 11.3358 15.3088 10.7531C16.2873 10.2039 17.2761 9.47057 18.2837 8.72328L18.2838 8.72328L18.4466 8.60256C18.7794 8.35593 18.8492 7.88621 18.6026 7.55343C18.3559 7.22065 17.8862 7.15081 17.5534 7.39744L17.4234 7.49386C16.3856 8.26323 15.4675 8.94391 14.5747 9.445C13.6518 9.9629 12.8209 10.25 12 10.25C11.1791 10.25 10.3482 9.9629 9.42535 9.445C8.5325 8.94391 7.61437 8.26322 6.57662 7.49385L6.44657 7.39744Z" fill="black"/>
</svg>
