<svg width="24" height="24" viewBox="0 0 24 24" fill="none" xmlns="http://www.w3.org/2000/svg">
<path d="M7 7V12C7 12 7.00015 17 12 17C16.9998 17 17 12 17 12V7C17 7 17 2 12 2C6.99996 2 7 7 7 7Z" stroke="black" stroke-width="1.5" stroke-linecap="round" stroke-linejoin="round"/>
<path opacity="0.32" d="M15 6.5H16.5" stroke="black" stroke-width="1.5" stroke-linecap="round"/>
<path opacity="0.32" d="M7.5 6.5H9" stroke="black" stroke-width="1.5" stroke-linecap="round"/>
<path opacity="0.32" d="M15 9.5H17" stroke="black" stroke-width="1.5" stroke-linecap="round"/>
<path opacity="0.32" d="M7 9.5H9" stroke="black" stroke-width="1.5" stroke-linecap="round"/>
<path opacity="0.32" d="M15 12.5H16.5" stroke="black" stroke-width="1.5" stroke-linecap="round"/>
<path opacity="0.32" d="M7.5 12.5H9" stroke="black" stroke-width="1.5" stroke-linecap="round"/>
<path opacity="0.32" d="M12 22L12 20" stroke="black" stroke-width="1.5" stroke-linecap="round" stroke-linejoin="round"/>
<path d="M4 13C4 16.5 6.66667 20 12 20C17.3333 20 20 16.5 20 13" stroke="black" stroke-width="1.5" stroke-linecap="round" stroke-linejoin="round"/>
</svg>
