<svg width="24" height="24" viewBox="0 0 24 24" fill="none" xmlns="http://www.w3.org/2000/svg">
<path fill-rule="evenodd" clip-rule="evenodd" d="M12 19.25C12.4142 19.25 12.75 19.5858 12.75 20L12.75 22C12.75 22.4142 12.4142 22.75 12 22.75C11.5858 22.75 11.25 22.4142 11.25 22L11.25 20C11.25 19.5858 11.5858 19.25 12 19.25Z" fill="black"/>
<path fill-rule="evenodd" clip-rule="evenodd" d="M4 12.25C4.41421 12.25 4.75 12.5858 4.75 13C4.75 14.5608 5.34416 16.1145 6.52614 17.278C7.70184 18.4353 9.50447 19.25 12 19.25C14.4955 19.25 16.2982 18.4353 17.4739 17.278C18.6558 16.1145 19.25 14.5608 19.25 13C19.25 12.5858 19.5858 12.25 20 12.25C20.4142 12.25 20.75 12.5858 20.75 13C20.75 14.9392 20.0108 16.8855 18.5261 18.347C17.0352 19.8147 14.8378 20.75 12 20.75C9.1622 20.75 6.96482 19.8147 5.47386 18.347C3.98918 16.8855 3.25 14.9392 3.25 13C3.25 12.5858 3.58579 12.25 4 12.25Z" fill="black"/>
<path opacity="0.32" fill-rule="evenodd" clip-rule="evenodd" d="M7 8.75V7.25H9C9.41421 7.25 9.75 6.91421 9.75 6.5C9.75 6.08579 9.41421 5.75 9 5.75H7.17378C7.53251 4.26901 8.63172 2 12 2C15.3682 2 16.4675 4.26901 16.8262 5.75H15C14.5858 5.75 14.25 6.08579 14.25 6.5C14.25 6.91421 14.5858 7.25 15 7.25H17V8.75H15C14.5858 8.75 14.25 9.08579 14.25 9.5C14.25 9.91421 14.5858 10.25 15 10.25H17V12H15C14.5858 12 14.25 12.3358 14.25 12.75C14.25 13.1642 14.5858 13.5 15 13.5H16.7603C16.3401 14.9728 15.1836 17 12 17C8.63185 17 7.53259 14.731 7.17382 13.25H9C9.41421 13.25 9.75 12.9142 9.75 12.5C9.75 12.0858 9.41421 11.75 9 11.75H7V10.25H9C9.41421 10.25 9.75 9.91421 9.75 9.5C9.75 9.08579 9.41421 8.75 9 8.75H7Z" fill="black"/>
</svg>
