<svg width="24" height="24" viewBox="0 0 24 24" fill="none" xmlns="http://www.w3.org/2000/svg">
<path fill-rule="evenodd" clip-rule="evenodd" d="M3.50452 5.44386C4.17564 4.73111 5.15905 4.07495 6.26033 3.53084L6.86413 3.89312L6.87621 3.90037L6.88856 3.90716L15.992 8.91406C14.6569 9.68604 13.2462 10.25 12 10.25C10.2456 10.25 8.16525 9.13231 6.4286 7.89001C5.58132 7.28391 4.85383 6.67624 4.33791 6.21962C4.08037 5.99169 3.87662 5.80235 3.7382 5.67093C3.66901 5.60524 3.61621 5.5541 3.58126 5.51991L3.5424 5.48169L3.53336 5.4727L3.5315 5.47084L3.53033 5.46967L3.50452 5.44386ZM11.25 11.7021C9.21102 11.4483 7.12126 10.2298 5.55588 9.10999C4.65574 8.46609 3.88712 7.82376 3.34377 7.34288C3.07168 7.10206 2.85501 6.90077 2.70542 6.75876L2.68141 6.73593C1.77095 9.18884 1.73558 15.2744 2.80175 17.5556C3.72082 19.5975 8.18433 21.6395 11.25 21.9573V11.7021ZM12.75 21.9615V11.7021C14.0272 11.5432 15.3243 11.0056 16.5 10.351V12.25C16.5 12.6642 16.8358 13 17.25 13C17.6642 13 18 12.6642 18 12.25V9.42019C18.1522 9.31651 18.3004 9.21284 18.4441 9.10999C19.3443 8.46609 20.1129 7.82376 20.6562 7.34288C20.9283 7.10206 21.145 6.90077 21.2946 6.75876L21.3542 6.70191C22.2488 9.14194 22.214 15.4135 21.2498 17.5556C20.3266 19.6067 15.7829 21.6579 12.75 21.9615ZM7.98971 2.80089L17.4278 7.99186C17.4759 7.95801 17.5238 7.92406 17.5714 7.89001C18.4187 7.28391 19.1462 6.67624 19.6621 6.21962C19.9196 5.99169 20.1234 5.80235 20.2618 5.67093C20.331 5.60524 20.3838 5.5541 20.4187 5.51991L20.4576 5.48169L20.4666 5.4727L20.4685 5.47084L20.4697 5.46967L20.5112 5.42812C18.6886 3.59176 14.5332 2 11.9623 2C10.8349 2 9.39792 2.29915 7.98971 2.80089ZM4.46916 12.3784C4.71864 12.0477 5.18893 11.9819 5.51959 12.2314C6.04431 12.6273 6.42654 12.8688 6.79558 13.0401C7.16113 13.2098 7.54352 13.3245 8.08349 13.4358C8.48918 13.5194 8.75027 13.916 8.66665 14.3217C8.58303 14.7274 8.18637 14.9885 7.78069 14.9049C7.17575 14.7802 6.67155 14.6363 6.16398 14.4007C5.6599 14.1667 5.18248 13.8561 4.61615 13.4288C4.2855 13.1793 4.21969 12.709 4.46916 12.3784Z" fill="black"/>
</svg>
