<svg width="24" height="24" viewBox="0 0 24 24" fill="none" xmlns="http://www.w3.org/2000/svg">
<path opacity="0.32" d="M7.41792 2.45638C6.23934 1.74428 4.13297 1.8246 2.93396 2.98803C1.71541 4.14611 1.77795 6.47107 2.6109 8.97114C4 14 10 20 15.0248 21.4159C17.516 22.2487 19.8145 22.2334 20.9891 21.0947C22.2037 19.9405 22.2495 17.8026 21.5211 16.595C20.6629 15.286 18.6204 14.5249 16.7958 14.4598C15.0794 14.4598 14.8854 15.3632 13.0191 15.3255C11.2887 15.3511 8.65048 12.7266 8.6867 10.9808C8.65048 9.1108 9.5523 8.91346 9.5523 7.18944C9.5523 5.43841 8.56414 3.14893 7.41792 2.45638Z" fill="black"/>
</svg>
