<svg width="24" height="24" viewBox="0 0 24 24" fill="none" xmlns="http://www.w3.org/2000/svg">
<path d="M19.6611 5.25C20.5382 5.25 22 4.75 22 3.25C22 1.75 20.5382 1.25 19.6611 1.25H4.33886C3.46179 1.25 2 1.75 2 3.25C2 4.75 3.46179 5.25 4.33887 5.25H19.6611Z" fill="black"/>
<path fill-rule="evenodd" clip-rule="evenodd" d="M12 17.25C12.4142 17.25 12.75 17.5858 12.75 18V22C12.75 22.4142 12.4142 22.75 12 22.75C11.5858 22.75 11.25 22.4142 11.25 22V18C11.25 17.5858 11.5858 17.25 12 17.25Z" fill="black"/>
<path fill-rule="evenodd" clip-rule="evenodd" d="M3.44 11.5814V6.5H20.5563V11.5814C20.5563 13.7209 20.5563 18 14.1377 18H9.85861C3.44 18 3.44 13.7209 3.44 11.5814ZM9.59117 12.6512C9.59117 12.2081 9.23195 11.8488 8.78884 11.8488C8.34573 11.8488 7.98651 12.2081 7.98651 12.6512V13.7209C7.98651 14.164 8.34573 14.5233 8.78884 14.5233C9.23195 14.5233 9.59117 14.164 9.59117 13.7209V12.6512ZM11.9981 9.7093C12.4413 9.7093 12.8005 10.0685 12.8005 10.5116V13.7209C12.8005 14.164 12.4413 14.5233 11.9981 14.5233C11.555 14.5233 11.1958 14.164 11.1958 13.7209V10.5116C11.1958 10.0685 11.555 9.7093 11.9981 9.7093ZM16.0098 9.44186C16.0098 8.99875 15.6506 8.63953 15.2074 8.63953C14.7643 8.63953 14.4051 8.99875 14.4051 9.44186V13.7209C14.4051 14.164 14.7643 14.5233 15.2074 14.5233C15.6506 14.5233 16.0098 14.164 16.0098 13.7209V9.44186Z" fill="black"/>
<path fill-rule="evenodd" clip-rule="evenodd" d="M12.6241 19.584C12.8538 19.9286 12.7607 20.3943 12.416 20.624L9.41604 22.624C9.0714 22.8538 8.60575 22.7607 8.37598 22.416C8.14622 22.0714 8.23935 21.6057 8.58399 21.376L11.584 19.376C11.9286 19.1462 12.3943 19.2393 12.6241 19.584Z" fill="black"/>
<path fill-rule="evenodd" clip-rule="evenodd" d="M11.376 19.584C11.6057 19.2393 12.0714 19.1462 12.416 19.376L15.416 21.376C15.7607 21.6057 15.8538 22.0714 15.6241 22.416C15.3943 22.7607 14.9286 22.8538 14.584 22.624L11.584 20.624C11.2393 20.3943 11.1462 19.9286 11.376 19.584Z" fill="black"/>
</svg>
