<svg width="24" height="24" viewBox="0 0 24 24" fill="none" xmlns="http://www.w3.org/2000/svg">
<path d="M19.6611 2L19.6611 1.25H19.6611V2ZM4.33886 2L4.33886 1.25L4.33886 1.25L4.33886 2ZM19.6611 6.75C20.2165 6.75 20.9515 6.59698 21.5716 6.1891C22.2237 5.76019 22.75 5.04047 22.75 4H21.25C21.25 4.45953 21.0454 4.73981 20.7473 4.9359C20.4172 5.15302 19.9828 5.25 19.6611 5.25V6.75ZM19.6611 2.75C19.9828 2.75 20.4172 2.84698 20.7473 3.0641C21.0454 3.26019 21.25 3.54047 21.25 4H22.75C22.75 2.95953 22.2237 2.23981 21.5716 1.81091C20.9515 1.40303 20.2165 1.25 19.6611 1.25L19.6611 2.75ZM4.33887 5.25C4.01718 5.25 3.58277 5.15302 3.25269 4.93591C2.95458 4.73981 2.75 4.45953 2.75 4L1.25 4C1.25 5.04047 1.77632 5.76019 2.42837 6.1891C3.04845 6.59698 3.78348 6.75 4.33887 6.75V5.25ZM4.33886 1.25C3.78348 1.25 3.04845 1.40302 2.42837 1.8109C1.77632 2.23981 1.25 2.95953 1.25 4L2.75 4C2.75 3.54047 2.95458 3.26019 3.25269 3.0641C3.58277 2.84698 4.01718 2.75 4.33886 2.75L4.33886 1.25ZM19.6611 5.25H4.33887V6.75H19.6611V5.25ZM4.33886 2.75H19.6611V1.25H4.33886V2.75Z" fill="black"/>
<path d="M12 18V22" stroke="black" stroke-width="1.5" stroke-linecap="round"/>
<path d="M4 6V12C4 14 4 18 10 18C12.0148 18 11.6704 18 14 18C20 18 20 14 20 12V6" stroke="black" stroke-width="1.5" stroke-linecap="round" stroke-linejoin="round"/>
<path d="M9 13L9 14" stroke="black" stroke-width="1.5" stroke-linecap="round"/>
<path d="M12 11L12 14" stroke="black" stroke-width="1.5" stroke-linecap="round"/>
<path d="M15 10L15 14" stroke="black" stroke-width="1.5" stroke-linecap="round"/>
<path d="M12 20L9 22" stroke="black" stroke-width="1.5" stroke-linecap="round"/>
<path d="M12 20L15 22" stroke="black" stroke-width="1.5" stroke-linecap="round"/>
</svg>
