<svg width="24" height="24" viewBox="0 0 24 24" fill="none" xmlns="http://www.w3.org/2000/svg">
<path d="M19.6611 5.25C20.5382 5.25 22 4.75 22 3.25C22 1.75 20.5382 1.25 19.6611 1.25H4.33886C3.46179 1.25 2 1.75 2 3.25C2 4.75 3.46179 5.25 4.33887 5.25H19.6611Z" fill="black"/>
<path fill-rule="evenodd" clip-rule="evenodd" d="M12 17.25C12.4142 17.25 12.75 17.5858 12.75 18V22C12.75 22.4142 12.4142 22.75 12 22.75C11.5858 22.75 11.25 22.4142 11.25 22V18C11.25 17.5858 11.5858 17.25 12 17.25Z" fill="black"/>
<path opacity="0.32" d="M3.44 6.5V11.5814C3.44 13.7209 3.44 18 9.85861 18H14.1377C20.5563 18 20.5563 13.7209 20.5563 11.5814V6.5H3.44Z" fill="black"/>
<path fill-rule="evenodd" clip-rule="evenodd" d="M9 12.25C9.41421 12.25 9.75 12.5858 9.75 13L9.75 14C9.75 14.4142 9.41421 14.75 9 14.75C8.58579 14.75 8.25 14.4142 8.25 14L8.25 13C8.25 12.5858 8.58579 12.25 9 12.25Z" fill="black"/>
<path fill-rule="evenodd" clip-rule="evenodd" d="M12 10.25C12.4142 10.25 12.75 10.5858 12.75 11L12.75 14C12.75 14.4142 12.4142 14.75 12 14.75C11.5858 14.75 11.25 14.4142 11.25 14L11.25 11C11.25 10.5858 11.5858 10.25 12 10.25Z" fill="black"/>
<path fill-rule="evenodd" clip-rule="evenodd" d="M15 9.25C15.4142 9.25 15.75 9.58579 15.75 10L15.75 14C15.75 14.4142 15.4142 14.75 15 14.75C14.5858 14.75 14.25 14.4142 14.25 14L14.25 10C14.25 9.58579 14.5858 9.25 15 9.25Z" fill="black"/>
<path fill-rule="evenodd" clip-rule="evenodd" d="M12.6241 19.584C12.8538 19.9286 12.7607 20.3943 12.416 20.624L9.41604 22.624C9.0714 22.8538 8.60575 22.7607 8.37598 22.416C8.14622 22.0714 8.23935 21.6057 8.58399 21.376L11.584 19.376C11.9286 19.1462 12.3943 19.2393 12.6241 19.584Z" fill="black"/>
<path fill-rule="evenodd" clip-rule="evenodd" d="M11.376 19.584C11.6057 19.2393 12.0714 19.1462 12.416 19.376L15.416 21.376C15.7607 21.6057 15.8538 22.0714 15.6241 22.416C15.3943 22.7607 14.9286 22.8538 14.584 22.624L11.584 20.624C11.2393 20.3943 11.1462 19.9286 11.376 19.584Z" fill="black"/>
</svg>
