<svg width="24" height="24" viewBox="0 0 24 24" fill="none" xmlns="http://www.w3.org/2000/svg">
<path fill-rule="evenodd" clip-rule="evenodd" d="M2 13V11C2 7.5 2 2 10 2H14C22 2 22 7.5 22 11L22 13C22 16.5 22 22 14 22H10C2 22 2 16.5 2 13ZM14 15C14 15.5523 14.4477 16 15 16C15.5523 16 16 15.5523 16 15V14.999C16 14.4467 15.5523 13.999 15 13.999C14.4477 13.999 14 14.4467 14 14.999V15ZM9 10C8.44772 10 8 9.55228 8 9V8.999C8 8.44672 8.44772 7.999 9 7.999C9.55228 7.999 10 8.44672 10 8.999V9C10 9.55228 9.55228 10 9 10ZM15.5303 9.53033C15.8232 9.23744 15.8232 8.76256 15.5303 8.46967C15.2374 8.17678 14.7626 8.17678 14.4697 8.46967L8.46967 14.4697C8.17678 14.7626 8.17678 15.2374 8.46967 15.5303C8.76256 15.8232 9.23744 15.8232 9.53033 15.5303L15.5303 9.53033Z" fill="black"/>
</svg>
