<svg width="24" height="24" viewBox="0 0 24 24" fill="none" xmlns="http://www.w3.org/2000/svg">
<path d="M13.8611 3.46333C13.3878 1.51222 10.6122 1.51222 10.1389 3.46333C9.83222 4.72444 8.39222 5.32222 7.28111 4.64667C5.56556 3.60222 3.60333 5.56556 4.64778 7.28C5.1 8 5.15 9.6 3.46333 10.1389C1.51222 10.6122 1.51222 13.3878 3.46333 13.8611C4.88954 14.2071 5.23044 15.76 4.64667 16.7189C3.60222 18.4344 5.56556 20.3967 7.28 19.3522C8.5 18.65 9.82232 19.3522 10.1389 20.5367C10.6122 22.4878 13.3878 22.4878 13.8611 20.5367C14.25 19.25 15.5957 18.6695 16.7189 19.3533C18.4344 20.3978 20.3967 18.4344 19.3522 16.72C18.721 15.6838 19.1979 14.1859 20.5367 13.8611C22.4878 13.3878 22.4878 10.6122 20.5367 10.1389C19.3225 9.84435 18.6656 8.41079 19.3533 7.28111C20.3978 5.56556 18.4344 3.60333 16.72 4.64778C15.5 5.5 14 4.5 13.8611 3.46333Z" stroke="black" stroke-width="1.5" stroke-linecap="round" stroke-linejoin="round"/>
<path d="M12 8.5C10.067 8.5 8.5 10.067 8.5 12C8.5 13.933 10.067 15.5 12 15.5C13.933 15.5 15.5 13.933 15.5 12C15.5 10.067 13.933 8.5 12 8.5Z" stroke="black" stroke-width="1.5" stroke-linecap="round"/>
</svg>
