<svg width="24" height="24" viewBox="0 0 24 24" fill="none" xmlns="http://www.w3.org/2000/svg">
<path fill-rule="evenodd" clip-rule="evenodd" d="M14.3137 2.64643L16.5892 5.53598C16.8455 5.8614 16.7894 6.33296 16.464 6.58923C16.1386 6.8455 15.667 6.78944 15.4107 6.46402L13.1144 3.54804L13.1044 3.53409C12.6574 2.90973 12.2611 2.75 12 2.75C11.7389 2.75 11.3425 2.90973 10.8955 3.53409L10.8855 3.54804L8.5892 6.46402C8.33293 6.78944 7.86138 6.8455 7.53595 6.58923C7.21053 6.33296 7.15447 5.8614 7.41074 5.53598L9.68626 2.64643C10.2857 1.81536 11.0759 1.25 12 1.25C12.924 1.25 13.7143 1.81536 14.3137 2.64643Z" fill="black"/>
<path fill-rule="evenodd" clip-rule="evenodd" d="M12 2.25C12.4142 2.25 12.75 2.58579 12.75 3L12.75 15C12.75 15.4142 12.4142 15.75 12 15.75C11.5858 15.75 11.25 15.4142 11.25 15L11.25 3C11.25 2.58579 11.5858 2.25 12 2.25Z" fill="black"/>
<path opacity="0.32" d="M15.0001 22.7429C17.0002 22.7429 21 22.7429 21 16.7429C21 10.7428 17 10.743 15 10.7505H9.00021C7 10.7429 3 10.7505 3 16.7429C3 22.7429 7 22.7429 9.00021 22.7429H15H15.0001Z" fill="black"/>
</svg>
