<svg width="24" height="24" viewBox="0 0 24 24" fill="none" xmlns="http://www.w3.org/2000/svg">
<path fill-rule="evenodd" clip-rule="evenodd" d="M12 22C8.5 22 3 16 3 11V8C3 6.5 4 5 6 4C6 4 9.5 2 12 2C14.5 2 18 4 18 4C20 5 21 6.5 21 8V11C21 16 15.5 22 12 22ZM16.1053 10.4429C16.3499 10.1086 16.2772 9.63931 15.9429 9.39472C15.6086 9.15013 15.1393 9.22284 14.8947 9.55713L13.1519 11.9391C12.3417 12.9729 11.6748 13.2706 11.1565 13.2488C10.613 13.226 9.9195 12.8433 9.09102 11.7829C8.83601 11.4565 8.36468 11.3986 8.03827 11.6536C7.71186 11.9086 7.65397 12.3799 7.90898 12.7063C8.8305 13.8859 9.88702 14.6968 11.0935 14.7475C12.3237 14.7993 13.4044 14.0524 14.341 12.8535L14.3483 12.8442L14.3553 12.8347L16.1053 10.4429Z" fill="black"/>
</svg>
