<svg width="24" height="24" viewBox="0 0 24 24" fill="none" xmlns="http://www.w3.org/2000/svg">
<path opacity="0.32" d="M3 11C3 16 8.5 22 12 22C15.5 22 21 16 21 11V8C21 6.5 20 5 18 4C18 4 14.5 2 12 2C9.5 2 6 4 6 4C4 5 3 6.5 3 8V11Z" fill="black"/>
<path fill-rule="evenodd" clip-rule="evenodd" d="M15.9428 9.39472C16.2771 9.63931 16.3498 10.1086 16.1053 10.4429L14.3483 12.8442L14.341 12.8535C13.4044 14.0524 12.3237 14.7993 11.0935 14.7475C9.887 14.6968 8.83047 13.8859 7.90896 12.7063C7.65395 12.3799 7.71183 11.9086 8.03824 11.6536C8.36465 11.3986 8.83598 11.4565 9.09099 11.7829C9.91948 12.8433 10.6129 13.226 11.1565 13.2489C11.6748 13.2706 12.3417 12.9729 13.1518 11.9392L14.8947 9.55714C15.1393 9.22285 15.6086 9.15013 15.9428 9.39472Z" fill="black"/>
</svg>
