<svg width="24" height="24" viewBox="0 0 24 24" fill="none" xmlns="http://www.w3.org/2000/svg">
<path d="M8.3228 6.16445C7.98555 6.63424 7.50105 6.9753 6.9478 7.13238C6.31823 7.31112 4.07609 7.36868 3.36191 7.74877C2.14824 8.3947 1.65796 9.89404 2.25217 11.1425C2.61451 11.9038 4.52014 13.4028 4.94039 13.9554C5.37352 14.525 5.55145 15.2513 5.43127 15.959C5.31109 16.6667 4.41302 18.6288 4.41737 19.4381C4.42563 20.978 5.76161 22.1664 7.27578 21.9809C8.30029 21.8554 10.5286 20.3867 11.3062 20.1649C11.7598 20.0354 12.2402 20.0354 12.6938 20.1649C13.5 20.3949 15.7319 21.8593 16.7242 21.9809C18.2384 22.1664 19.5744 20.9779 19.5826 19.4381C19.5826 18.6328 18.6889 16.6667 18.5687 15.959C18.4485 15.2513 18.6265 14.525 19.0596 13.9554C19.4789 13.4041 21.3863 11.9021 21.7478 11.1425C22.342 9.89404 21.8518 8.3947 20.6381 7.74877C19.9248 7.36916 17.68 7.30624 17.0522 7.13238C16.499 6.9753 16.0145 6.63424 15.6772 6.16444C15.2565 5.57845 14.3568 3.15845 13.5587 2.53661C12.6404 1.82113 11.3596 1.82113 10.4413 2.53661C9.64679 3.15569 8.73949 5.584 8.3228 6.16445Z" fill="black"/>
</svg>
