<svg width="24" height="24" viewBox="0 0 24 24" fill="none" xmlns="http://www.w3.org/2000/svg">
<path fill-rule="evenodd" clip-rule="evenodd" d="M2 11V13C2 16.5 2 22 10 22H14C22 22 22 16.5 22 13L22 11C22 7.5 22 2 14 2H10C2 2 2 7.5 2 11ZM12.25 15C12.25 14.5858 12.5858 14.25 13 14.25H17C17.4142 14.25 17.75 14.5858 17.75 15C17.75 15.4142 17.4142 15.75 17 15.75H13C12.5858 15.75 12.25 15.4142 12.25 15ZM7.44893 8.3992C7.11711 8.15126 6.64713 8.21926 6.3992 8.55107C6.15126 8.88289 6.21926 9.35287 6.55107 9.6008L8.82793 11.3021C9.16981 11.5925 9.25 11.8402 9.25 12C9.25 12.1598 9.16981 12.4075 8.82793 12.6979L6.55107 14.3992C6.21926 14.6471 6.15126 15.1171 6.3992 15.4489C6.64713 15.7807 7.11711 15.8487 7.44893 15.6008L9.74318 13.8865L9.7594 13.8744L9.77495 13.8614C10.3619 13.3713 10.75 12.7308 10.75 12C10.75 11.2692 10.3619 10.6287 9.77495 10.1386L9.7594 10.1256L9.74318 10.1135L7.44893 8.3992Z" fill="black"/>
</svg>
