<svg width="24" height="24" viewBox="0 0 24 24" fill="none" xmlns="http://www.w3.org/2000/svg">
<path opacity="0.32" d="M2 11V13C2 16.5 2 22 10 22H14C22 22 22 16.5 22 13L22 11C22 7.5 22 2 14 2H10C2 2 2 7.5 2 11Z" fill="black"/>
<path fill-rule="evenodd" clip-rule="evenodd" d="M12.25 15C12.25 14.5858 12.5858 14.25 13 14.25L17 14.25C17.4142 14.25 17.75 14.5858 17.75 15C17.75 15.4142 17.4142 15.75 17 15.75L13 15.75C12.5858 15.75 12.25 15.4142 12.25 15Z" fill="black"/>
<path fill-rule="evenodd" clip-rule="evenodd" d="M6.39921 8.55109C6.64715 8.21927 7.11713 8.15128 7.44894 8.39921L9.75941 10.1256L9.77496 10.1386C10.3619 10.6287 10.75 11.2692 10.75 12C10.75 12.7308 10.3619 13.3713 9.77496 13.8614L9.75941 13.8744L7.44894 15.6008C7.11713 15.8488 6.64715 15.7808 6.39921 15.4489C6.15128 15.1171 6.21927 14.6471 6.55109 14.3992L8.82794 12.6979C9.16983 12.4075 9.25001 12.1598 9.25001 12C9.25001 11.8402 9.16983 11.5925 8.82794 11.3021L6.55109 9.60082C6.21927 9.35288 6.15128 8.8829 6.39921 8.55109Z" fill="black"/>
</svg>
