<svg width="24" height="24" viewBox="0 0 24 24" fill="none" xmlns="http://www.w3.org/2000/svg">
<path fill-rule="evenodd" clip-rule="evenodd" d="M4.04385 15.375C4.14987 17.4821 4.57394 22.75 10.9349 22.75H13.0552C19.4162 22.75 19.8403 17.4821 19.9463 15.375L20.3567 8.85008C14.0123 7.71899 10.1002 7.71388 3.64 8.85133C3.77388 10.8896 3.97532 14.0128 4.04385 15.375ZM9.87475 11.4241C10.3139 11.4241 10.6699 11.7779 10.6699 12.2143V16.4286C10.6699 16.865 10.3139 17.2187 9.87475 17.2187C9.43562 17.2187 9.07963 16.865 9.07963 16.4286V12.2143C9.07963 11.7779 9.43562 11.4241 9.87475 11.4241ZM14.9105 12.2143C14.9105 11.7779 14.5545 11.4241 14.1154 11.4241C13.6763 11.4241 13.3203 11.7779 13.3203 12.2143V16.4286C13.3203 16.865 13.6763 17.2187 14.1154 17.2187C14.5545 17.2187 14.9105 16.865 14.9105 16.4286V12.2143Z" fill="black"/>
<path fill-rule="evenodd" clip-rule="evenodd" d="M7.27967 5.55932C5.92111 5.72618 4.47194 5.96062 2.86164 6.26287C2.45454 6.33928 2.18646 6.73125 2.26287 7.13836C2.33928 7.54546 2.73125 7.81354 3.13835 7.73713C10.1688 6.41752 13.9598 6.42451 20.8599 7.73679C21.2668 7.81418 21.6594 7.54705 21.7368 7.14013C21.8142 6.73321 21.547 6.3406 21.1401 6.26321C19.5312 5.95722 18.0824 5.72037 16.7196 5.55289C16.7094 5.46302 16.6956 5.36187 16.6773 5.25169C16.6066 4.82757 16.4638 4.25062 16.1708 3.66459C15.8763 3.07562 15.4228 2.46383 14.7285 2.00096C14.0295 1.53497 13.1312 1.25 12 1.25C10.8688 1.25 9.9705 1.53497 9.2715 2.00096C8.57721 2.46383 8.1237 3.07562 7.82921 3.66459C7.53619 4.25062 7.39341 4.82757 7.32272 5.25169C7.30391 5.36451 7.28999 5.46786 7.27967 5.55932Z" fill="black"/>
</svg>
