<svg width="24" height="24" viewBox="0 0 24 24" fill="none" xmlns="http://www.w3.org/2000/svg">
<path opacity="0.32" fill-rule="evenodd" clip-rule="evenodd" d="M4.04394 15.375C4.14997 17.4821 4.57412 22.75 10.9364 22.75H13.0571C19.4194 22.75 19.8435 17.4821 19.9496 15.375L20.36 8.85008C14.0144 7.71899 10.1015 7.71388 3.64 8.85133C3.7739 10.8896 3.97539 14.0128 4.04394 15.375Z" fill="black"/>
<path fill-rule="evenodd" clip-rule="evenodd" d="M10 11.25C10.4142 11.25 10.75 11.5858 10.75 12L10.75 16C10.75 16.4142 10.4142 16.75 10 16.75C9.58579 16.75 9.25 16.4142 9.25 16L9.25 12C9.25 11.5858 9.58579 11.25 10 11.25Z" fill="black"/>
<path fill-rule="evenodd" clip-rule="evenodd" d="M14 11.25C14.4142 11.25 14.75 11.5858 14.75 12V16C14.75 16.4142 14.4142 16.75 14 16.75C13.5858 16.75 13.25 16.4142 13.25 16V12C13.25 11.5858 13.5858 11.25 14 11.25Z" fill="black"/>
<path fill-rule="evenodd" clip-rule="evenodd" d="M7.27967 5.55932C5.92111 5.72618 4.47194 5.96062 2.86164 6.26287C2.45454 6.33928 2.18646 6.73125 2.26287 7.13836C2.33928 7.54546 2.73125 7.81354 3.13835 7.73713C10.1688 6.41752 13.9598 6.42451 20.8599 7.73679C21.2668 7.81418 21.6594 7.54705 21.7368 7.14013C21.8142 6.73321 21.547 6.3406 21.1401 6.26321C19.5312 5.95722 18.0824 5.72037 16.7196 5.55289C16.7094 5.46302 16.6956 5.36187 16.6773 5.25169C16.6066 4.82757 16.4638 4.25062 16.1708 3.66459C15.8763 3.07562 15.4228 2.46383 14.7285 2.00096C14.0295 1.53497 13.1312 1.25 12 1.25C10.8688 1.25 9.9705 1.53497 9.2715 2.00096C8.57721 2.46383 8.1237 3.07562 7.82921 3.66459C7.53619 4.25062 7.39341 4.82757 7.32272 5.25169C7.30391 5.36451 7.28999 5.46786 7.27967 5.55932Z" fill="black"/>
</svg>
