<svg width="24" height="24" viewBox="0 0 24 24" fill="none" xmlns="http://www.w3.org/2000/svg">
<path d="M3 8.5C3 10.9853 5.01472 13 7.5 13C9.98528 13 12 10.9853 12 8.5C12 6.01472 9.98528 4 7.5 4C5.01472 4 3 6.01472 3 8.5Z" stroke="black" stroke-width="1.5" stroke-linecap="round"/>
<path fill-rule="evenodd" clip-rule="evenodd" d="M14.6255 5.25122C15.1764 4.9326 15.8157 4.75 16.5 4.75C18.5711 4.75 20.25 6.42893 20.25 8.5C20.25 10.5711 18.5711 12.25 16.5 12.25C15.8157 12.25 15.1764 12.0674 14.6255 11.7488C14.267 11.5414 13.8082 11.6639 13.6008 12.0224C13.3934 12.381 13.5159 12.8398 13.8745 13.0472C14.6474 13.4943 15.545 13.75 16.5 13.75C19.3995 13.75 21.75 11.3995 21.75 8.5C21.75 5.6005 19.3995 3.25 16.5 3.25C15.545 3.25 14.6474 3.50568 13.8745 3.95282C13.5159 4.16022 13.3934 4.61902 13.6008 4.97756C13.8082 5.33611 14.267 5.45863 14.6255 5.25122Z" fill="black"/>
<path d="M2 20C2 19.125 2.04462 13 7.52231 13C13 13 13 19.125 13 20" stroke="black" stroke-width="1.5" stroke-linecap="round" stroke-linejoin="round"/>
<path d="M14.25 4.60202C14.9119 4.21914 15.6804 4 16.5 4C18.9853 4 21 6.01472 21 8.5C21 10.9853 18.9853 13 16.5 13C15.6804 13 14.9119 12.7809 14.25 12.398M16.447 13C22 13 22 19.125 22 20" stroke="black" stroke-width="1.5" stroke-linecap="round"/>
</svg>
