<svg width="24" height="24" viewBox="0 0 24 24" fill="none" xmlns="http://www.w3.org/2000/svg">
<path d="M3 8.5C3 10.9853 5.01472 13 7.5 13C9.98528 13 12 10.9853 12 8.5C12 6.01472 9.98528 4 7.5 4C5.01472 4 3 6.01472 3 8.5Z" stroke="black" stroke-width="1.5" stroke-linecap="round"/>
<path d="M2 20C2 19.125 2.04462 13 7.52231 13C13 13 13 19.125 13 20" stroke="black" stroke-width="1.5" stroke-linecap="round" stroke-linejoin="round"/>
<path opacity="0.32" d="M14.25 4.60202C14.9119 4.21914 15.6804 4 16.5 4C18.9853 4 21 6.01472 21 8.5C21 10.9853 18.9853 13 16.5 13C15.6804 13 14.9119 12.7809 14.25 12.398M16.447 13C22 13 22 19.125 22 20" stroke="black" stroke-width="1.5" stroke-linecap="round"/>
</svg>
