<svg width="24" height="24" viewBox="0 0 24 24" fill="none" xmlns="http://www.w3.org/2000/svg">
<path fill-rule="evenodd" clip-rule="evenodd" d="M2 13V11C2 8.5 2.00006 4 7.99989 4H12C18 4 18 8.5 18 11V13C18 15.5 18 20 12 20H7.99994C2 20 2 15.5 2 13ZM6.75 10C6.75 9.30964 7.30964 8.75 8 8.75C8.69036 8.75 9.25 9.30964 9.25 10C9.25 10.6904 8.69036 11.25 8 11.25C7.30964 11.25 6.75 10.6904 6.75 10ZM8 7.25C6.48122 7.25 5.25 8.48122 5.25 10C5.25 11.5188 6.48122 12.75 8 12.75C9.51878 12.75 10.75 11.5188 10.75 10C10.75 8.48122 9.51878 7.25 8 7.25Z" fill="black"/>
<path fill-rule="evenodd" clip-rule="evenodd" d="M19.1023 15.5296C19.25 14.6238 19.25 13.7273 19.25 13V11C19.25 10.2727 19.25 9.37613 19.1023 8.47033C20.13 7.53467 22 8.06603 22 9.99994V14C22 15.9339 20.13 16.4653 19.1023 15.5296Z" fill="black"/>
</svg>
