<svg width="24" height="24" viewBox="0 0 24 24" fill="none" xmlns="http://www.w3.org/2000/svg">
<path opacity="0.32" d="M2 11V13C2 15.5 2 20 7.99994 20H12C18 20 18 15.5 18 13V11C18 8.5 18 4 12 4H7.99989C2.00006 4 2 8.5 2 11Z" fill="black"/>
<path d="M6 10C6 11.1046 6.89543 12 8 12C9.10457 12 10 11.1046 10 10C10 8.89543 9.10457 8 8 8C6.89543 8 6 8.89543 6 10Z" fill="black"/>
<path fill-rule="evenodd" clip-rule="evenodd" d="M19.1023 15.5296C19.25 14.6238 19.25 13.7273 19.25 13V11C19.25 10.2727 19.25 9.37614 19.1023 8.47034C20.13 7.53468 22 8.06604 22 9.99995V14C22 15.9339 20.13 16.4653 19.1023 15.5296Z" fill="black"/>
</svg>
