<svg width="24" height="24" viewBox="0 0 24 24" fill="none" xmlns="http://www.w3.org/2000/svg">
<path d="M5.88634 17.4306C3.90625 16.7222 1.25 15.4456 1.25 12C1.25 8.55436 3.90625 7.27778 5.88636 6.56944C8.10807 5.77468 8.15625 3.5 10.8125 3.5C14 3.49998 14 7.14286 14 9.57143V14.4286C14 16.8571 14 20.5 10.8125 20.5C8.15625 20.5 7.86643 18.1389 5.88634 17.4306Z" fill="black"/>
<path fill-rule="evenodd" clip-rule="evenodd" d="M17.1025 15.636C16.7512 15.4165 16.6445 14.9537 16.864 14.6025C17.428 13.7 17.6875 12.8359 17.6875 12C17.6875 11.1641 17.428 10.3 16.864 9.39749C16.6445 9.04624 16.7512 8.58353 17.1025 8.36399C17.4538 8.14446 17.9165 8.25124 18.136 8.60249C18.822 9.70003 19.1875 10.8359 19.1875 12C19.1875 13.1641 18.822 14.3 18.136 15.3975C17.9165 15.7487 17.4538 15.8555 17.1025 15.636Z" fill="black"/>
<path fill-rule="evenodd" clip-rule="evenodd" d="M20.5846 6.31065C20.9653 6.14748 21.4062 6.32385 21.5694 6.70457C23.1502 10.3932 23.1502 13.6068 21.5694 17.2954C21.4062 17.6762 20.9653 17.8525 20.5846 17.6894C20.2038 17.5262 20.0275 17.0853 20.1906 16.7046C21.6098 13.3932 21.6098 10.6068 20.1906 7.29545C20.0275 6.91473 20.2038 6.47382 20.5846 6.31065Z" fill="black"/>
</svg>
