<svg width="24" height="24" viewBox="0 0 24 24" fill="none" xmlns="http://www.w3.org/2000/svg">
<path opacity="0.32" fill-rule="evenodd" clip-rule="evenodd" d="M2 11V13C2 16 2 21 9 21H15C18.7649 21 20.5049 19.5536 21.309 17.75H17C16.0962 17.7494 15.1627 17.4465 14.4456 16.8109C13.7144 16.163 13.2507 15.2059 13.25 14.0005C13.2493 12.7944 13.7132 11.837 14.4448 11.1889C15.1622 10.5535 16.0958 10.2506 16.9995 10.25H21.9965C21.9557 7.23651 21.4434 3 15 3H9C2 3 2 8 2 11Z" fill="black"/>
<path fill-rule="evenodd" clip-rule="evenodd" d="M22 11.75H17.0003C16.4176 11.7504 15.8507 11.9475 15.4394 12.3118C15.0423 12.6635 14.7495 13.2056 14.75 13.9995C14.7505 14.7941 15.0436 15.3366 15.4405 15.6884C15.8515 16.0526 16.4179 16.2496 17.0005 16.25H21.7736C22 15.1146 22 13.9558 22 13V11.75ZM16.75 14C16.75 13.5858 17.0858 13.25 17.5 13.25H18.5C18.9142 13.25 19.25 13.5858 19.25 14C19.25 14.4142 18.9142 14.75 18.5 14.75H17.5C17.0858 14.75 16.75 14.4142 16.75 14Z" fill="black"/>
</svg>
