<svg width="24" height="24" viewBox="0 0 24 24" fill="none" xmlns="http://www.w3.org/2000/svg">
<path fill-rule="evenodd" clip-rule="evenodd" d="M2.7785 14.007C0.955658 17.2801 2.23583 21.5 7.66037 21.5H16.3394C21.764 21.5 23.0444 17.2801 21.2215 14.007L18.7062 9.47703L16.0684 4.90842C14.1699 1.69719 9.83037 1.69721 7.93184 4.9084L5.29527 9.46623L2.7785 14.007ZM12 7.5C12.4142 7.5 12.75 7.83579 12.75 8.25V11.25C12.75 11.6642 12.4142 12 12 12C11.5858 12 11.25 11.6642 11.25 11.25V8.25C11.25 7.83579 11.5858 7.5 12 7.5ZM11 15.75C11 16.3023 11.4477 16.75 12 16.75C12.5523 16.75 13 16.3023 13 15.75V15.749C13 15.1967 12.5523 14.749 12 14.749C11.4477 14.749 11 15.1967 11 15.749V15.75Z" fill="black"/>
</svg>
