<svg width="24" height="24" viewBox="0 0 24 24" fill="none" xmlns="http://www.w3.org/2000/svg">
<path fill-rule="evenodd" clip-rule="evenodd" d="M12.6786 2.02266C12.4543 2.00763 12.2281 2 12 2C11.7719 2 11.5457 2.00763 11.3214 2.02266L10.9059 2.83991L10.9036 2.84445C10.1342 4.33262 9.53662 5.7094 9.105 7.01931C10.0762 6.84047 11.0362 6.75 12 6.75C12.9638 6.75 13.9238 6.84047 14.895 7.01931C14.4634 5.7094 13.8658 4.33261 13.0964 2.84444L13.0941 2.83991L12.6786 2.02266ZM15.3535 8.64652C14.2071 8.38072 13.1004 8.25 12 8.25C10.8996 8.25 9.79291 8.38072 8.64652 8.64652C8.38072 9.79291 8.25 10.8996 8.25 12C8.25 13.1004 8.38072 14.2071 8.64652 15.3535C9.79291 15.6193 10.8996 15.75 12 15.75C13.1004 15.75 14.2071 15.6193 15.3535 15.3535C15.6193 14.2071 15.75 13.1004 15.75 12C15.75 10.8996 15.6193 9.79291 15.3535 8.64652ZM7.41519 7.41519C7.87434 5.79202 8.56821 4.11528 9.48746 2.31828C5.98358 3.22499 3.22499 5.98358 2.31828 9.48746C4.11528 8.56821 5.79202 7.87434 7.41519 7.41519ZM2.02266 11.3214L2.83991 10.9059L2.84445 10.9036C4.33262 10.1342 5.7094 9.53662 7.01931 9.105C6.84047 10.0762 6.75 11.0362 6.75 12C6.75 12.9638 6.84047 13.9238 7.01931 14.895C5.7094 14.4634 4.33261 13.8658 2.84444 13.0964L2.83991 13.0941L2.02266 12.6786C2.00763 12.4543 2 12.2281 2 12C2 11.7719 2.00763 11.5457 2.02266 11.3214ZM16.9807 9.105C18.2906 9.53662 19.6674 10.1342 21.1556 10.9036L21.1601 10.9059L21.9773 11.3214C21.9924 11.5457 22 11.7719 22 12C22 12.2281 21.9924 12.4543 21.9773 12.6786L21.1601 13.0941L21.1556 13.0964C19.6674 13.8658 18.2906 14.4634 16.9807 14.895C17.1595 13.9238 17.25 12.9638 17.25 12C17.25 11.0362 17.1595 10.0762 16.9807 9.105ZM21.6817 9.48746C19.8847 8.56821 18.208 7.87435 16.5848 7.41519C16.1257 5.79202 15.4318 4.11528 14.5125 2.31828C18.0164 3.22499 20.775 5.98358 21.6817 9.48746ZM7.41519 16.5848C5.79202 16.1257 4.11528 15.4318 2.31828 14.5125C3.22499 18.0164 5.98358 20.775 9.48746 21.6817C8.56821 19.8847 7.87434 18.208 7.41519 16.5848ZM12 17.25C11.0362 17.25 10.0762 17.1595 9.105 16.9807C9.53662 18.2906 10.1342 19.6674 10.9036 21.1556L10.9059 21.1601L11.3214 21.9773C11.5457 21.9924 11.7719 22 12 22C12.2281 22 12.4543 21.9924 12.6786 21.9773L13.0941 21.1601L13.0964 21.1556C13.8658 19.6674 14.4634 18.2906 14.895 16.9807C13.9238 17.1595 12.9638 17.25 12 17.25ZM14.5125 21.6817C15.4318 19.8847 16.1257 18.208 16.5848 16.5848C18.208 16.1257 19.8847 15.4318 21.6817 14.5125C20.775 18.0164 18.0164 20.775 14.5125 21.6817Z" fill="black"/>
</svg>
