<svg width="24" height="24" viewBox="0 0 24 24" fill="none" xmlns="http://www.w3.org/2000/svg">
<path d="M2 12C2 17.5228 6.47715 22 12 22C17.5228 22 22 17.5228 22 12C22 6.47715 17.5228 2 12 2C6.47715 2 2 6.47715 2 12Z" stroke="black" stroke-width="1.5" stroke-linecap="round"/>
<path d="M10.2374 2.5C6.58754 9.55967 6.58754 14.4403 10.2374 21.5" stroke="black" stroke-width="1.5" stroke-linecap="round"/>
<path d="M13.7626 21.5C17.4125 14.4403 17.4125 9.55967 13.7626 2.5" stroke="black" stroke-width="1.5" stroke-linecap="round"/>
<path opacity="0.32" d="M21.5 13.7626C14.4403 17.4125 9.55967 17.4125 2.5 13.7626" stroke="black" stroke-width="1.5" stroke-linecap="round"/>
<path opacity="0.32" d="M2.5 10.2374C9.55967 6.58754 14.4403 6.58754 21.5 10.2374" stroke="black" stroke-width="1.5" stroke-linecap="round"/>
</svg>
